<svg width="24" height="24" viewBox="0 0 24 24" fill="none" xmlns="http://www.w3.org/2000/svg">
<path d="M11.9046 0C9.5501 0 7.24847 0.68183 5.29076 1.95927C3.33306 3.23671 1.80722 5.05238 0.906189 7.17668C0.00515807 9.30098 -0.230593 11.6385 0.228749 13.8937C0.688091 16.1488 1.82189 18.2203 3.48678 19.8462C5.15167 21.472 7.27287 22.5793 9.58213 23.0278C11.8914 23.4764 14.285 23.2462 16.4603 22.3663C18.6356 21.4864 20.4948 19.9963 21.8029 18.0844C23.111 16.1726 23.8092 13.9249 23.8092 11.6256C23.8092 10.0989 23.5013 8.58716 22.903 7.17668C22.3048 5.7662 21.4279 4.4846 20.3224 3.40506C19.217 2.32552 17.9046 1.46919 16.4603 0.884947C15.016 0.300705 13.4679 0 11.9046 0ZM11.9046 20.9261C10.021 20.9261 8.17969 20.3806 6.61353 19.3587C5.04737 18.3367 3.8267 16.8842 3.10587 15.1847C2.38505 13.4853 2.19645 11.6153 2.56392 9.81117C2.93139 8.00706 3.83844 6.34987 5.17035 5.04917C6.50226 3.74847 8.19921 2.86269 10.0466 2.50383C11.894 2.14497 13.8089 2.32915 15.5492 3.03308C17.2894 3.73701 18.7768 4.92908 19.8233 6.45853C20.8697 7.98799 21.4283 9.78615 21.4283 11.6256C21.4283 14.0922 20.4249 16.4579 18.6389 18.202C16.8528 19.9462 14.4304 20.9261 11.9046 20.9261Z" fill="#DBDBDB"/>
<path d="M11.9049 4.65022C10.7998 4.65022 9.74004 5.07892 8.95865 5.842C8.17726 6.60508 7.73828 7.64003 7.73828 8.71919C7.73828 9.02752 7.8637 9.32322 8.08696 9.54125C8.31021 9.75927 8.61301 9.88175 8.92874 9.88175C9.24447 9.88175 9.54727 9.75927 9.77052 9.54125C9.99378 9.32322 10.1192 9.02752 10.1192 8.71919C10.1192 8.37429 10.2239 8.03714 10.4201 7.75036C10.6164 7.46359 10.8952 7.24008 11.2215 7.10809C11.5478 6.9761 11.9069 6.94157 12.2533 7.00886C12.5996 7.07614 12.9178 7.24223 13.1676 7.48611C13.4173 7.72999 13.5874 8.04071 13.6563 8.37898C13.7252 8.71726 13.6898 9.06788 13.5547 9.38653C13.4195 9.70518 13.1906 9.97753 12.897 10.1691C12.6033 10.3608 12.2581 10.463 11.9049 10.463C11.5892 10.463 11.2864 10.5855 11.0631 10.8035C10.8399 11.0216 10.7144 11.3173 10.7144 11.6256V13.9507C10.7144 14.2591 10.8399 14.5548 11.0631 14.7728C11.2864 14.9908 11.5892 15.1133 11.9049 15.1133C12.2206 15.1133 12.5234 14.9908 12.7467 14.7728C12.9699 14.5548 13.0953 14.2591 13.0953 13.9507V12.6021C14.0574 12.3278 14.8854 11.7231 15.4268 10.8995C15.9683 10.0759 16.1867 9.08896 16.0417 8.12055C15.8967 7.15213 15.3982 6.26753 14.6379 5.62979C13.8777 4.99205 12.9071 4.64415 11.9049 4.65022Z" fill="#DBDBDB"/>
<path d="M11.9048 18.601C12.5623 18.601 13.0952 18.0805 13.0952 17.4384C13.0952 16.7964 12.5623 16.2759 11.9048 16.2759C11.2473 16.2759 10.7144 16.7964 10.7144 17.4384C10.7144 18.0805 11.2473 18.601 11.9048 18.601Z" fill="#DBDBDB"/>
</svg>
