<svg width="26" height="21" viewBox="0 0 26 21" fill="none" xmlns="http://www.w3.org/2000/svg">
<path d="M2.15414 20.9261C2.15414 20.9261 0 20.9261 0 19.1823C0 17.4384 2.15414 12.2069 12.9248 12.2069C23.6955 12.2069 25.8496 17.4384 25.8496 19.1823C25.8496 20.9261 23.6955 20.9261 23.6955 20.9261H2.15414ZM12.9248 10.4631C14.6388 10.4631 16.2825 9.91188 17.4944 8.93078C18.7064 7.94968 19.3872 6.61902 19.3872 5.23153C19.3872 3.84404 18.7064 2.51338 17.4944 1.53228C16.2825 0.551178 14.6388 0 12.9248 0C11.2109 0 9.56714 0.551178 8.3552 1.53228C7.14327 2.51338 6.46241 3.84404 6.46241 5.23153C6.46241 6.61902 7.14327 7.94968 8.3552 8.93078C9.56714 9.91188 11.2109 10.4631 12.9248 10.4631Z" fill="black"/>
</svg>
