<svg width="18" height="30" viewBox="0 0 18 30" fill="none" xmlns="http://www.w3.org/2000/svg">
<path d="M0.000705822 7.58738C-0.0038378 7.69457 0.0135923 7.80155 0.0519237 7.90175C0.090255 8.00196 0.148677 8.09326 0.223599 8.17004C0.298521 8.24683 0.388357 8.30748 0.487586 8.34826C0.586814 8.38905 0.693334 8.4091 0.8006 8.40719H3.53883C3.99686 8.40719 4.36196 8.03214 4.4217 7.57743C4.72042 5.40012 6.214 3.81361 8.87589 3.81361C11.1528 3.81361 13.2371 4.95205 13.2371 7.69028C13.2371 9.79788 11.9958 10.767 10.0342 12.2407C7.80051 13.8637 6.03145 15.7589 6.15757 18.8357L6.16753 19.5559C6.17101 19.7737 6.25997 19.9814 6.41521 20.1341C6.57044 20.2869 6.77951 20.3725 6.9973 20.3724H9.68906C9.90913 20.3724 10.1202 20.285 10.2758 20.1294C10.4314 19.9738 10.5188 19.7627 10.5188 19.5427V19.1942C10.5188 16.8111 11.4249 16.1174 13.8711 14.262C15.8924 12.7253 18 11.0193 18 7.43803C18 2.42292 13.7649 0 9.12814 0C4.92288 0 0.316017 1.95825 0.000705822 7.58738ZM5.16849 26.7152C5.16849 28.4842 6.57909 29.7919 8.52075 29.7919C10.5421 29.7919 11.9327 28.4842 11.9327 26.7152C11.9327 24.883 10.5387 23.5952 8.51743 23.5952C6.57909 23.5952 5.16849 24.883 5.16849 26.7152Z" fill="#FFFBF7"/>
</svg>
