<svg width="414" height="260" viewBox="0 0 414 260" fill="none" xmlns="http://www.w3.org/2000/svg">
<g clip-path="url(#clip0_787_7799)">
<path d="M91.1172 110.812L118.82 132.75L105.531 144.281L78.25 122.344L91.1172 110.812ZM119.523 72.4219V77.2734C119.523 85.0547 118.469 92.0391 116.359 98.2266C114.297 104.414 111.32 109.688 107.43 114.047C103.539 118.359 98.9453 121.664 93.6484 123.961C88.3516 126.258 82.4688 127.406 76 127.406C69.5781 127.406 63.6953 126.258 58.3516 123.961C53.0078 121.664 48.3906 118.359 44.5 114.047C40.6094 109.688 37.5859 104.414 35.4297 98.2266C33.3203 92.0391 32.2656 85.0547 32.2656 77.2734V72.4219C32.2656 64.5938 33.3203 57.6094 35.4297 51.4688C37.5859 45.2812 40.5859 40.0078 44.4297 35.6484C48.2734 31.2891 52.8672 27.9609 58.2109 25.6641C63.5547 23.3672 69.4375 22.2188 75.8594 22.2188C82.3281 22.2188 88.2109 23.3672 93.5078 25.6641C98.8516 27.9609 103.469 31.2891 107.359 35.6484C111.25 40.0078 114.25 45.2812 116.359 51.4688C118.469 57.6094 119.523 64.5938 119.523 72.4219ZM98.2188 77.2734V72.2812C98.2188 66.8438 97.7031 62.0625 96.6719 57.9375C95.6875 53.8125 94.2344 50.3438 92.3125 47.5312C90.4375 44.7188 88.1172 42.6094 85.3516 41.2031C82.5859 39.75 79.4219 39.0234 75.8594 39.0234C72.2969 39.0234 69.1328 39.75 66.3672 41.2031C63.6016 42.6094 61.2812 44.7188 59.4062 47.5312C57.5312 50.3438 56.1016 53.8125 55.1172 57.9375C54.1328 62.0625 53.6406 66.8438 53.6406 72.2812V77.2734C53.6406 82.6641 54.1328 87.4453 55.1172 91.6172C56.1016 95.7422 57.5312 99.2344 59.4062 102.094C61.3281 104.906 63.6719 107.039 66.4375 108.492C69.25 109.945 72.4375 110.672 76 110.672C79.5625 110.672 82.7031 109.945 85.4219 108.492C88.1875 107.039 90.5078 104.906 92.3828 102.094C94.3047 99.2344 95.7578 95.7422 96.7422 91.6172C97.7266 87.4453 98.2188 82.6641 98.2188 77.2734Z" fill="black" fill-opacity="0.3"/>
<g filter="url(#filter0_d_787_7799)">
<path d="M79.1821 120.309L85.9155 125.641L82.6855 128.443L76.0547 123.111L79.1821 120.309ZM86.0864 110.978V112.157C86.0864 114.048 85.8301 115.746 85.3174 117.25C84.8161 118.753 84.0926 120.035 83.147 121.095C82.2013 122.143 81.0848 122.946 79.7974 123.504C78.5099 124.063 77.0801 124.342 75.5078 124.342C73.9469 124.342 72.5171 124.063 71.2183 123.504C69.9194 122.946 68.7972 122.143 67.8516 121.095C66.9059 120.035 66.1711 118.753 65.647 117.25C65.1343 115.746 64.8779 114.048 64.8779 112.157V110.978C64.8779 109.075 65.1343 107.377 65.647 105.885C66.1711 104.381 66.9002 103.099 67.8345 102.04C68.7687 100.98 69.8853 100.171 71.1841 99.6128C72.4829 99.0545 73.9128 98.7754 75.4736 98.7754C77.0459 98.7754 78.4757 99.0545 79.7632 99.6128C81.062 100.171 82.1842 100.98 83.1299 102.04C84.0755 103.099 84.8047 104.381 85.3174 105.885C85.8301 107.377 86.0864 109.075 86.0864 110.978ZM80.9082 112.157V110.943C80.9082 109.622 80.7829 108.46 80.5322 107.457C80.293 106.454 79.9398 105.611 79.4727 104.928C79.0169 104.244 78.453 103.731 77.7808 103.39C77.1086 103.036 76.3395 102.86 75.4736 102.86C74.6077 102.86 73.8387 103.036 73.1665 103.39C72.4943 103.731 71.9303 104.244 71.4746 104.928C71.0189 105.611 70.6714 106.454 70.4321 107.457C70.1929 108.46 70.0732 109.622 70.0732 110.943V112.157C70.0732 113.467 70.1929 114.629 70.4321 115.643C70.6714 116.646 71.0189 117.494 71.4746 118.189C71.9417 118.873 72.5114 119.391 73.1836 119.745C73.8672 120.098 74.6419 120.274 75.5078 120.274C76.3737 120.274 77.137 120.098 77.7979 119.745C78.4701 119.391 79.034 118.873 79.4897 118.189C79.9569 117.494 80.3101 116.646 80.5493 115.643C80.7886 114.629 80.9082 113.467 80.9082 112.157ZM102.117 110.687L106.902 107.594C107.608 107.127 108.081 106.677 108.32 106.244C108.56 105.811 108.679 105.326 108.679 104.791C108.679 104.256 108.48 103.76 108.081 103.304C107.682 102.837 107.124 102.604 106.406 102.604C105.894 102.604 105.461 102.723 105.107 102.962C104.754 103.19 104.486 103.498 104.304 103.885C104.133 104.273 104.048 104.706 104.048 105.184C104.048 105.697 104.185 106.221 104.458 106.756C104.731 107.28 105.102 107.839 105.569 108.431C106.036 109.012 106.554 109.645 107.124 110.328L118.865 124H113.276L103.706 112.926C102.897 111.923 102.191 111.006 101.587 110.174C100.983 109.331 100.51 108.511 100.168 107.713C99.8267 106.916 99.6558 106.096 99.6558 105.252C99.6558 103.954 99.9349 102.82 100.493 101.852C101.051 100.872 101.838 100.114 102.852 99.5786C103.866 99.0317 105.056 98.7583 106.423 98.7583C107.711 98.7583 108.827 99.026 109.773 99.5615C110.719 100.086 111.448 100.781 111.96 101.646C112.485 102.512 112.747 103.464 112.747 104.5C112.747 105.275 112.604 105.993 112.319 106.654C112.035 107.303 111.641 107.907 111.14 108.465C110.639 109.012 110.063 109.519 109.414 109.986L103.962 113.866C103.541 114.253 103.222 114.635 103.005 115.011C102.789 115.387 102.641 115.746 102.561 116.087C102.481 116.418 102.441 116.737 102.441 117.044C102.441 117.705 102.584 118.298 102.869 118.822C103.153 119.346 103.552 119.756 104.065 120.052C104.578 120.348 105.176 120.497 105.859 120.497C106.794 120.497 107.699 120.292 108.577 119.881C109.454 119.471 110.24 118.884 110.935 118.121C111.63 117.346 112.183 116.429 112.593 115.37C113.003 114.31 113.208 113.142 113.208 111.866H117.378C117.378 113.142 117.253 114.356 117.002 115.506C116.751 116.646 116.347 117.705 115.789 118.685C115.23 119.653 114.49 120.514 113.567 121.266C113.499 121.323 113.402 121.408 113.276 121.522C113.162 121.625 113.066 121.704 112.986 121.761C111.892 122.639 110.753 123.294 109.568 123.727C108.383 124.148 107.061 124.359 105.603 124.359C103.94 124.359 102.498 124.057 101.279 123.453C100.072 122.849 99.1374 122.018 98.4766 120.958C97.8271 119.898 97.5024 118.685 97.5024 117.318C97.5024 116.315 97.6961 115.444 98.0835 114.703C98.4823 113.951 99.0291 113.256 99.7241 112.618C100.419 111.98 101.217 111.336 102.117 110.687ZM140.381 103.373L133.613 124H128.162L137.407 99.1172H140.876L140.381 103.373ZM146.003 124L139.219 103.373L138.672 99.1172H142.175L151.472 124H146.003ZM145.696 114.737V118.753H132.554V114.737H145.696Z" fill="white"/>
</g>
<g clip-path="url(#clip1_787_7799)">
<path d="M272.191 228.623C279.74 228.623 285.86 222.464 285.86 214.867C285.86 207.271 279.74 201.112 272.191 201.112C264.642 201.112 258.522 207.271 258.522 214.867C258.522 222.464 264.642 228.623 272.191 228.623Z" fill="#FFC700"/>
<path d="M353.851 227.85C361.498 225.539 369.628 223.129 375.693 217.635C381.112 212.725 384.771 205.228 382.526 197.866C380.285 190.518 373.574 185.619 366.646 183.182C362.716 181.8 358.604 181.033 354.494 180.431C350.027 179.776 345.539 179.239 341.054 178.723C322.892 176.633 304.663 175.356 286.364 174.892C277.335 174.663 268.308 174.669 259.278 174.801C251.213 174.919 242.72 174.916 235.238 171.467C229.42 168.784 224.14 163.904 222.519 157.492C220.648 150.09 224.099 142.551 229.051 137.19C231.66 134.364 234.711 131.986 237.857 129.799C241.271 127.427 244.803 125.222 248.412 123.164C255.521 119.113 262.952 115.666 270.63 112.857C274.417 111.471 278.261 110.276 282.138 109.173C285.412 108.241 288.695 107.309 291.859 106.04C297.976 103.586 303.794 99.4311 305.349 92.6188C306.823 86.1623 304.338 79.1533 299.981 74.3569C294.94 68.8079 287.34 66.3753 280.053 65.9818C271.873 65.5399 263.881 67.6001 256.193 70.2148C247.992 73.0035 239.968 76.2101 231.595 78.4689C223.291 80.7067 214.827 82.29 206.278 83.2045C202.094 83.6529 197.783 84.1592 193.573 83.8159C190.045 83.5282 186.535 82.4841 183.935 79.9645C181.706 77.8041 180.378 74.835 180.834 71.7017C180.917 71.1326 181.776 71.3745 181.694 71.9402C181.138 75.7543 183.714 79.2689 186.889 81.0693C190.559 83.15 195.024 83.1529 199.109 82.9149C207.967 82.3765 216.765 81.0967 225.411 79.0886C233.908 77.1358 242.101 74.3442 250.285 71.362C258.057 68.5298 266.003 65.7655 274.307 65.152C281.511 64.6197 289.091 65.676 295.367 69.4649C300.884 72.7949 304.94 78.3482 306.233 84.7208C307.496 90.948 305.746 97.2157 301.062 101.561C296.212 106.06 289.562 107.984 283.365 109.756C275.504 112.003 267.812 114.629 260.367 118.04C252.82 121.487 245.583 125.581 238.734 130.278C232.123 134.824 225.6 140.544 223.509 148.654C222.535 152.432 222.715 156.438 224.344 160.006C225.793 163.179 228.18 165.848 230.959 167.906C237.592 172.818 245.952 173.826 253.964 173.926C262.962 174.039 271.96 173.734 280.962 173.882C299.306 174.185 317.612 175.309 335.881 177.253C340.459 177.741 345.031 178.28 349.597 178.87C353.705 179.401 357.826 179.929 361.864 180.872C369.044 182.549 376.03 185.773 380.493 191.899C382.473 194.555 383.7 197.701 384.043 201.004C384.355 204.45 383.517 207.902 381.969 210.967C378.542 217.753 372.123 222.068 365.306 224.904C361.655 226.422 357.868 227.573 354.088 228.715C353.538 228.881 353.302 228.016 353.851 227.85L353.851 227.85Z" fill="#F2F2F2"/>
<path d="M181.41 78.9592C185.349 78.9592 188.542 75.7461 188.542 71.7825C188.542 67.8189 185.349 64.6058 181.41 64.6058C177.471 64.6058 174.278 67.8189 174.278 71.7825C174.278 75.7461 177.471 78.9592 181.41 78.9592Z" fill="#F2F2F2"/>
<path d="M230.886 92.5649C234.825 92.5649 238.018 89.3518 238.018 85.3882C238.018 81.4247 234.825 78.2115 230.886 78.2115C226.947 78.2115 223.754 81.4247 223.754 85.3882C223.754 89.3518 226.947 92.5649 230.886 92.5649Z" fill="#F2F2F2"/>
<path d="M272.785 65.3534C276.724 65.3534 279.917 62.1402 279.917 58.1767C279.917 54.2131 276.724 51 272.785 51C268.846 51 265.653 54.2131 265.653 58.1767C265.653 62.1402 268.846 65.3534 272.785 65.3534Z" fill="#F2F2F2"/>
<path d="M298.935 95.8542C302.873 95.8542 306.066 92.6411 306.066 88.6775C306.066 84.714 302.873 81.5009 298.935 81.5009C294.996 81.5009 291.803 84.714 291.803 88.6775C291.803 92.6411 294.996 95.8542 298.935 95.8542Z" fill="#F2F2F2"/>
<path d="M263.573 131.14C267.512 131.14 270.705 127.927 270.705 123.963C270.705 119.999 267.512 116.786 263.573 116.786C259.635 116.786 256.442 119.999 256.442 123.963C256.442 127.927 259.635 131.14 263.573 131.14Z" fill="#F2F2F2"/>
<path d="M218.703 148.184C222.642 148.184 225.834 144.971 225.834 141.007C225.834 137.044 222.642 133.831 218.703 133.831C214.764 133.831 211.571 137.044 211.571 141.007C211.571 144.971 214.764 148.184 218.703 148.184Z" fill="#F2F2F2"/>
<path d="M266.248 174.798C270.186 174.798 273.379 171.585 273.379 167.621C273.379 163.657 270.186 160.444 266.248 160.444C262.309 160.444 259.116 163.657 259.116 167.621C259.116 171.585 262.309 174.798 266.248 174.798Z" fill="#F2F2F2"/>
<path d="M317.359 189.749C321.297 189.749 324.49 186.536 324.49 182.572C324.49 178.609 321.297 175.396 317.359 175.396C313.42 175.396 310.227 178.609 310.227 182.572C310.227 186.536 313.42 189.749 317.359 189.749Z" fill="#F2F2F2"/>
<path d="M377.087 186.46C381.025 186.46 384.218 183.247 384.218 179.283C384.218 175.32 381.025 172.106 377.087 172.106C373.148 172.106 369.955 175.32 369.955 179.283C369.955 183.247 373.148 186.46 377.087 186.46Z" fill="#F2F2F2"/>
<path d="M270.727 71.3349C249.363 71.4868 231.872 88.9566 231.568 110.453C231.565 110.651 231.564 112.047 231.564 113.872C231.564 116.548 232.621 119.114 234.501 121.007C236.382 122.899 238.932 123.963 241.591 123.963H241.591C242.91 123.963 244.215 123.701 245.433 123.193C246.651 122.685 247.757 121.94 248.689 121.001C249.62 120.063 250.359 118.949 250.863 117.723C251.366 116.497 251.625 115.183 251.624 113.856C251.623 112.615 251.622 111.755 251.622 111.703C251.621 108.38 252.48 105.115 254.114 102.228C255.747 99.3415 258.1 96.9322 260.939 95.2377C263.779 93.5431 267.008 92.6215 270.309 92.5637C273.61 92.5058 276.869 93.3137 279.765 94.9077C282.662 96.5018 285.096 98.8271 286.829 101.655C288.561 104.483 289.533 107.716 289.647 111.036C289.761 114.356 289.015 117.649 287.481 120.591C285.947 123.533 283.678 126.022 280.898 127.814L280.901 127.818C280.901 127.818 266.63 137.064 262.278 149.748L262.282 149.749C261.517 152.347 261.129 155.043 261.131 157.753C261.131 158.867 261.196 168.614 261.322 176.525C261.366 179.255 262.475 181.858 264.409 183.772C266.343 185.687 268.947 186.759 271.66 186.759H271.66C273.023 186.759 274.373 186.487 275.632 185.96C276.89 185.433 278.033 184.661 278.994 183.688C279.955 182.715 280.715 181.561 281.231 180.291C281.747 179.021 282.008 177.661 281.999 176.29C281.956 169.044 281.932 160.608 281.932 159.996C281.932 152.208 289.398 144.448 295.531 139.387C302.593 133.56 307.675 125.619 309.716 116.662C310.168 114.817 310.417 112.929 310.459 111.03C310.459 105.793 309.429 100.607 307.429 95.7727C305.429 90.9378 302.497 86.5491 298.804 82.8594C295.111 79.1696 290.729 76.2517 285.91 74.2738C281.091 72.2959 275.931 71.2971 270.727 71.3349V71.3349Z" fill="#FFC700"/>
<path d="M394.646 229H144.354C144.26 229 144.17 228.962 144.104 228.895C144.038 228.829 144.001 228.738 144.001 228.644C144.001 228.55 144.038 228.459 144.104 228.393C144.17 228.326 144.26 228.288 144.354 228.288H394.646C394.74 228.288 394.83 228.325 394.896 228.392C394.963 228.459 395 228.55 395 228.644C395 228.738 394.963 228.829 394.896 228.896C394.83 228.963 394.74 229 394.646 229V229Z" fill="#3F3D56"/>
<path d="M330.747 132.633C335.671 132.633 339.662 128.617 339.662 123.663C339.662 118.708 335.671 114.692 330.747 114.692C325.824 114.692 321.833 118.708 321.833 123.663C321.833 128.617 325.824 132.633 330.747 132.633Z" fill="#2F2E41"/>
<path d="M314.274 225.073H310.631L308.897 210.932H314.275L314.274 225.073Z" fill="#A0616A"/>
<path d="M308.028 224.025H315.054V228.477H303.605C303.605 227.892 303.719 227.314 303.941 226.773C304.164 226.233 304.49 225.743 304.9 225.329C305.311 224.916 305.799 224.588 306.336 224.364C306.872 224.141 307.448 224.025 308.028 224.025Z" fill="#2F2E41"/>
<path d="M342.504 225.073H338.861L337.127 210.932H342.504L342.504 225.073Z" fill="#A0616A"/>
<path d="M336.258 224.025H343.284V228.477H331.835C331.835 227.892 331.949 227.314 332.171 226.773C332.394 226.233 332.72 225.743 333.13 225.329C333.541 224.916 334.029 224.588 334.566 224.364C335.102 224.141 335.677 224.025 336.258 224.025V224.025Z" fill="#2F2E41"/>
<path d="M329.392 132.686C333.423 132.686 336.691 129.398 336.691 125.341C336.691 121.285 333.423 117.997 329.392 117.997C325.362 117.997 322.094 121.285 322.094 125.341C322.094 129.398 325.362 132.686 329.392 132.686Z" fill="#A0616A"/>
<path d="M333.743 156.379L337.008 148.829C337.801 147.058 338.029 145.082 337.659 143.175C337.289 141.269 336.34 139.524 334.943 138.183C334.656 137.898 334.351 137.631 334.031 137.385C332.419 136.117 330.434 135.425 328.388 135.42C327.012 135.426 325.654 135.73 324.406 136.312C324.299 136.359 324.195 136.41 324.088 136.461C323.883 136.56 323.681 136.667 323.485 136.778C322.205 137.517 321.117 138.549 320.306 139.789C319.496 141.029 318.987 142.444 318.819 143.919L317.378 156.071C317.016 157.025 304.083 191.473 308.606 217.773C308.654 218.054 308.79 218.312 308.995 218.509C309.199 218.707 309.46 218.833 309.741 218.87L314.326 219.498C314.661 219.544 315.001 219.461 315.277 219.265C315.553 219.069 315.746 218.775 315.815 218.443L323.508 181.54C323.556 181.31 323.679 181.104 323.858 180.953C324.036 180.802 324.259 180.716 324.492 180.708C324.725 180.7 324.953 180.771 325.141 180.909C325.329 181.048 325.466 181.245 325.529 181.471L336.399 220.279C336.477 220.561 336.644 220.809 336.875 220.986C337.106 221.164 337.389 221.259 337.68 221.259C337.767 221.259 337.853 221.251 337.938 221.236L343.54 220.15C343.865 220.089 344.156 219.907 344.356 219.641C344.556 219.375 344.649 219.044 344.618 218.712C343.795 209.475 339.421 163.206 333.743 156.379Z" fill="#2F2E41"/>
<path d="M301.029 131.454C300.978 131.89 301.023 132.333 301.161 132.75C301.299 133.167 301.525 133.549 301.826 133.868C302.126 134.188 302.492 134.437 302.898 134.599C303.304 134.76 303.741 134.83 304.177 134.804L308.256 144.669L311.342 140.066L306.995 131.403C306.902 130.669 306.545 129.994 305.991 129.508C305.437 129.021 304.725 128.755 303.99 128.761C303.254 128.768 302.547 129.045 302.001 129.541C301.455 130.037 301.109 130.718 301.029 131.454L301.029 131.454Z" fill="#A0616A"/>
<path d="M328.988 166.313C329.421 166.261 329.838 166.114 330.21 165.882C330.581 165.65 330.897 165.339 331.135 164.971C331.374 164.603 331.53 164.186 331.591 163.751C331.653 163.316 331.619 162.872 331.492 162.452L340.075 156.161L334.907 154.213L327.549 160.486C326.861 160.748 326.292 161.255 325.951 161.91C325.609 162.566 325.519 163.324 325.696 164.043C325.873 164.761 326.307 165.389 326.913 165.807C327.52 166.226 328.258 166.406 328.988 166.313V166.313Z" fill="#A0616A"/>
<path d="M314.995 151.246C314.666 151.246 314.338 151.214 314.015 151.149C313.234 151 312.502 150.659 311.883 150.158C311.264 149.656 310.777 149.009 310.465 148.274L304.749 141.261C304.628 141.112 304.54 140.94 304.491 140.754C304.442 140.569 304.433 140.376 304.464 140.186C304.495 139.997 304.566 139.817 304.672 139.658C304.778 139.498 304.917 139.364 305.079 139.263L309.146 136.73C309.296 136.636 309.463 136.574 309.637 136.545C309.811 136.517 309.99 136.524 310.161 136.565C310.333 136.607 310.495 136.682 310.638 136.787C310.78 136.892 310.901 137.024 310.993 137.175L315.021 143.854L322.735 138.117C323.35 137.793 324.059 137.702 324.735 137.861C325.41 138.02 326.006 138.418 326.414 138.982C326.821 139.547 327.014 140.24 326.955 140.936C326.897 141.631 326.592 142.282 326.096 142.77L318.396 149.838C317.492 150.741 316.269 151.247 314.995 151.246Z" fill="#2F2E41"/>
<path d="M335.841 161.794C335.83 161.794 335.82 161.794 335.809 161.794C335.622 161.789 335.437 161.745 335.268 161.664C335.098 161.583 334.948 161.467 334.825 161.324L331.21 157.08C331.087 156.935 330.996 156.766 330.942 156.583C330.889 156.401 330.875 156.209 330.901 156.02C330.927 155.832 330.992 155.651 331.092 155.489C331.193 155.328 331.326 155.19 331.484 155.084L338.253 150.543L332.12 143.123C331.764 142.525 331.633 141.817 331.752 141.13C331.871 140.442 332.232 139.82 332.768 139.378C333.305 138.936 333.982 138.704 334.675 138.722C335.368 138.741 336.032 139.01 336.544 139.48L343.998 146.81C344.585 147.35 345.032 148.024 345.303 148.776C345.574 149.528 345.659 150.334 345.551 151.127C345.444 151.919 345.147 152.673 344.686 153.324C344.226 153.976 343.615 154.505 342.906 154.866L336.814 161.371C336.689 161.505 336.538 161.611 336.371 161.684C336.203 161.756 336.023 161.794 335.841 161.794Z" fill="#2F2E41"/>
<path d="M327.537 146.155C327.479 146.155 327.421 146.151 327.363 146.144C327.111 146.113 326.874 146.01 326.678 145.848C326.483 145.685 326.338 145.469 326.261 145.226L323.544 136.845C323.476 136.633 323.486 136.403 323.573 136.199C323.66 135.994 323.818 135.828 324.018 135.731L324.106 135.689C324.186 135.651 324.265 135.613 324.346 135.577C325.612 134.986 326.991 134.677 328.388 134.673C330.201 134.676 331.973 135.212 333.487 136.215C333.69 136.351 333.832 136.562 333.882 136.802C333.933 137.042 333.887 137.292 333.755 137.499L328.659 145.533C328.54 145.724 328.374 145.881 328.178 145.99C327.981 146.099 327.761 146.155 327.537 146.155V146.155Z" fill="#E6E6E6"/>
<path d="M337.775 119.658C339.387 119.658 340.693 118.343 340.693 116.722C340.693 115.101 339.387 113.787 337.775 113.787C336.164 113.787 334.858 115.101 334.858 116.722C334.858 118.343 336.164 119.658 337.775 119.658Z" fill="#2F2E41"/>
<path d="M327.776 113.496C325.727 113.496 323.761 114.315 322.312 115.773C320.864 117.231 320.05 119.208 320.05 121.27V124.56H324.07L325.993 121.27L326.57 124.56H338.77L335.502 121.27C335.502 119.208 334.688 117.231 333.239 115.773C331.79 114.315 329.825 113.496 327.776 113.496V113.496Z" fill="#2F2E41"/>
<path d="M339.275 114.712C339.597 113.697 340.265 112.828 341.161 112.26C342.057 111.691 343.123 111.459 344.172 111.603C346.031 111.916 347.501 113.419 348.377 115.099C349.252 116.778 349.657 118.658 350.246 120.46C350.834 122.262 351.669 124.073 353.156 125.24C354.642 126.406 356.923 126.722 358.382 125.522C358.216 126.773 357.662 127.939 356.801 128.856C355.94 129.772 354.814 130.393 353.582 130.631C352.351 130.868 351.077 130.71 349.94 130.179C348.803 129.647 347.86 128.77 347.246 127.67C346.476 126.291 346.277 124.675 346.048 123.109C345.82 121.544 345.523 119.925 344.604 118.642C343.684 117.359 341.963 116.521 340.502 117.105L339.275 114.712Z" fill="#2F2E41"/>
<path d="M244.423 119.19C241.763 119.19 239.213 118.126 237.332 116.234C235.452 114.342 234.396 111.775 234.395 109.099C234.395 107.274 234.397 105.878 234.399 105.68C234.484 99.4281 236.048 93.2868 238.963 87.7654C234.174 94.3628 231.541 102.295 231.428 110.464C231.425 110.663 231.424 112.058 231.424 113.883C231.424 116.56 232.48 119.126 234.361 121.018C236.241 122.911 238.792 123.974 241.451 123.974C243.636 123.974 245.762 123.255 247.504 121.928C249.247 120.601 250.511 118.737 251.105 116.621C249.269 118.278 246.889 119.193 244.423 119.19Z" fill="#3F3D56"/>
<path d="M271.406 92.5976C274.481 92.7454 277.473 93.6418 280.128 95.2099C282.782 96.778 285.019 98.9709 286.645 101.6C288.272 104.23 289.24 107.217 289.466 110.306C289.693 113.395 289.171 116.493 287.946 119.335C289.718 117.24 291.021 114.785 291.765 112.138C292.509 109.49 292.678 106.712 292.258 103.994C291.839 101.275 290.842 98.6791 289.336 96.3831C287.829 94.0872 285.848 92.1452 283.528 90.6894C281.208 89.2337 278.604 88.2984 275.892 87.9475C273.18 87.5965 270.425 87.8381 267.815 88.6557C265.204 89.4734 262.799 90.8478 260.765 92.6855C258.73 94.5231 257.113 96.7806 256.023 99.3041C257.906 97.0756 260.272 95.3119 262.939 94.1491C265.606 92.9863 268.503 92.4555 271.406 92.5976V92.5976Z" fill="#3F3D56"/>
<path d="M274.491 181.986C271.778 181.986 269.174 180.914 267.24 178.999C265.306 177.085 264.197 174.482 264.153 171.752C264.027 163.841 263.962 154.094 263.962 152.98C263.961 150.27 264.348 147.574 265.113 144.976L265.11 144.975C265.562 143.671 266.107 142.401 266.742 141.177C264.792 143.792 263.241 146.684 262.138 149.759L262.142 149.76C261.377 152.358 260.989 155.055 260.991 157.765C260.991 158.879 261.056 168.626 261.182 176.537C261.226 179.266 262.334 181.869 264.268 183.784C266.202 185.698 268.807 186.771 271.52 186.77V186.77C273.757 186.77 275.933 186.04 277.723 184.689C279.512 183.339 280.818 181.441 281.445 179.28C279.544 181.024 277.064 181.989 274.491 181.986V181.986Z" fill="#3F3D56"/>
<path d="M181.602 225.209L185.245 225.209L186.979 211.069L181.602 211.069L181.602 225.209Z" fill="#FFB8B8"/>
<path d="M192.271 228.613L180.822 228.614L180.821 224.162L187.847 224.162C189.021 224.162 190.146 224.631 190.975 225.465C191.805 226.3 192.271 227.432 192.271 228.613V228.613L192.271 228.613Z" fill="#2F2E41"/>
<path d="M168.528 225.209L172.17 225.209L173.904 211.069L168.527 211.069L168.528 225.209Z" fill="#FFB8B8"/>
<path d="M179.197 228.613L167.747 228.614L167.747 224.162L174.773 224.162C175.946 224.162 177.071 224.631 177.901 225.465C178.73 226.3 179.196 227.432 179.197 228.613V228.613L179.197 228.613Z" fill="#2F2E41"/>
<path d="M171.711 220.86L168.153 220.672C167.969 220.662 167.789 220.616 167.624 220.536C167.458 220.456 167.31 220.343 167.188 220.205C167.066 220.067 166.972 219.906 166.912 219.731C166.853 219.556 166.828 219.371 166.84 219.187L171.093 171.801L190.679 177.119L192.566 176.601L186.665 218.55C186.614 218.866 186.459 219.155 186.223 219.369C185.988 219.584 185.687 219.711 185.37 219.73L181.534 219.91C181.342 219.921 181.15 219.891 180.97 219.823C180.79 219.756 180.626 219.651 180.488 219.516C180.351 219.382 180.242 219.22 180.17 219.04C180.097 218.861 180.063 218.669 180.068 218.476L180.763 193.299C180.766 193.182 180.726 193.069 180.651 192.981C180.575 192.893 180.469 192.836 180.354 192.823C180.239 192.809 180.123 192.84 180.029 192.908C179.936 192.976 179.87 193.077 179.847 193.191L173.144 219.749C173.081 220.064 172.911 220.347 172.663 220.55C172.416 220.753 172.106 220.864 171.786 220.863C171.761 220.863 171.736 220.862 171.711 220.86Z" fill="#2F2E41"/>
<path d="M182.256 133.029C186.287 133.029 189.555 129.741 189.555 125.685C189.555 121.629 186.287 118.34 182.256 118.34C178.226 118.34 174.958 121.629 174.958 125.685C174.958 129.741 178.226 133.029 182.256 133.029Z" fill="#FFB8B8"/>
<path d="M170.105 147.263L170.908 164.686L171.198 171.025C171.209 171.301 171.302 171.567 171.465 171.79C171.628 172.012 171.853 172.181 172.111 172.274L190.932 179.134C191.084 179.191 191.245 179.22 191.407 179.218C191.593 179.219 191.776 179.182 191.947 179.11C192.118 179.038 192.273 178.932 192.402 178.799C192.532 178.665 192.633 178.506 192.7 178.333C192.767 178.159 192.799 177.973 192.793 177.786L192.021 146.458C191.971 143.888 191.031 141.416 189.363 139.468C187.695 137.521 185.404 136.22 182.886 135.79C182.704 135.762 182.519 135.734 182.333 135.709C180.771 135.514 179.186 135.665 177.689 136.153C176.192 136.641 174.819 137.453 173.667 138.532C172.474 139.636 171.537 140.99 170.921 142.499C170.306 144.007 170.027 145.634 170.105 147.263L170.105 147.263Z" fill="#CCCCCC"/>
<path d="M199.922 175.658C199.477 175.519 199.07 175.277 198.735 174.952C198.399 174.626 198.143 174.227 197.988 173.784C197.833 173.342 197.783 172.869 197.842 172.404C197.901 171.939 198.067 171.494 198.327 171.104L191.945 162.564L197.452 162.221L202.669 170.384C203.227 170.818 203.616 171.437 203.766 172.131C203.917 172.825 203.82 173.55 203.492 174.179C203.164 174.808 202.627 175.301 201.974 175.572C201.322 175.842 200.595 175.872 199.922 175.658H199.922Z" fill="#FFB8B8"/>
<path d="M195.435 169.559C195.266 169.49 195.112 169.388 194.982 169.259C194.853 169.129 194.75 168.975 194.68 168.806L185.064 145.753C184.876 145.301 184.777 144.817 184.775 144.327C184.772 143.837 184.865 143.352 185.049 142.899C185.233 142.445 185.504 142.033 185.847 141.685C186.189 141.337 186.596 141.06 187.045 140.871C187.494 140.681 187.975 140.583 188.462 140.581C188.948 140.578 189.43 140.673 189.881 140.858C190.331 141.044 190.741 141.317 191.086 141.661C191.432 142.006 191.706 142.416 191.894 142.868L201.51 165.921C201.652 166.263 201.653 166.648 201.514 166.991C201.375 167.334 201.106 167.607 200.767 167.751L196.498 169.554C196.33 169.625 196.149 169.663 195.967 169.664C195.784 169.665 195.604 169.629 195.435 169.559L195.435 169.559Z" fill="#CCCCCC"/>
<path d="M179.91 168.746L189.145 150.951C189.323 150.609 189.629 150.352 189.995 150.236C190.362 150.12 190.758 150.156 191.099 150.334L204.504 157.379C204.844 157.558 205.1 157.866 205.215 158.235C205.33 158.603 205.295 159.003 205.117 159.345L195.882 177.14C195.704 177.482 195.398 177.739 195.032 177.855C194.665 177.971 194.269 177.936 193.928 177.757L180.523 170.712C180.183 170.533 179.927 170.225 179.812 169.857C179.697 169.488 179.732 169.088 179.91 168.746Z" fill="#3F3D56"/>
<path d="M186.103 160.616C185.939 160.177 185.675 159.783 185.333 159.465C184.99 159.146 184.579 158.913 184.131 158.784C183.683 158.654 183.211 158.632 182.753 158.718C182.295 158.805 181.863 158.998 181.493 159.282L172.644 153.375L172.629 158.928L181.034 163.686C181.498 164.221 182.134 164.575 182.832 164.686C183.529 164.796 184.243 164.656 184.848 164.289C185.452 163.923 185.91 163.354 186.139 162.682C186.369 162.011 186.356 161.279 186.103 160.616V160.616Z" fill="#FFB8B8"/>
<path d="M174.916 161.865L167.684 156.1C166.901 155.836 166.194 155.384 165.624 154.784C165.053 154.185 164.635 153.454 164.407 152.657C164.178 151.859 164.145 151.017 164.311 150.203C164.477 149.39 164.837 148.629 165.359 147.986L171.925 139.326C172.382 138.765 173.023 138.388 173.733 138.264C174.443 138.14 175.174 138.277 175.791 138.65C176.409 139.023 176.873 139.607 177.097 140.296C177.322 140.985 177.293 141.732 177.015 142.401L171.82 150.954L179.455 154.598C179.633 154.683 179.79 154.804 179.918 154.955C180.045 155.105 180.139 155.282 180.194 155.471C180.249 155.661 180.263 155.861 180.235 156.057C180.208 156.252 180.139 156.44 180.034 156.607L176.952 161.516C176.848 161.681 176.71 161.823 176.548 161.932C176.386 162.04 176.203 162.114 176.011 162.147C176.003 162.148 175.996 162.149 175.988 162.15C175.799 162.179 175.607 162.169 175.422 162.119C175.238 162.07 175.065 161.984 174.916 161.865V161.865Z" fill="#CCCCCC"/>
<path d="M176.742 130.603C176.71 130.511 176.7 130.413 176.712 130.316C176.725 130.219 176.759 130.127 176.812 130.045C176.865 129.964 176.936 129.896 177.02 129.847C177.103 129.797 177.197 129.767 177.293 129.76C177.491 129.771 177.684 129.822 177.862 129.91C178.039 129.998 178.197 130.122 178.326 130.273C178.59 130.579 178.898 130.845 179.239 131.061C179.592 131.24 180.071 131.215 180.272 130.873C180.461 130.553 180.331 130.124 180.217 129.751C179.926 128.804 179.763 127.821 179.733 126.83C179.7 125.723 179.855 124.568 180.464 123.705C181.249 122.592 182.654 122.169 183.983 122.199C185.313 122.23 186.621 122.643 187.938 122.904C188.392 122.994 188.927 123.04 189.231 122.686C189.554 122.309 189.435 121.698 189.298 121.189C188.941 119.868 188.562 118.503 187.733 117.436C186.837 116.327 185.556 115.602 184.149 115.405C182.799 115.237 181.428 115.394 180.149 115.863C178.066 116.523 176.232 117.808 174.894 119.546C173.515 121.394 172.919 123.716 173.237 126.005C173.547 127.999 174.597 129.8 176.174 131.045L176.742 130.603Z" fill="#2F2E41"/>
<path d="M269.179 225.268C267.237 224.417 265.519 223.123 264.159 221.489C262.799 219.855 261.835 217.926 261.343 215.853C260.851 213.78 260.845 211.62 261.324 209.544C261.804 207.468 262.756 205.533 264.107 203.891C262.541 205.041 261.237 206.513 260.28 208.209C259.323 209.905 258.736 211.787 258.557 213.729C258.378 215.671 258.611 217.63 259.242 219.474C259.873 221.318 260.886 223.007 262.214 224.427C263.543 225.847 265.157 226.967 266.948 227.712C268.74 228.456 270.668 228.809 272.605 228.746C274.543 228.684 276.445 228.207 278.185 227.348C279.925 226.49 281.464 225.268 282.699 223.765C280.773 225.182 278.51 226.067 276.138 226.33C273.766 226.594 271.367 226.228 269.179 225.268V225.268Z" fill="#3F3D56"/>
</g>
</g>
<defs>
<filter id="filter0_d_787_7799" x="60.8779" y="98.7583" width="94.5942" height="37.6851" filterUnits="userSpaceOnUse" color-interpolation-filters="sRGB">
<feFlood flood-opacity="0" result="BackgroundImageFix"/>
<feColorMatrix in="SourceAlpha" type="matrix" values="0 0 0 0 0 0 0 0 0 0 0 0 0 0 0 0 0 0 127 0" result="hardAlpha"/>
<feOffset dy="4"/>
<feGaussianBlur stdDeviation="2"/>
<feComposite in2="hardAlpha" operator="out"/>
<feColorMatrix type="matrix" values="0 0 0 0 0 0 0 0 0 0 0 0 0 0 0 0 0 0 0.25 0"/>
<feBlend mode="normal" in2="BackgroundImageFix" result="effect1_dropShadow_787_7799"/>
<feBlend mode="normal" in="SourceGraphic" in2="effect1_dropShadow_787_7799" result="shape"/>
</filter>
<clipPath id="clip0_787_7799">
<rect width="414" height="260" fill="white"/>
</clipPath>
<clipPath id="clip1_787_7799">
<rect width="251" height="178" fill="white" transform="translate(144 51)"/>
</clipPath>
</defs>
</svg>
