<svg width="26" height="17" viewBox="0 0 26 17" fill="none" xmlns="http://www.w3.org/2000/svg">
<path d="M0.959473 0V16.875H5.64697H11.602H25.3345V0H0.959473ZM2.83447 1.875H23.4595V15H10.942H10.9595H7.52197H2.83447V1.875ZM7.52197 6.5625C7.02469 6.5625 6.54778 6.76004 6.19615 7.11168C5.84452 7.46331 5.64697 7.94022 5.64697 8.4375C5.64697 8.93478 5.84452 9.41169 6.19615 9.76332C6.54778 10.115 7.02469 10.3125 7.52197 10.3125C8.01925 10.3125 8.49617 10.115 8.8478 9.76332C9.19943 9.41169 9.39697 8.93478 9.39697 8.4375C9.39697 7.94022 9.19943 7.46331 8.8478 7.11168C8.49617 6.76004 8.01925 6.5625 7.52197 6.5625ZM13.147 6.5625C12.6497 6.5625 12.1728 6.76004 11.8211 7.11168C11.4695 7.46331 11.272 7.94022 11.272 8.4375C11.272 8.93478 11.4695 9.41169 11.8211 9.76332C12.1728 10.115 12.6497 10.3125 13.147 10.3125C13.6443 10.3125 14.1212 10.115 14.4728 9.76332C14.8244 9.41169 15.022 8.93478 15.022 8.4375C15.022 7.94022 14.8244 7.46331 14.4728 7.11168C14.1212 6.76004 13.6443 6.5625 13.147 6.5625ZM18.772 6.5625C18.2747 6.5625 17.7978 6.76004 17.4461 7.11168C17.0945 7.46331 16.897 7.94022 16.897 8.4375C16.897 8.93478 17.0945 9.41169 17.4461 9.76332C17.7978 10.115 18.2747 10.3125 18.772 10.3125C19.2693 10.3125 19.7462 10.115 20.0978 9.76332C20.4494 9.41169 20.647 8.93478 20.647 8.4375C20.647 7.94022 20.4494 7.46331 20.0978 7.11168C19.7462 6.76004 19.2693 6.5625 18.772 6.5625Z" fill="black" fill-opacity="0.6"/>
<path d="M2.83447 1.375H2.33447V1.875V15V15.5H2.83447H7.52197H10.942H10.9595H23.4595H23.9595V15V1.875V1.375H23.4595H2.83447ZM5.64697 16.375H1.45947V0.5H24.8345V16.375H11.602H5.64697ZM6.5497 7.46523C6.80756 7.20737 7.1573 7.0625 7.52197 7.0625C7.88664 7.0625 8.23638 7.20737 8.49424 7.46523C8.75211 7.72309 8.89697 8.07283 8.89697 8.4375C8.89697 8.80217 8.75211 9.15191 8.49424 9.40977C8.23638 9.66763 7.88664 9.8125 7.52197 9.8125C7.1573 9.8125 6.80756 9.66763 6.5497 9.40977C6.29184 9.15191 6.14697 8.80217 6.14697 8.4375C6.14697 8.07283 6.29184 7.72309 6.5497 7.46523ZM12.1747 7.46523C12.4326 7.20737 12.7823 7.0625 13.147 7.0625C13.5116 7.0625 13.8614 7.20737 14.1192 7.46523C14.3771 7.72309 14.522 8.07283 14.522 8.4375C14.522 8.80217 14.3771 9.15191 14.1192 9.40977C13.8614 9.66763 13.5116 9.8125 13.147 9.8125C12.7823 9.8125 12.4326 9.66763 12.1747 9.40977C11.9168 9.15191 11.772 8.80217 11.772 8.4375C11.772 8.07283 11.9168 7.72309 12.1747 7.46523ZM17.7997 7.46523C18.0576 7.20737 18.4073 7.0625 18.772 7.0625C19.1366 7.0625 19.4864 7.20737 19.7442 7.46523C20.0021 7.72309 20.147 8.07283 20.147 8.4375C20.147 8.80217 20.0021 9.15191 19.7442 9.40977C19.4864 9.66763 19.1366 9.8125 18.772 9.8125C18.4073 9.8125 18.0576 9.66763 17.7997 9.40977C17.5418 9.15191 17.397 8.80217 17.397 8.4375C17.397 8.07283 17.5418 7.72309 17.7997 7.46523Z" stroke="black" stroke-opacity="0.3"/>
</svg>
