<svg width="29" height="26" viewBox="0 0 29 26" fill="none" xmlns="http://www.w3.org/2000/svg">
<g filter="url(#filter0_d_912_342)">
<path fill-rule="evenodd" clip-rule="evenodd" d="M4.76418 0C4.56772 0 4.37931 0.105357 4.2404 0.292893C4.10148 0.48043 4.02344 0.734783 4.02344 1V3C4.02344 3.26522 4.10148 3.51957 4.2404 3.70711C4.37931 3.89464 4.56772 4 4.76418 4H6.24566C6.44212 4 6.63053 3.89464 6.76944 3.70711C6.90836 3.51957 6.9864 3.26522 6.9864 3V1C6.9864 0.734783 6.90836 0.48043 6.76944 0.292893C6.63053 0.105357 6.44212 0 6.24566 0H4.76418ZM6.24566 1H4.76418V3H6.24566V1Z" fill="#FFC700"/>
<path d="M9.2085 2C9.2085 1.73478 9.28654 1.48043 9.42545 1.29289C9.56437 1.10536 9.75278 1 9.94924 1H23.2826C23.479 1 23.6674 1.10536 23.8064 1.29289C23.9453 1.48043 24.0233 1.73478 24.0233 2C24.0233 2.26522 23.9453 2.51957 23.8064 2.70711C23.6674 2.89464 23.479 3 23.2826 3H9.94924C9.75278 3 9.56437 2.89464 9.42545 2.70711C9.28654 2.51957 9.2085 2.26522 9.2085 2ZM9.94924 9C9.75278 9 9.56437 9.10535 9.42545 9.29289C9.28654 9.48042 9.2085 9.73478 9.2085 10C9.2085 10.2652 9.28654 10.5196 9.42545 10.7071C9.56437 10.8946 9.75278 11 9.94924 11H23.2826C23.479 11 23.6674 10.8946 23.8064 10.7071C23.9453 10.5196 24.0233 10.2652 24.0233 10C24.0233 9.73478 23.9453 9.48042 23.8064 9.29289C23.6674 9.10535 23.479 9 23.2826 9H9.94924ZM9.94924 17C9.75278 17 9.56437 17.1053 9.42545 17.2929C9.28654 17.4804 9.2085 17.7348 9.2085 18C9.2085 18.2652 9.28654 18.5196 9.42545 18.7071C9.56437 18.8946 9.75278 19 9.94924 19H23.2826C23.479 19 23.6674 18.8946 23.8064 18.7071C23.9453 18.5196 24.0233 18.2652 24.0233 18C24.0233 17.7348 23.9453 17.4804 23.8064 17.2929C23.6674 17.1053 23.479 17 23.2826 17H9.94924Z" fill="#FFC700"/>
<path fill-rule="evenodd" clip-rule="evenodd" d="M4.02344 9C4.02344 8.73478 4.10148 8.48043 4.2404 8.29289C4.37931 8.10536 4.56772 8 4.76418 8H6.24566C6.44212 8 6.63053 8.10536 6.76944 8.29289C6.90836 8.48043 6.9864 8.73478 6.9864 9V11C6.9864 11.2652 6.90836 11.5196 6.76944 11.7071C6.63053 11.8946 6.44212 12 6.24566 12H4.76418C4.56772 12 4.37931 11.8946 4.2404 11.7071C4.10148 11.5196 4.02344 11.2652 4.02344 11V9ZM4.76418 9H6.24566V11H4.76418V9ZM4.76418 16C4.56772 16 4.37931 16.1054 4.2404 16.2929C4.10148 16.4804 4.02344 16.7348 4.02344 17V19C4.02344 19.2652 4.10148 19.5196 4.2404 19.7071C4.37931 19.8946 4.56772 20 4.76418 20H6.24566C6.44212 20 6.63053 19.8946 6.76944 19.7071C6.90836 19.5196 6.9864 19.2652 6.9864 19V17C6.9864 16.7348 6.90836 16.4804 6.76944 16.2929C6.63053 16.1054 6.44212 16 6.24566 16H4.76418ZM6.24566 17H4.76418V19H6.24566V17Z" fill="#FFC700"/>
</g>
<defs>
<filter id="filter0_d_912_342" x="0.0234375" y="0" width="28" height="28" filterUnits="userSpaceOnUse" color-interpolation-filters="sRGB">
<feFlood flood-opacity="0" result="BackgroundImageFix"/>
<feColorMatrix in="SourceAlpha" type="matrix" values="0 0 0 0 0 0 0 0 0 0 0 0 0 0 0 0 0 0 127 0" result="hardAlpha"/>
<feOffset dy="4"/>
<feGaussianBlur stdDeviation="2"/>
<feComposite in2="hardAlpha" operator="out"/>
<feColorMatrix type="matrix" values="0 0 0 0 0 0 0 0 0 0 0 0 0 0 0 0 0 0 0.5 0"/>
<feBlend mode="normal" in2="BackgroundImageFix" result="effect1_dropShadow_912_342"/>
<feBlend mode="normal" in="SourceGraphic" in2="effect1_dropShadow_912_342" result="shape"/>
</filter>
</defs>
</svg>
