<svg width="28" height="38" viewBox="0 0 28 38" fill="none" xmlns="http://www.w3.org/2000/svg">
<path d="M10.5714 35.8404H17.4286M2 13.8441C2 10.7029 3.26428 7.69028 5.51472 5.46907C7.76516 3.24786 10.8174 2 14 2C17.1826 2 20.2348 3.24786 22.4853 5.46907C24.7357 7.69028 26 10.7029 26 13.8441C26.0011 15.7512 25.5338 17.6301 24.6381 19.3198C23.7424 21.0095 22.4451 22.4597 20.8571 23.5462L19.928 27.8879C19.805 28.6882 19.3954 29.4185 18.7736 29.9462C18.1518 30.4739 17.3589 30.7642 16.5389 30.7644H11.4611C10.6411 30.7642 9.84819 30.4739 9.22638 29.9462C8.60457 29.4185 8.19501 28.6882 8.072 27.8879L7.14286 23.5648C5.55441 22.4745 4.25698 21.0209 3.36141 19.3281C2.46583 17.6354 1.99873 15.7538 2 13.8441Z" stroke="#FFFBF7" stroke-width="3.5" stroke-linecap="round" stroke-linejoin="round"/>
</svg>
