<svg width="294" height="134" viewBox="0 0 294 134" fill="none" xmlns="http://www.w3.org/2000/svg">
<g clip-path="url(#clip0_755_7349)">
<path d="M176.128 106.722C176.211 106.731 176.295 106.71 176.367 106.664C176.44 106.617 176.498 106.547 176.534 106.462C176.569 106.377 176.581 106.282 176.567 106.189C176.553 106.097 176.514 106.011 176.456 105.944C176.447 105.898 176.441 105.864 176.433 105.818C176.437 105.808 176.441 105.799 176.445 105.789C176.538 105.57 176.687 105.387 176.872 105.263C177.057 105.139 177.271 105.08 177.486 105.092C177.701 105.104 177.909 105.187 178.082 105.332C178.255 105.476 178.387 105.675 178.46 105.903C178.752 106.813 179.135 107.73 179.199 108.679C179.227 109.099 179.191 109.521 179.091 109.927C179.943 108.068 180.431 106.024 180.52 103.934C180.542 103.409 180.538 102.884 180.507 102.36C180.482 101.93 180.44 101.503 180.382 101.078C180.061 98.7707 179.259 96.582 178.041 94.6914C177.431 94.2742 176.949 93.6566 176.661 92.9218C176.556 92.6577 176.486 92.3778 176.452 92.0911C176.523 92.1052 176.594 92.1155 176.665 92.1244C176.686 92.1268 176.71 92.1293 176.732 92.1318L176.74 92.1326C176.817 92.1406 176.895 92.1233 176.964 92.0826C177.033 92.042 177.09 91.9798 177.128 91.9035C177.166 91.8273 177.184 91.7403 177.179 91.6529C177.175 91.5656 177.148 91.4816 177.101 91.4112C177.073 91.3674 177.044 91.3236 177.015 91.2798C176.971 91.2122 176.927 91.1459 176.883 91.0783C176.878 91.0719 176.873 91.0651 176.869 91.058C176.819 90.9809 176.768 90.9052 176.718 90.8282C176.822 90.6635 176.959 90.5281 177.117 90.4326C177.666 90.1088 178.392 90.391 178.755 90.9544C179.119 91.5179 179.161 92.2838 178.998 92.9555C178.842 93.5261 178.601 94.0627 178.285 94.5422C178.312 94.5855 178.341 94.6274 178.368 94.6706C178.865 95.4639 179.293 96.3101 179.643 97.1971C179.589 96.2211 179.742 95.2448 180.089 94.3482C180.438 93.514 181.055 92.8284 181.602 92.1202C182.26 91.2695 183.518 91.7217 183.581 92.8471C183.582 92.858 183.583 92.8689 183.583 92.8798C183.504 92.9245 183.427 92.9723 183.351 93.0232C183.256 93.0879 183.18 93.1834 183.134 93.2973C183.088 93.4112 183.073 93.5382 183.092 93.6616C183.111 93.785 183.163 93.899 183.24 93.9888C183.318 94.0786 183.418 94.1399 183.527 94.1647L183.538 94.1673C183.498 94.4774 183.437 94.7836 183.355 95.0833C183.12 95.9196 182.734 96.6922 182.222 97.3528C181.709 98.0134 181.08 98.5477 180.376 98.9222C180.329 98.9459 180.284 98.9696 180.238 98.992C180.575 100.251 180.766 101.554 180.804 102.868C180.825 103.643 180.789 104.419 180.699 105.187L180.703 105.16C180.887 104.31 181.326 103.557 181.946 103.028C182.867 102.255 184.131 102.019 185.115 101.41C185.22 101.342 185.34 101.309 185.46 101.315C185.581 101.321 185.698 101.366 185.797 101.444C185.896 101.523 185.973 101.631 186.019 101.757C186.065 101.883 186.078 102.021 186.056 102.154C186.055 102.164 186.053 102.174 186.051 102.183C185.906 102.241 185.764 102.309 185.626 102.387C185.547 102.431 185.47 102.479 185.394 102.53C185.299 102.595 185.223 102.69 185.177 102.804C185.131 102.918 185.116 103.045 185.135 103.168C185.154 103.292 185.206 103.406 185.283 103.496C185.361 103.585 185.461 103.647 185.57 103.672L185.581 103.674C185.589 103.676 185.596 103.678 185.604 103.679C185.333 104.321 184.967 104.905 184.52 105.407C183.968 106.014 183.312 106.487 182.592 106.799C181.872 107.11 181.104 107.253 180.333 107.218L180.332 107.218C180.08 108.23 179.736 109.209 179.305 110.141L176.075 109.971C176.065 109.93 176.056 109.888 176.047 109.847C176.345 109.884 176.646 109.88 176.944 109.834C176.718 109.491 176.492 109.145 176.266 108.801C176.261 108.795 176.256 108.788 176.252 108.781C176.137 108.605 176.021 108.431 175.907 108.255L175.907 108.255C175.922 107.735 175.996 107.22 176.128 106.722L176.128 106.722Z" fill="#F2F2F2"/>
<path d="M111.046 75.2933C110.964 75.3077 110.879 75.2933 110.804 75.2519C110.729 75.2105 110.667 75.1442 110.627 75.062C110.587 74.9797 110.57 74.8855 110.579 74.7921C110.587 74.6986 110.622 74.6105 110.676 74.5397C110.682 74.4928 110.686 74.4591 110.692 74.4122C110.687 74.4027 110.683 74.3932 110.678 74.3837C110.573 74.172 110.415 73.9998 110.223 73.8889C110.032 73.778 109.815 73.7333 109.601 73.7604C109.387 73.7875 109.184 73.8853 109.019 74.0413C108.855 74.1974 108.734 74.4048 108.674 74.6376C108.432 75.5666 108.1 76.5081 108.088 77.4605C108.083 77.8814 108.143 78.3002 108.265 78.6982C107.312 76.9016 106.713 74.8954 106.509 72.8157C106.459 72.2938 106.434 71.769 106.436 71.244C106.437 70.8135 106.456 70.3841 106.491 69.9556C106.684 67.6306 107.364 65.3902 108.476 63.4185C109.062 62.9598 109.509 62.3099 109.757 61.5564C109.847 61.2855 109.901 61.0013 109.919 60.7128C109.85 60.7317 109.779 60.747 109.709 60.7607C109.687 60.7647 109.664 60.7688 109.643 60.7728L109.634 60.7742C109.557 60.7876 109.479 60.7757 109.408 60.7399C109.337 60.7041 109.277 60.646 109.234 60.5726C109.192 60.4991 109.169 60.4135 109.169 60.326C109.169 60.2385 109.192 60.1528 109.234 60.0793C109.26 60.0335 109.286 59.9878 109.313 59.9421C109.353 59.8717 109.394 59.8024 109.434 59.7319C109.438 59.7251 109.443 59.718 109.447 59.7106C109.492 59.6302 109.538 59.5511 109.584 59.4707C109.471 59.3136 109.327 59.188 109.164 59.1037C108.599 58.8187 107.89 59.1508 107.558 59.7384C107.226 60.3261 107.227 61.0934 107.425 61.7525C107.612 62.3112 107.883 62.83 108.224 63.2867C108.199 63.3317 108.173 63.3755 108.149 63.4206C107.696 64.2469 107.316 65.1212 107.015 66.0308C107.015 65.053 106.808 64.0891 106.413 63.2185C106.019 62.4101 105.366 61.7687 104.78 61.0998C104.077 60.2965 102.846 60.8353 102.845 61.9629C102.845 61.9739 102.845 61.9848 102.845 61.9957C102.926 62.0349 103.006 62.0772 103.085 62.1227C103.183 62.1806 103.264 62.2707 103.317 62.3812C103.369 62.4917 103.39 62.6174 103.378 62.7419C103.366 62.8664 103.321 62.9838 103.248 63.0788C103.176 63.1738 103.079 63.2419 102.972 63.2743L102.961 63.2776C103.018 63.5843 103.096 63.8857 103.194 64.1792C103.474 64.9975 103.902 65.7418 104.45 66.3655C104.998 66.9892 105.654 67.4788 106.378 67.8036C106.426 67.824 106.472 67.8446 106.519 67.8637C106.252 69.1436 106.134 70.4572 106.167 71.7714C106.189 72.5465 106.267 73.3183 106.4 74.0793L106.394 74.0525C106.163 73.2164 105.684 72.4952 105.036 72.0108C104.075 71.3033 102.8 71.1556 101.785 70.6166C101.676 70.5559 101.555 70.5313 101.435 70.5457C101.314 70.56 101.2 70.6128 101.106 70.6978C101.011 70.7827 100.941 70.8963 100.902 71.0251C100.863 71.1538 100.857 71.2925 100.886 71.4246C100.888 71.434 100.89 71.4434 100.893 71.4528C101.041 71.5005 101.186 71.5584 101.328 71.6265C101.409 71.6656 101.489 71.708 101.567 71.7535C101.666 71.8114 101.747 71.9015 101.799 72.012C101.852 72.1225 101.873 72.2482 101.861 72.3727C101.849 72.4971 101.803 72.6146 101.731 72.7096C101.658 72.8046 101.562 72.8727 101.455 72.9051L101.444 72.9084C101.436 72.9106 101.429 72.9128 101.421 72.9151C101.726 73.5367 102.125 74.0946 102.598 74.5643C103.182 75.1315 103.863 75.5585 104.598 75.8193C105.334 76.08 106.109 76.1689 106.876 76.0805L106.878 76.0804C107.184 77.0726 107.581 78.0264 108.063 78.9262L111.278 78.5328C111.285 78.4912 111.292 78.4484 111.298 78.4069C111.003 78.4644 110.702 78.4809 110.403 78.4562C110.61 78.0977 110.816 77.7366 111.023 77.3781C111.027 77.3713 111.032 77.3642 111.036 77.3568C111.14 77.1735 111.246 76.9913 111.351 76.8079L111.351 76.8077C111.308 76.2903 111.205 75.7813 111.046 75.2934L111.046 75.2933Z" fill="#F2F2F2"/>
<path d="M155.458 73.9529C155.617 74.0021 155.765 74.0901 155.891 74.2104C156.016 74.3308 156.117 74.4807 156.185 74.6496C156.254 74.8185 156.289 75.0023 156.288 75.188C156.286 75.3736 156.249 75.5567 156.178 75.7243L157.903 77.8824L156.993 79.3818L154.595 76.2957C154.353 76.1428 154.169 75.8951 154.078 75.5997C153.987 75.3043 153.995 74.9816 154.102 74.6928C154.208 74.404 154.405 74.1692 154.655 74.0328C154.905 73.8964 155.191 73.868 155.458 73.9529Z" fill="#A0616A"/>
<path d="M171.608 79.2519C171.452 78.9671 171.248 78.7197 171.008 78.5237C170.767 78.3278 170.494 78.1873 170.205 78.1102C169.916 78.0331 169.616 78.021 169.323 78.0746C169.03 78.1281 168.749 78.2463 168.496 78.4223L162.823 82.376L156.703 76.5226L155.181 78.1177L161.941 87.9876L170.728 82.8333C170.523 82.9536 171.855 79.7058 171.608 79.2519Z" fill="#CCCCCC"/>
<path d="M160.369 92.3982C160.369 95.551 159.818 98.673 158.746 101.586C157.674 104.499 156.103 107.146 154.121 109.375C152.14 111.604 149.788 113.373 147.199 114.579C144.61 115.785 141.836 116.406 139.034 116.405C127.251 116.405 117.699 105.657 117.699 92.3982C117.697 89.8192 118.064 87.2568 118.787 84.8094C120.206 80.0296 122.924 75.8727 126.558 72.9265C130.191 69.9802 134.555 68.3938 139.034 68.3914C142.896 68.3898 146.687 69.5686 150 71.8017C153.314 74.0349 156.026 77.2386 157.848 81.071C158.299 82.0165 158.694 82.9955 159.027 84.0011C159.073 84.1412 159.118 84.2812 159.162 84.4226V84.4239C159.358 85.0454 159.53 85.6785 159.679 86.3231C160.139 88.3067 160.37 90.3483 160.369 92.3982Z" fill="#000080"/>
<path d="M136.7 76.2011C135.741 75.6177 134.676 75.2883 133.587 75.2382C132.498 75.188 131.413 75.4184 130.415 75.9118C129.537 76.342 128.612 77.1139 128.318 78.5078C129.504 77.7205 131.039 78.9644 131.344 80.9598L131.272 80.9819C131.111 82.364 131.471 83.8687 132.167 84.7257C132.259 83.8355 132.779 83.2297 133.291 82.8512C133.802 82.4728 134.368 82.1979 134.759 81.5474C135.222 80.7762 135.339 79.6491 135.523 78.6209C135.707 77.5927 136.056 76.4876 136.7 76.2011Z" fill="white"/>
<path d="M130.064 87.9623C129.735 88.5171 129.297 88.8652 128.903 89.2987C128.511 89.7335 128.138 90.3203 128.06 91.0738C128.01 91.5566 128.087 92.0474 128.076 92.5356C128.065 93.0237 127.921 93.5732 127.626 93.6946C127.16 93.884 126.804 92.9104 126.325 92.8424C125.945 92.789 125.602 93.4625 125.713 94.0467C125.823 94.6309 126.341 94.8896 126.638 94.5082C126.907 95.0163 126.718 95.9379 126.314 96.0939C126.271 96.414 126.228 96.7328 126.187 97.0529C125.165 96.2486 124.133 95.4311 123.264 94.2534C122.298 92.9547 121.698 91.3608 121.543 89.6761C121.43 88.3224 121.597 86.774 121.045 85.7323C120.603 84.8988 119.844 84.7147 119.162 84.7667C119.037 84.7761 118.912 84.7921 118.787 84.8094C119.19 83.4487 119.701 82.1318 120.315 80.875C120.454 80.8079 120.583 80.7175 120.698 80.6069C121.333 80 121.615 78.7717 122.131 77.9221C122.164 77.8674 122.198 77.8141 122.234 77.7621C122.761 76.9872 123.468 76.5884 124.15 76.2176C125.662 75.3921 127.217 74.5558 128.812 74.6705L128.358 74.7199C127.828 76.3897 127.298 78.0595 126.768 79.7293C126.687 79.9854 126.606 80.2419 126.523 80.4988C126.222 81.4484 125.912 82.4594 125.958 83.5224C125.985 84.1519 126.18 84.8241 126.549 85.0401C126.894 85.2402 127.271 84.9948 127.604 84.752C127.745 84.6507 127.885 84.5493 128.026 84.4466C128.532 84.0798 129.093 83.7037 129.628 83.9491C130.117 84.1732 130.479 84.9214 130.547 85.7283C130.61 86.5127 130.44 87.2984 130.064 87.9623Z" fill="white"/>
<path d="M133.074 99.3625C131.596 98.3384 130.118 97.3143 128.639 96.2902L128.665 96.2175C127.745 96.6114 127.364 98.4497 127.516 99.953C127.668 101.456 128.183 102.8 128.443 104.265C128.794 106.269 128.661 108.343 128.059 110.27C130.003 107.816 131.723 105.149 133.194 102.309C133.399 101.951 133.556 101.56 133.658 101.15C133.752 100.714 133.738 100.189 133.55 99.839C133.429 99.6381 133.265 99.4744 133.074 99.3625Z" fill="white"/>
<path d="M127.24 80.7312C127.083 81.1283 127.023 81.6578 127.165 82.0687C127.311 82.4883 127.618 82.6779 127.901 82.8358L128.718 83.2914C128.99 83.4429 129.283 83.596 129.56 83.4713C129.894 83.3209 130.125 82.7315 130.065 82.1844C130.002 81.6022 129.676 81.2017 129.374 80.8606C128.952 80.3834 128.53 79.9061 128.108 79.4288L127.87 79.7567C127.612 80.0391 127.399 80.3686 127.24 80.7312Z" fill="white"/>
<path d="M155.99 86.9554C156.358 87.0527 156.725 87.1501 157.093 87.2474C157.029 88.6439 156.414 89.9362 155.589 90.4043C155.245 90.5991 154.862 90.6711 154.578 91.0352C154.32 91.366 154.19 91.8808 154.07 92.3729C153.861 93.2318 153.651 94.0907 153.441 94.9496C153.216 95.8752 152.927 96.9035 152.341 97.237C151.838 97.5237 151.264 97.1729 150.877 96.5848C150.491 95.9966 150.255 95.2057 150.026 94.4348C150.04 95.2751 149.693 96.0993 149.201 96.3914C148.708 96.6835 148.108 96.4194 147.779 95.7672C147.542 95.2991 147.443 94.6816 147.211 94.2068C146.979 93.732 146.492 93.4599 146.238 93.9053C146.071 94.2014 146.092 94.6549 146.009 95.031C145.88 95.6152 145.489 95.9819 145.101 96.014C144.715 96.046 144.338 95.7952 144.014 95.4551C143.347 94.7509 142.855 93.6333 142.664 92.3916C142.58 91.8381 142.557 91.2353 142.702 90.7164C142.848 90.1976 143.2 89.7975 143.55 89.8962C143.78 89.3494 143.326 88.6238 142.917 88.6879C142.507 88.7519 142.186 89.2467 141.849 89.6268C141.514 90.0069 141.044 90.283 140.706 89.9055C140.709 90.2563 140.455 90.4884 140.236 90.459C140.018 90.431 139.823 90.2336 139.623 90.0936C138.849 89.5508 137.866 89.9109 137.316 90.9378C137.66 89.292 138.164 87.4035 139.22 87.0167C139.651 86.858 140.122 86.9887 140.53 86.7139C141.252 86.2272 141.397 84.388 140.774 83.6291C140.853 84.3466 140.838 85.1842 140.501 85.675C140.165 86.1658 139.458 85.8457 139.501 85.1202C139.404 85.6203 138.92 85.6963 138.697 85.3122C138.473 84.9281 138.492 84.2999 138.651 83.8411C138.81 83.3823 139.08 83.0529 139.342 82.7368C139.905 82.058 140.476 81.3711 141.128 80.9443C141.781 80.5175 142.535 80.3735 143.189 80.7976C143.534 81.0217 143.838 81.3951 144.19 81.5925C144.542 81.7912 144.989 81.7659 145.222 81.3017C145.484 80.7843 145.361 80.016 145.458 79.3692C145.632 78.2262 146.648 77.6914 147.211 78.4463C146.79 78.3249 146.355 78.885 146.303 79.5639C146.25 80.2428 146.555 80.9283 146.962 81.1337C147.647 81.4751 148.318 80.6162 148.836 79.8213C149.377 78.9891 149.918 78.1573 150.46 77.3259C150.547 77.1844 150.644 77.0514 150.75 76.9285C150.92 76.7423 151.146 76.6357 151.383 76.6302C151.621 76.6248 151.851 76.7209 152.027 76.8992C152.575 77.402 152.832 78.4329 153.281 79.1425C153.933 80.1734 154.908 80.4242 155.816 80.6242C156.493 80.7723 157.17 80.9212 157.848 81.071C158.299 82.0165 158.694 82.9955 159.027 84.0012C157.88 84.5493 156.821 85.575 155.99 86.9554Z" fill="white"/>
<path d="M158.179 103.003C157.671 104.163 157.08 105.275 156.412 106.328C155.986 106.122 155.527 106.489 155.128 106.833C154.71 107.193 154.209 107.544 153.781 107.216C153.344 106.88 153.203 105.939 153.341 105.194C153.48 104.45 153.826 103.857 154.162 103.295C154.517 102.697 154.898 102.077 155.392 101.845C155.887 101.613 156.524 101.941 156.668 102.733L157.019 102.72C156.823 102.416 156.926 101.786 157.19 101.676C157.495 101.546 157.759 102.017 157.939 102.433C158.02 102.621 158.101 102.811 158.179 103.003Z" fill="white"/>
<path d="M144.742 97.3691C143.987 97.4224 143.39 96.3778 142.993 95.3502C142.596 94.3225 142.234 93.1473 141.554 92.6242C141.165 92.3253 140.722 92.2843 140.3 92.1395C139.878 91.9946 139.437 91.695 139.235 91.0846L138.757 90.8672C138.125 91.2669 137.485 91.6739 136.941 92.3244C136.33 93.0542 135.95 93.9897 135.858 94.9866C135.767 96.0641 136.104 97.2654 136.735 97.6702C137.233 97.99 137.813 97.7884 138.318 98.0812C138.948 98.447 139.323 99.5096 139.464 100.559C139.606 101.608 139.57 102.698 139.671 103.759C139.773 104.82 140.052 105.924 140.63 106.468C141.354 107.149 142.416 106.583 142.74 105.345C142.9 104.737 142.894 104.051 143.013 103.421C143.223 102.31 143.789 101.486 144.238 100.575C144.687 99.6638 145.04 98.4264 144.742 97.3691Z" fill="white"/>
<path d="M137.29 86.455C137.36 86.5279 137.426 86.6063 137.486 86.6896C137.549 86.8109 137.581 86.9492 137.579 87.0894C137.576 87.2297 137.54 87.3666 137.474 87.4855C137.565 87.4797 137.654 87.4527 137.735 87.4063C137.816 87.3599 137.888 87.2951 137.945 87.216C138.083 87.0396 138.204 86.8477 138.307 86.6433C138.384 86.5022 138.465 86.3114 138.413 86.1438C138.378 86.0294 138.293 85.9805 138.234 85.8945C138.141 85.7581 138.117 85.5415 138.069 85.3544C137.964 84.9501 137.714 84.6529 137.442 84.6104L137.479 84.6185C137.366 84.6623 137.286 84.8654 137.311 85.0482C137.334 85.2146 137.429 85.3528 137.42 85.5225C137.406 85.7666 137.19 85.8811 137.176 86.1253C137.174 86.2477 137.215 86.3662 137.29 86.455Z" fill="white"/>
<path d="M135.998 82.3072C135.999 82.3069 136 82.3068 136.001 82.3065C136.024 82.2827 136.046 82.2569 136.066 82.2294L135.998 82.3072Z" fill="#E6E6E6"/>
<path d="M136.224 83.4529C136.391 83.3323 136.484 82.9986 136.429 82.7193C136.374 82.4418 136.18 82.2552 136.001 82.3065C135.949 82.3656 135.885 82.409 135.814 82.4325C135.743 82.456 135.668 82.4588 135.596 82.4407C135.485 82.4086 135.364 82.3262 135.268 82.4199C135.213 82.4899 135.175 82.5742 135.156 82.6652C135.121 82.7879 135.085 82.9105 135.05 83.033C135.033 83.0769 135.029 83.1256 135.037 83.1724C135.044 83.1912 135.055 83.2077 135.069 83.2203C135.083 83.2329 135.1 83.2412 135.118 83.2444C135.331 83.3151 135.544 83.3857 135.757 83.4563C135.912 83.5078 136.08 83.5574 136.224 83.4529Z" fill="white"/>
<path d="M152.301 99.2707C152.203 99.0893 152.104 98.908 152.006 98.7266C151.909 98.5166 151.777 98.3298 151.617 98.1768C151.581 98.1435 151.541 98.1186 151.497 98.1034C151.453 98.0881 151.407 98.083 151.361 98.0881C151.315 98.0933 151.271 98.1087 151.23 98.1334C151.19 98.1581 151.154 98.1917 151.126 98.2321L151.138 98.3357C151.362 98.6525 151.6 99.0044 151.656 99.4745C151.679 99.6598 151.671 99.8517 151.691 100.038C151.71 100.224 151.766 100.417 151.873 100.497C152.028 100.614 152.21 100.442 152.321 100.232C152.419 100.06 152.463 99.8556 152.446 99.6517C152.422 99.5148 152.372 99.3851 152.301 99.2707Z" fill="white"/>
<path d="M156.682 92.3444C156.711 92.1343 156.739 91.9242 156.768 91.7141C156.814 91.4834 156.82 91.2447 156.785 91.0115C156.777 90.9605 156.76 90.9119 156.735 90.8684C156.71 90.8249 156.678 90.7875 156.64 90.7583C156.602 90.7291 156.559 90.7087 156.514 90.6984C156.469 90.688 156.423 90.6879 156.378 90.6981L156.327 90.786C156.318 91.191 156.298 91.6322 156.073 92.0331C155.984 92.1912 155.868 92.3323 155.776 92.489C155.685 92.6456 155.617 92.8339 155.653 92.9726C155.705 93.1741 155.943 93.1745 156.147 93.0941C156.321 93.0338 156.472 92.9094 156.575 92.7409C156.635 92.6184 156.671 92.4834 156.682 92.3444Z" fill="#E6E6E6"/>
<path d="M153.845 99.5067C153.894 99.351 153.824 99.1724 153.809 99.0003C153.802 98.7781 153.855 98.5586 153.96 98.3702C154.064 98.1925 154.143 97.9975 154.194 97.7924C154.215 97.6989 154.212 97.6004 154.183 97.5094C154.15 97.4271 154.071 97.3895 154.026 97.4547L154.123 97.5249C153.992 97.4986 153.858 97.506 153.73 97.5463C153.657 97.5778 153.591 97.6285 153.54 97.6943C153.488 97.7601 153.451 97.839 153.432 97.9243C153.416 98.0573 153.39 98.1885 153.354 98.3165C153.296 98.4501 153.184 98.4946 153.114 98.6119C153.066 98.7159 153.041 98.8317 153.043 98.9489C153.045 99.066 153.072 99.1808 153.123 99.283C153.212 99.4501 153.352 99.5743 153.517 99.6314C153.636 99.6792 153.791 99.6817 153.845 99.5067Z" fill="white"/>
<path d="M156.596 100.44C156.638 100.566 156.696 100.684 156.766 100.792C156.898 100.941 157.077 100.85 157.236 100.814C157.381 100.788 157.53 100.807 157.666 100.868C157.802 100.93 157.921 101.031 158.01 101.163C157.948 100.815 157.813 100.489 157.616 100.213C157.419 99.936 157.165 99.7166 156.877 99.5729C156.501 99.4001 156.104 99.3834 155.713 99.3679L155.645 99.3874C155.817 99.9519 156.359 99.9393 156.596 100.44Z" fill="white"/>
<path d="M144.948 101.595L144.949 101.597C144.955 101.583 144.962 101.569 144.968 101.555L144.948 101.595Z" fill="#E6E6E6"/>
<path d="M144.531 102.504C144.44 102.69 144.361 102.883 144.297 103.082C144.211 103.405 144.154 103.737 144.127 104.072C144.106 104.263 144.099 104.507 144.205 104.6C144.236 104.622 144.273 104.632 144.309 104.626C144.345 104.621 144.379 104.601 144.403 104.569C144.462 104.499 144.51 104.418 144.545 104.33C144.754 103.926 144.916 103.493 145.028 103.042C145.13 102.567 145.129 102.008 144.949 101.597C144.809 101.899 144.67 102.202 144.531 102.504Z" fill="white"/>
<path d="M140.506 78.2946C140.572 78.3675 140.656 78.417 140.747 78.4369C140.838 78.4569 140.932 78.4465 141.018 78.407C141.195 78.3196 141.358 78.1985 141.499 78.049C141.616 77.9517 141.715 77.83 141.791 77.6906C141.833 77.6073 141.86 77.5155 141.87 77.4205C141.881 77.3254 141.874 77.2291 141.851 77.1369C141.785 76.9198 141.618 76.8471 141.47 76.7978C141.234 76.7189 140.997 76.64 140.761 76.5612L140.932 76.3877C140.756 76.2815 140.561 76.4787 140.451 76.7228C140.381 76.8822 140.332 77.0525 140.306 77.2281C140.247 77.6112 140.304 78.0675 140.506 78.2946Z" fill="#E6E6E6"/>
<path d="M144.679 76.7182C144.746 76.8008 144.838 76.8519 144.937 76.8609C145.036 76.8699 145.134 76.8363 145.211 76.7669C145.278 76.7104 145.334 76.6388 145.374 76.5566C145.415 76.4744 145.44 76.3835 145.447 76.2898C145.464 76.0806 145.372 75.848 145.24 75.83L145.27 75.6341C145.017 75.5827 144.706 75.5724 144.571 75.918C144.525 76.0504 144.511 76.194 144.53 76.3344C144.549 76.4748 144.6 76.6072 144.679 76.7182Z" fill="#E6E6E6"/>
<path d="M144.122 66.3012C142.639 66.1129 141.15 66.5953 139.983 67.642C138.817 68.6888 138.067 70.2143 137.9 71.8828C137.552 75.3575 139.178 82.9027 142.144 86.0261C143.541 80.0419 148.435 76.4924 149.082 73.3022C149.774 69.8933 147.21 66.6931 144.122 66.3012Z" fill="#FFC700"/>
<path d="M143.096 74.0257C144.11 74.0257 144.931 73.1012 144.931 71.9608C144.931 70.8205 144.11 69.896 143.096 69.896C142.083 69.896 141.261 70.8205 141.261 71.9608C141.261 73.1012 142.083 74.0257 143.096 74.0257Z" fill="white"/>
<path d="M141.167 89.0033C141.83 89.0033 142.369 88.3978 142.369 87.6509C142.369 86.904 141.83 86.2985 141.167 86.2985C140.503 86.2985 139.965 86.904 139.965 87.6509C139.965 88.3978 140.503 89.0033 141.167 89.0033Z" fill="#FFC700"/>
<path opacity="0.2" d="M144.614 70.4814C144.821 70.621 145.001 70.8051 145.144 71.0231C145.288 71.2411 145.391 71.4887 145.45 71.7518C145.508 72.0149 145.52 72.2883 145.484 72.5565C145.448 72.8247 145.366 73.0823 145.242 73.3147C145.118 73.5471 144.954 73.7498 144.761 73.9111C144.567 74.0723 144.347 74.1891 144.113 74.2547C143.641 74.3872 143.141 74.3031 142.724 74.0211C143.149 74.1275 143.595 74.0602 143.98 73.8311C144.365 73.6021 144.665 73.2262 144.827 72.7708C144.988 72.3154 145 71.8102 144.861 71.3457C144.722 70.8811 144.44 70.4875 144.066 70.2354C144.26 70.2836 144.445 70.3666 144.614 70.4814Z" fill="#231F20"/>
<path opacity="0.2" d="M149.089 73.3089C148.442 76.4992 143.548 80.0487 142.151 86.0329C141.873 85.7363 141.613 85.4169 141.376 85.0774C142.946 79.4524 147.535 76.0344 148.161 72.9521C148.72 70.1933 147.148 67.5715 144.891 66.464C147.623 67.2368 149.723 70.185 149.089 73.3089Z" fill="#231F20"/>
<path d="M126.926 74.3579C125.812 74.2165 124.694 74.5787 123.818 75.3648C122.942 76.1509 122.379 77.2965 122.253 78.5495C121.992 81.1588 123.213 86.8251 125.441 89.1706C126.489 84.6767 130.165 82.0112 130.651 79.6154C131.17 77.0554 129.245 74.6522 126.926 74.3579Z" fill="#FFC700"/>
<path d="M126.156 80.1586C126.917 80.1586 127.534 79.4644 127.534 78.608C127.534 77.7516 126.917 77.0574 126.156 77.0574C125.394 77.0574 124.777 77.7516 124.777 78.608C124.777 79.4644 125.394 80.1586 126.156 80.1586Z" fill="white"/>
<path d="M124.707 91.4064C125.205 91.4064 125.609 90.9517 125.609 90.3907C125.609 89.8298 125.205 89.3751 124.707 89.3751C124.208 89.3751 123.804 89.8298 123.804 90.3907C123.804 90.9517 124.208 91.4064 124.707 91.4064Z" fill="#FFC700"/>
<path opacity="0.2" d="M127.296 77.497C127.451 77.6019 127.586 77.7401 127.694 77.9038C127.801 78.0675 127.879 78.2535 127.923 78.451C127.967 78.6486 127.976 78.854 127.949 79.0553C127.922 79.2567 127.86 79.4502 127.767 79.6248C127.674 79.7993 127.551 79.9515 127.406 80.0726C127.26 80.1937 127.095 80.2814 126.919 80.3307C126.744 80.3799 126.561 80.3898 126.382 80.3597C126.203 80.3296 126.031 80.2601 125.876 80.1552C126.196 80.2352 126.53 80.1846 126.819 80.0126C127.108 79.8405 127.334 79.5583 127.455 79.2163C127.576 78.8743 127.585 78.4949 127.481 78.1461C127.376 77.7972 127.165 77.5016 126.884 77.3123C127.029 77.3485 127.168 77.4108 127.296 77.497Z" fill="#231F20"/>
<path opacity="0.2" d="M130.656 79.6204C130.17 82.0162 126.495 84.6817 125.446 89.1757C125.237 88.953 125.042 88.7131 124.864 88.4581C126.043 84.2339 129.489 81.6672 129.959 79.3525C130.379 77.2807 129.198 75.3118 127.503 74.4801C129.555 75.0604 131.132 77.2745 130.656 79.6204Z" fill="#231F20"/>
<path d="M170.069 130.53H168.556L167.836 123.963L170.069 123.963L170.069 130.53Z" fill="#A0616A"/>
<path d="M170.883 133.762H169.809L169.618 132.622L169.127 133.762H166.279C166.143 133.762 166.01 133.713 165.9 133.622C165.79 133.531 165.709 133.403 165.668 133.257C165.628 133.11 165.63 132.953 165.674 132.807C165.719 132.662 165.803 132.537 165.916 132.45L168.19 130.682V129.529L170.581 129.69L170.883 133.762Z" fill="#2F2E41"/>
<path d="M164.209 130.53H162.696L161.976 123.963L164.209 123.963L164.209 130.53Z" fill="#A0616A"/>
<path d="M165.023 133.762H163.949L163.757 132.622L163.267 133.762H160.419C160.283 133.762 160.15 133.713 160.04 133.622C159.93 133.531 159.849 133.403 159.808 133.257C159.767 133.11 159.769 132.953 159.814 132.807C159.858 132.662 159.943 132.537 160.055 132.45L162.329 130.682V129.529L164.721 129.69L165.023 133.762Z" fill="#2F2E41"/>
<path d="M158.461 113.192C158.75 113.68 161.9 127.115 161.9 127.115L164.693 127.473L164.361 124.093L163.855 118.111L163.07 114.119C163.07 114.119 165.841 107.022 166.016 106.457L166.141 106.052L167.006 114.892C167.109 115.208 167.154 115.544 167.138 115.88C167.112 116.432 167.604 124.74 167.604 124.74L167.841 127.719L170.234 128.093L171.205 122.938C172.016 121.263 171.551 115.313 171.219 114.759C170.888 114.205 171.02 110.347 171.02 110.347C171.443 110.18 173.967 100.493 172.705 100.55C172.786 100.034 172.849 99.5729 172.849 99.5729L170.658 97.5839L165.172 95.9793L163.788 95.2316C163.788 95.2316 161.317 100.374 161.341 100.63C161.375 100.954 161.309 101.281 161.154 101.557L158.659 110.955C158.659 110.955 158.168 112.698 158.461 113.192Z" fill="#2F2E41"/>
<path d="M172.242 79.5625L171.369 77.4777L168.399 77.6061L167.43 79.775C167.43 79.775 164.661 83.4961 164.572 84.706C164.459 86.2278 165.396 93.686 164.459 93.2026C164.459 93.2026 162.251 96.1193 163.558 96.1193C164.864 96.1193 170.775 100.294 171.163 100.764C171.551 101.234 173.282 101.538 173.137 100.558C172.992 99.5775 172.242 94.2762 172.242 94.2762L174.272 85.9403C174.857 84.1406 175.039 82.1219 173.718 80.913L172.242 79.5625Z" fill="#CCCCCC"/>
<path d="M161.24 73.4264C160.843 73.2489 160.418 73.1612 159.991 73.1684C159.564 73.1755 159.142 73.2773 158.749 73.4679C158.357 73.6585 158.002 73.9343 157.704 74.2793C157.406 74.6244 157.172 75.0321 157.014 75.4792C156.351 77.3592 156.241 81.8488 157.475 84.0989C159.062 80.9971 162.273 79.8518 163.064 78.1817C163.911 76.397 162.911 74.1726 161.24 73.4264Z" fill="#FFC700"/>
<path d="M159.904 77.6047C160.49 77.6047 160.966 77.0699 160.966 76.4103C160.966 75.7506 160.49 75.2158 159.904 75.2158C159.318 75.2158 158.843 75.7506 158.843 76.4103C158.843 77.0699 159.318 77.6047 159.904 77.6047Z" fill="white"/>
<path d="M156.71 85.6212C157.094 85.6212 157.405 85.2709 157.405 84.8389C157.405 84.4068 157.094 84.0565 156.71 84.0565C156.326 84.0565 156.015 84.4068 156.015 84.8389C156.015 85.2709 156.326 85.6212 156.71 85.6212Z" fill="#FFC700"/>
<path opacity="0.2" d="M160.951 75.8439C161.146 76.0726 161.251 76.3789 161.245 76.6954C161.239 77.0119 161.122 77.3127 160.919 77.5318C160.715 77.7508 160.443 77.8702 160.162 77.8636C159.881 77.8571 159.613 77.7251 159.418 77.4968C159.642 77.6289 159.899 77.6673 160.145 77.6053C160.391 77.5432 160.609 77.3847 160.761 77.1581C160.912 76.9315 160.987 76.6516 160.972 76.3684C160.957 76.0853 160.853 75.8175 160.678 75.6129C160.78 75.6728 160.872 75.7508 160.951 75.8439Z" fill="#231F20"/>
<path opacity="0.2" d="M163.068 78.1865C162.276 79.8567 159.065 81.002 157.478 84.1038C157.362 83.8906 157.261 83.668 157.174 83.438C158.809 80.5662 161.832 79.4423 162.597 77.8286C163.282 76.3844 162.758 74.6522 161.647 73.6484C163.068 74.5465 163.843 76.5511 163.068 78.1865Z" fill="#231F20"/>
<path d="M156.397 84.5694C156.558 84.5319 156.725 84.5347 156.886 84.5777C157.047 84.6207 157.197 84.7027 157.326 84.8181C157.455 84.9335 157.561 85.0793 157.634 85.2454C157.708 85.4115 157.749 85.5938 157.753 85.7794L160.161 86.8196L159.957 88.6205L156.574 87.0978C156.296 87.0855 156.032 86.959 155.832 86.7423C155.632 86.5256 155.509 86.2338 155.487 85.9221C155.466 85.6105 155.546 85.3006 155.714 85.0513C155.881 84.802 156.124 84.6305 156.397 84.5694L156.397 84.5694Z" fill="#A0616A"/>
<path d="M173.224 80.8582C172.97 80.684 172.688 80.5679 172.395 80.5165C172.101 80.465 171.802 80.4793 171.513 80.5585C171.224 80.6376 170.953 80.7801 170.713 80.9778C170.473 81.1754 170.271 81.4244 170.117 81.7103L166.66 88.1333L158.845 86.0488L158.133 88.2483L168.141 93.5828L173.21 84.4982C173.969 83.2982 174.341 81.6257 173.224 80.8582Z" fill="#CCCCCC"/>
<path d="M173.353 72.9867C173.353 73.6057 173.218 74.2154 172.96 74.7621C172.702 75.3088 172.328 75.7759 171.872 76.1224C171.417 76.4688 170.892 76.684 170.345 76.7491C169.798 76.8141 169.245 76.7271 168.735 76.4956C168.224 76.264 167.772 75.8951 167.418 75.4212C167.065 74.9472 166.819 74.3828 166.705 73.7774C166.59 73.1719 166.609 72.544 166.76 71.9488C166.911 71.3536 167.19 70.8092 167.572 70.3635L167.588 70.3454C167.615 70.3136 167.642 70.2818 167.67 70.2515C167.67 70.2516 167.67 70.2515 167.67 70.2514C167.67 70.2514 167.671 70.2513 167.671 70.2511C167.671 70.251 167.671 70.2508 167.671 70.2506C167.671 70.2504 167.671 70.2502 167.671 70.25C167.706 70.2137 167.741 70.1774 167.777 70.1426C168.263 69.6635 168.861 69.3521 169.5 69.2455C170.139 69.139 170.792 69.242 171.38 69.5421C171.968 69.8421 172.467 70.3266 172.817 70.9375C173.167 71.5485 173.353 72.2599 173.353 72.9867V72.9867Z" fill="#2F2E41"/>
<path d="M169.164 77.033C170.72 77.033 171.982 75.6131 171.982 73.8616C171.982 72.1102 170.72 70.6903 169.164 70.6903C167.607 70.6903 166.345 72.1102 166.345 73.8616C166.345 75.6131 167.607 77.033 169.164 77.033Z" fill="#9E616A"/>
<path d="M172.156 74.7661L171.689 74.6733C171.429 74.6199 171.188 74.4782 171.001 74.2671C170.814 74.0559 170.688 73.7854 170.641 73.4917L170.185 74.351L170.165 74.3584C169.08 74.764 167.95 74.6427 166.713 73.9881C166.359 73.7993 166.016 73.5864 165.685 73.3506L165.661 73.3334L165.659 73.3011C165.596 72.2695 165.801 71.4076 166.238 70.8743C166.406 70.6736 166.609 70.5151 166.835 70.4091C167.061 70.3031 167.305 70.2521 167.549 70.2593C167.567 70.2542 167.583 70.2442 167.596 70.2304C167.602 70.2252 167.608 70.22 167.615 70.2151V70.2098L167.647 70.1927C167.717 70.1559 167.788 70.1206 167.858 70.0884C168.416 69.8455 169.023 69.7846 169.61 69.9126C170.198 70.0407 170.741 70.3525 171.177 70.8123C172.045 71.7449 172.444 73.3099 172.168 74.7069L172.156 74.7661Z" fill="#2F2E41"/>
<path d="M178.101 77.4681C177.142 76.9111 178.375 74.8894 178.127 73.7074C177.88 72.5254 176.095 72.1452 175.981 70.9375C175.867 69.7298 175.6 68.4842 174.892 67.5678C174.439 66.9822 173.772 66.5499 173.086 66.6232C172.853 66.648 172.628 66.7289 172.426 66.8603C172.224 66.9917 172.05 67.1706 171.915 67.3847C171.78 67.5988 171.687 67.8432 171.644 68.1011C171.6 68.3591 171.607 68.6246 171.662 68.8795C171.467 68.5678 170.961 68.6354 170.836 68.9899C170.724 69.3051 170.97 69.6868 171.26 69.7147C171.639 70.241 172.072 70.7995 172.666 70.9057C172.76 70.9301 172.858 70.93 172.953 70.9055C173.047 70.8809 173.136 70.8326 173.211 70.764C173.351 70.6131 173.362 70.3116 173.196 70.1989C173.942 70.5322 174.379 71.4393 174.489 72.3335C174.6 73.2276 174.447 74.1324 174.346 75.028C174.245 75.9236 174.202 76.8658 174.514 77.6975C174.883 78.6801 175.732 79.3844 176.658 79.6103C177.584 79.8362 178.571 79.6154 179.41 79.1181C180.248 78.6207 180.948 77.8614 181.519 77.0102C180.535 77.7964 179.173 78.091 178.101 77.4681Z" fill="#2F2E41"/>
<path d="M172.036 74.6779C172.036 74.6779 171.202 71.1713 167.623 70.3619C167.619 70.3604 167.605 70.3544 167.588 70.3453C167.577 70.3378 167.564 70.3302 167.55 70.3226C167.591 70.2969 167.629 70.2742 167.67 70.2515C167.67 70.2515 167.67 70.2515 167.67 70.2514C167.671 70.2513 167.671 70.2512 167.671 70.2511C167.671 70.2509 167.671 70.2508 167.671 70.2506C167.671 70.2504 167.671 70.2502 167.671 70.25C167.706 70.2137 167.741 70.1774 167.777 70.1426L167.88 70.1471C167.88 70.1471 171.47 69.5072 172.036 74.6779Z" fill="#FD6584"/>
<path opacity="0.2" d="M170.167 85.9298L168.146 88.5649L164.806 87.4551L168.447 89.3431L170.167 85.9298Z" fill="white"/>
<path d="M182.3 133.961L151.223 134C151.187 134 151.153 133.984 151.128 133.956C151.103 133.927 151.089 133.889 151.089 133.849C151.089 133.809 151.103 133.771 151.128 133.742C151.153 133.714 151.187 133.698 151.223 133.698L182.3 133.659C182.335 133.659 182.369 133.675 182.394 133.703C182.42 133.732 182.434 133.77 182.434 133.81C182.434 133.85 182.42 133.889 182.394 133.917C182.369 133.945 182.335 133.961 182.3 133.961Z" fill="#CACACA"/>
<path d="M183.664 110.496C182.208 110.496 180.614 110.434 178.879 110.31C169.906 109.669 158.284 107.44 146.154 104.034C134.023 100.627 122.833 96.4509 114.644 92.2736C110.656 90.2387 107.594 88.3124 105.546 86.5483C103.376 84.6807 102.428 83.0528 102.725 81.71C103.306 79.094 108.443 78.5216 112.65 78.5022L112.652 78.8826C106.874 78.9093 103.465 79.9462 103.053 81.8021C102.529 84.166 106.805 87.8563 114.784 91.9271C122.954 96.0952 134.124 100.264 146.235 103.665C158.347 107.065 169.948 109.29 178.9 109.93C187.643 110.555 192.959 109.558 193.483 107.194C193.918 105.231 191.049 102.34 185.404 99.0526L185.559 98.7147C189.661 101.103 194.422 104.529 193.811 107.286C193.513 108.629 191.996 109.564 189.301 110.066C187.765 110.352 185.879 110.496 183.664 110.496Z" fill="#FFC700"/>
</g>
<path d="M11.4132 60.4863C12.0704 59.9827 12.1915 59.1642 11.6222 58.4213C11.1075 57.7498 10.2757 57.7296 9.66135 58.2004C9.34704 58.4413 9.18507 58.7922 9.08453 59.1641L10.6444 59.6015L9.53704 58.3637C8.80345 57.4065 8.78982 56.4418 9.3605 55.2334L8.1521 54.6627C7.27847 56.5115 7.4072 58.1591 8.524 59.6163C9.47657 60.8593 10.4988 61.1871 11.4132 60.4863ZM14.9707 57.76C15.6421 57.2454 15.7632 56.4269 15.1939 55.684C14.6793 55.0125 13.8331 55.0033 13.2188 55.4741C12.9188 55.704 12.7568 56.0549 12.6563 56.4268L14.2018 56.8752L13.1088 55.6265C12.3752 54.6692 12.3616 53.7045 12.918 52.5071L11.7238 51.9255C10.8502 53.7742 10.9789 55.4218 12.0957 56.8791C13.0483 58.122 14.0706 58.4498 14.9707 57.76Z" fill="white"/>
<path d="M27.6414 57.7588L34.6559 53.1921L33.4381 51.3216L28.6562 54.4348L26.7215 51.4631L30.6285 48.9195L29.4009 47.0339L25.4939 49.5774L23.8146 46.9979L28.4305 43.9928L27.2226 42.1373L20.3741 46.596L27.6414 57.7588Z" fill="white"/>
<path d="M40.6831 49.5351L43.0996 48.214L43.0157 46.1469C42.9835 45.4875 42.9354 44.8368 42.9205 44.2091L42.9994 44.1659C43.5672 44.4915 44.145 44.873 44.7056 45.223L46.5742 46.3144L49.0696 44.9502L43.9154 42.1265L44.0534 36.225L41.6527 37.5375L41.7724 39.4825C41.8362 40.1245 41.8828 40.735 41.9538 41.3527L41.8748 41.3959C41.33 41.0373 40.7938 40.6944 40.272 40.3028L38.5256 39.2471L36.0459 40.6028L40.9502 43.4194L40.6831 49.5351Z" fill="white"/>
<path d="M57.2638 45.18L59.676 44.0925L58.4184 41.3029L57.6632 39.8466C58.6409 40.1759 59.5839 40.1654 60.3716 39.8103C62.39 38.9004 63.4634 36.2447 62.0431 33.094C60.7633 30.2551 58.5892 29.0238 56.3247 30.0447C55.3401 30.4885 54.6176 31.4263 54.1661 32.4394L54.1169 32.4616L53.4909 31.5986L51.5381 32.4789L57.2638 45.18ZM58.9514 38.0615C58.4591 38.2834 57.7944 38.3856 56.9907 38.1358L55.1636 34.0826C55.4986 33.1616 55.916 32.5983 56.5232 32.3246C57.8031 31.7476 58.7811 32.4716 59.58 34.2438C60.4751 36.2294 60.0509 37.5658 58.9514 38.0615Z" fill="white"/>
<path d="M73.5565 34.4243C74.1465 34.2033 74.4963 33.9569 74.745 33.7485L73.7534 32.0248C73.5975 32.1216 73.5301 32.1469 73.4458 32.1784C73.2098 32.2668 72.8875 32.1761 72.6665 31.5861L68.5881 20.6968L66.1102 21.6249L70.1507 32.413C70.8073 34.1661 71.8203 35.0745 73.5565 34.4243Z" fill="white"/>
<path d="M85.4305 30.4315C87.843 29.7032 89.4868 27.1762 88.5243 23.9883C87.5567 20.7832 84.7892 19.5881 82.3767 20.3164C79.947 21.05 78.3032 23.5769 79.2709 26.782C80.2333 29.9699 83.0008 31.165 85.4305 30.4315ZM84.8114 28.3809C83.4846 28.7815 82.4019 27.811 81.8556 26.0017C81.3042 24.1751 81.6741 22.7848 83.001 22.3843C84.3106 21.9889 85.3881 22.9421 85.9396 24.7687C86.4858 26.578 86.121 27.9855 84.8114 28.3809Z" fill="white"/>
<path d="M97.5046 26.8748L100.085 26.2886L98.7569 20.4436C98.9781 18.8982 99.7887 18.1602 100.543 17.9888C100.965 17.8931 101.244 17.9035 101.615 17.9115L101.551 15.6001C101.221 15.5275 100.889 15.5291 100.363 15.6487C99.3445 15.88 98.4293 16.8078 98.0223 18.2662L97.9697 18.2782L97.3642 16.5883L95.2755 17.0628L97.5046 26.8748Z" fill="white"/>
<path d="M114.42 23.8065C115.647 23.6137 116.827 23.009 117.699 22.1796L116.573 20.6984C115.914 21.2576 115.242 21.6183 114.442 21.7441C112.966 21.9761 111.768 21.308 111.279 19.7085L117.432 18.7414C117.446 18.484 117.427 18.0133 117.348 17.5154C116.915 14.7593 115.197 12.9885 112.441 13.4218C110.094 13.7907 108.131 16.14 108.64 19.3763C109.157 22.6659 111.628 24.2453 114.42 23.8065ZM110.97 17.9714C110.954 16.4798 111.761 15.5876 112.81 15.4227C114.091 15.2215 114.829 15.98 115.042 17.3314L110.97 17.9714Z" fill="white"/>
<path d="M125.704 22.0902L128.34 21.8566L127.81 15.886C128.237 14.3844 129.14 13.7622 129.911 13.6939C130.341 13.6557 130.617 13.7036 130.983 13.7615L131.231 11.4626C130.914 11.3462 130.585 11.3031 130.047 11.3508C129.007 11.443 127.975 12.2392 127.375 13.6296L127.322 13.6343L126.949 11.8784L124.816 12.0675L125.704 22.0902Z" fill="white"/>
<path d="M152.037 21.3431C152.937 21.3599 153.642 21.175 154.185 21.0051L153.789 19.0714C153.499 19.174 153.119 19.2929 152.777 19.2866C151.895 19.2702 151.419 18.7212 151.441 17.5694L151.524 13.0882L154.026 13.1347L154.064 11.0651L151.563 11.0185L151.614 8.28301L149.418 8.24213L149.079 10.9723L147.512 11.0511L147.475 13.0128L148.879 13.0389L148.795 17.5201C148.753 19.7698 149.643 21.2986 152.037 21.3431Z" fill="white"/>
<path d="M161.168 21.4583L163.804 21.692L164.416 14.7891C165.214 14.1371 165.769 13.7887 166.594 13.8618C167.562 13.9477 167.964 14.5074 167.824 16.0852L167.3 22.002L169.935 22.2356L170.49 15.9782C170.713 13.468 169.896 11.8777 167.744 11.6869C166.382 11.5661 165.314 12.1943 164.459 12.8774L164.751 11.0059L165.07 7.40205L162.435 7.16838L161.168 21.4583Z" fill="white"/>
<path d="M182.147 24.222C183.372 24.4263 184.683 24.2252 185.772 23.7133L185.171 21.9526C184.369 22.2751 183.617 22.4052 182.818 22.272C181.345 22.0263 180.419 21.0142 180.46 19.3422L186.603 20.3665C186.698 20.1269 186.828 19.6741 186.911 19.177C187.37 16.425 186.299 14.2025 183.547 13.7437C181.203 13.3529 178.599 14.9625 178.06 18.1939C177.513 21.4786 179.359 23.7573 182.147 24.222ZM180.715 17.5963C181.171 16.176 182.218 15.5842 183.266 15.7589C184.544 15.972 185.006 16.9249 184.781 18.2743L180.715 17.5963Z" fill="white"/>
<path d="M204.531 28.9275L207.422 29.8149L209.686 25.9346C210.173 25.086 210.597 24.256 211.086 23.2764L211.172 23.3028C211.044 24.3934 210.93 25.3185 210.862 26.2767L210.588 30.7869L213.565 31.7008L218.91 22.8161L216.552 22.0924L214.062 26.5247C213.582 27.413 213.181 28.288 212.719 29.1816L212.633 29.1552C212.717 28.1454 212.808 27.1753 212.874 26.1602L213.128 21.0412L210.891 20.3545L208.263 24.7445C207.737 25.5998 207.279 26.4761 206.817 27.3697L206.731 27.3433C206.849 26.3441 207.009 25.3951 207.127 24.3959L207.518 19.3191L205.006 18.5478L204.531 28.9275Z" fill="white"/>
<path d="M226.462 36.7558C228.797 37.7052 231.663 36.7725 232.918 33.6879C234.179 30.5866 232.777 27.9178 230.443 26.9684C228.092 26.0122 225.225 26.9449 223.964 30.0462C222.709 33.1308 224.111 35.7996 226.462 36.7558ZM227.269 34.7716C225.985 34.2495 225.753 32.8141 226.465 31.0634C227.184 29.296 228.345 28.447 229.629 28.9692C230.896 29.4846 231.136 30.9032 230.417 32.6706C229.705 34.4214 228.536 35.287 227.269 34.7716Z" fill="white"/>
<path d="M238.09 41.5763L240.465 42.7418L243.105 37.3605C244.248 36.2973 245.343 36.2327 246.038 36.5736C246.425 36.7639 246.636 36.9474 246.92 37.1868L248.323 35.3488C248.111 35.0848 247.852 34.8774 247.367 34.6396C246.43 34.1797 245.135 34.3264 243.902 35.2051L243.854 35.1813L244.445 33.4863L242.522 32.5429L238.09 41.5763Z" fill="white"/>
<path d="M251.552 48.886C252.102 49.1946 252.515 49.3033 252.835 49.359L253.514 47.4898C253.339 47.433 253.276 47.3978 253.198 47.3537C252.978 47.2302 252.84 46.9253 253.149 46.3761L258.845 36.2389L256.538 34.9427L250.895 44.9858C249.978 46.6178 249.936 47.9778 251.552 48.886Z" fill="white"/>
<path d="M261.701 55.0269C262.576 55.5965 263.725 55.6789 264.746 55.463L264.791 55.4925L264.388 56.4755L266.198 57.6539L274.025 45.6313L271.807 44.1877L269.883 47.1443L269.109 48.5307C268.854 47.5699 268.491 46.8399 267.541 46.2212C265.731 45.0427 262.906 45.5878 261.109 48.3483C259.302 51.1239 259.589 53.652 261.701 55.0269ZM263.447 53.565C262.346 52.8481 262.257 51.566 263.406 49.8011C264.506 48.1116 265.91 47.7368 266.86 48.3555C267.388 48.6992 267.813 49.2338 268.007 50.0255L265.591 53.7364C264.705 54.0406 264.051 53.9579 263.447 53.565Z" fill="white"/>
<path d="M277.848 56.6054C279.861 56.9683 281.429 56.4014 282.546 54.9441C283.476 53.7297 283.538 52.6431 282.638 51.9533C281.966 51.4387 281.145 51.5345 280.586 52.2632C280.061 52.949 280.258 53.7574 280.886 54.2392C281.186 54.4691 281.556 54.5486 281.938 54.5237L281.958 52.9291L281.062 54.3058C280.317 55.2773 279.4 55.527 278.074 55.3044L277.848 56.6054ZM281.42 59.3426C283.418 59.6946 285.001 59.1386 286.117 57.6814C287.048 56.467 287.11 55.3803 286.21 54.6906C285.553 54.1869 284.716 54.2718 284.158 55.0004C283.632 55.6862 283.829 56.4947 284.458 56.9765C284.758 57.2064 285.142 57.2968 285.51 57.261L285.53 55.6663L284.634 57.0431C283.889 58.0146 282.972 58.2643 281.646 58.0417L281.42 59.3426Z" fill="white"/>
<defs>
<clipPath id="clip0_755_7349">
<rect width="93" height="75" fill="white" transform="translate(100.864 59)"/>
</clipPath>
</defs>
</svg>
