<svg width="429" height="200" viewBox="0 0 429 200" fill="none" xmlns="http://www.w3.org/2000/svg">
<path d="M78.5488 84.4863C79.206 83.9827 79.3271 83.1642 78.7578 82.4213C78.2432 81.7498 77.4113 81.7296 76.797 82.2004C76.4827 82.4413 76.3207 82.7922 76.2202 83.1641L77.78 83.6015L76.6727 82.3637C75.9391 81.4065 75.9254 80.4418 76.4961 79.2334L75.2877 78.6627C74.4141 80.5115 74.5428 82.1591 75.6596 83.6163C76.6122 84.8593 77.6345 85.1871 78.5488 84.4863ZM82.1063 81.76C82.7778 81.2454 82.8989 80.4269 82.3295 79.684C81.8149 79.0125 80.9688 79.0033 80.3544 79.4741C80.0544 79.704 79.8924 80.0549 79.7919 80.4268L81.3374 80.8752L80.2444 79.6265C79.5108 78.6692 79.4972 77.7045 80.0536 76.5071L78.8595 75.9255C77.9858 77.7742 78.1146 79.4218 79.2314 80.8791C80.1839 82.122 81.2062 82.4498 82.1063 81.76Z" fill="white"/>
<path d="M94.7771 81.7588L101.792 77.1921L100.574 75.3216L95.7918 78.4348L93.8572 75.4631L97.7641 72.9195L96.5365 71.0339L92.6296 73.5774L90.9502 70.9979L95.5662 67.9928L94.3582 66.1373L87.5097 70.596L94.7771 81.7588Z" fill="white"/>
<path d="M107.819 73.5351L110.235 72.214L110.151 70.1469C110.119 69.4875 110.071 68.8368 110.056 68.2091L110.135 68.1659C110.703 68.4915 111.281 68.873 111.841 69.223L113.71 70.3144L116.205 68.9502L111.051 66.1265L111.189 60.225L108.788 61.5375L108.908 63.4825C108.972 64.1245 109.018 64.735 109.089 65.3527L109.01 65.3959C108.466 65.0373 107.929 64.6944 107.408 64.3028L105.661 63.2471L103.182 64.6028L108.086 67.4194L107.819 73.5351Z" fill="white"/>
<path d="M124.399 69.18L126.812 68.0925L125.554 65.3029L124.799 63.8466C125.777 64.1759 126.72 64.1654 127.507 63.8103C129.526 62.9004 130.599 60.2447 129.179 57.094C127.899 54.2551 125.725 53.0238 123.46 54.0447C122.476 54.4885 121.753 55.4263 121.302 56.4394L121.252 56.4616L120.627 55.5986L118.674 56.4789L124.399 69.18ZM126.087 62.0615C125.595 62.2834 124.93 62.3856 124.126 62.1358L122.299 58.0826C122.634 57.1616 123.052 56.5983 123.659 56.3246C124.939 55.7476 125.917 56.4716 126.716 58.2438C127.611 60.2294 127.186 61.5658 126.087 62.0615Z" fill="white"/>
<path d="M140.692 58.4243C141.282 58.2033 141.632 57.9569 141.881 57.7485L140.889 56.0248C140.733 56.1216 140.666 56.1469 140.581 56.1784C140.345 56.2668 140.023 56.1761 139.802 55.5861L135.724 44.6968L133.246 45.6249L137.286 56.413C137.943 58.1661 138.956 59.0745 140.692 58.4243Z" fill="white"/>
<path d="M152.566 54.4315C154.979 53.7032 156.622 51.1762 155.66 47.9883C154.692 44.7832 151.925 43.5881 149.512 44.3164C147.083 45.05 145.439 47.5769 146.406 50.782C147.369 53.9699 150.136 55.165 152.566 54.4315ZM151.947 52.3809C150.62 52.7815 149.537 51.811 148.991 50.0017C148.44 48.1751 148.81 46.7848 150.137 46.3843C151.446 45.9889 152.524 46.9421 153.075 48.7687C153.621 50.578 153.257 51.9855 151.947 52.3809Z" fill="white"/>
<path d="M164.64 50.8748L167.22 50.2886L165.893 44.4436C166.114 42.8982 166.924 42.1602 167.679 41.9888C168.1 41.8931 168.38 41.9035 168.751 41.9115L168.687 39.6001C168.357 39.5275 168.025 39.5291 167.498 39.6487C166.48 39.88 165.565 40.8078 165.158 42.2662L165.105 42.2782L164.5 40.5883L162.411 41.0628L164.64 50.8748Z" fill="white"/>
<path d="M181.555 47.8065C182.782 47.6137 183.963 47.009 184.834 46.1796L183.709 44.6984C183.05 45.2576 182.378 45.6183 181.577 45.7441C180.101 45.9761 178.903 45.308 178.415 43.7085L184.567 42.7414C184.582 42.484 184.562 42.0133 184.484 41.5154C184.051 38.7593 182.333 36.9885 179.577 37.4218C177.23 37.7907 175.267 40.14 175.775 43.3763C176.292 46.6659 178.764 48.2453 181.555 47.8065ZM178.105 41.9714C178.09 40.4798 178.897 39.5876 179.946 39.4227C181.226 39.2215 181.965 39.98 182.177 41.3314L178.105 41.9714Z" fill="white"/>
<path d="M192.84 46.0902L195.475 45.8566L194.946 39.886C195.373 38.3844 196.276 37.7622 197.047 37.6939C197.477 37.6557 197.752 37.7036 198.119 37.7615L198.367 35.4626C198.049 35.3462 197.72 35.3031 197.182 35.3508C196.142 35.443 195.111 36.2392 194.511 37.6296L194.457 37.6343L194.085 35.8784L191.951 36.0675L192.84 46.0902Z" fill="white"/>
<path d="M219.172 45.3431C220.072 45.3599 220.778 45.175 221.321 45.0051L220.925 43.0714C220.635 43.174 220.255 43.2929 219.913 43.2866C219.031 43.2702 218.555 42.7212 218.577 41.5694L218.66 37.0882L221.162 37.1347L221.2 35.0651L218.698 35.0185L218.749 32.283L216.554 32.2421L216.215 34.9723L214.647 35.0511L214.611 37.0128L216.014 37.0389L215.931 41.5201C215.889 43.7698 216.779 45.2986 219.172 45.3431Z" fill="white"/>
<path d="M228.303 45.4583L230.939 45.692L231.551 38.7891C232.35 38.1371 232.905 37.7887 233.73 37.8618C234.698 37.9477 235.1 38.5074 234.96 40.0852L234.435 46.002L237.071 46.2356L237.626 39.9782C237.848 37.468 237.032 35.8777 234.88 35.6869C233.517 35.5661 232.45 36.1943 231.594 36.8774L231.887 35.0059L232.206 31.402L229.57 31.1684L228.303 45.4583Z" fill="white"/>
<path d="M249.282 48.222C250.507 48.4263 251.818 48.2252 252.907 47.7133L252.307 45.9526C251.505 46.2751 250.753 46.4052 249.954 46.272C248.48 46.0263 247.554 45.0142 247.596 43.3422L253.739 44.3665C253.834 44.1269 253.964 43.6741 254.047 43.177C254.506 40.425 253.435 38.2025 250.683 37.7437C248.339 37.3529 245.735 38.9625 245.196 42.1939C244.648 45.4786 246.495 47.7573 249.282 48.222ZM247.85 41.5963C248.306 40.176 249.354 39.5842 250.401 39.7589C251.68 39.972 252.141 40.9249 251.916 42.2743L247.85 41.5963Z" fill="white"/>
<path d="M271.666 52.9275L274.557 53.8149L276.822 49.9346C277.308 49.086 277.733 48.256 278.222 47.2764L278.308 47.3028C278.18 48.3934 278.065 49.3185 277.997 50.2767L277.723 54.7869L280.7 55.7008L286.045 46.8161L283.688 46.0924L281.197 50.5247C280.717 51.413 280.317 52.288 279.854 53.1816L279.768 53.1552C279.852 52.1454 279.943 51.1753 280.01 50.1602L280.263 45.0412L278.026 44.3545L275.398 48.7445C274.872 49.5998 274.415 50.4761 273.952 51.3697L273.866 51.3433C273.985 50.3441 274.144 49.3951 274.263 48.3959L274.654 43.3191L272.142 42.5478L271.666 52.9275Z" fill="white"/>
<path d="M293.598 60.7558C295.932 61.7052 298.799 60.7725 300.053 57.6879C301.315 54.5866 299.913 51.9178 297.579 50.9684C295.228 50.0122 292.361 50.9449 291.1 54.0462C289.845 57.1308 291.247 59.7996 293.598 60.7558ZM294.405 58.7716C293.121 58.2495 292.889 56.8141 293.601 55.0634C294.32 53.296 295.481 52.447 296.765 52.9692C298.032 53.4846 298.271 54.9032 297.552 56.6706C296.84 58.4214 295.672 59.287 294.405 58.7716Z" fill="white"/>
<path d="M305.225 65.5763L307.601 66.7418L310.241 61.3605C311.384 60.2973 312.478 60.2327 313.173 60.5736C313.561 60.7639 313.772 60.9474 314.055 61.1868L315.458 59.3488C315.247 59.0848 314.988 58.8774 314.503 58.6396C313.566 58.1797 312.271 58.3264 311.038 59.2051L310.989 59.1813L311.58 57.4863L309.657 56.5429L305.225 65.5763Z" fill="white"/>
<path d="M318.688 72.886C319.237 73.1946 319.651 73.3033 319.971 73.359L320.649 71.4898C320.475 71.433 320.412 71.3978 320.334 71.3537C320.114 71.2302 319.976 70.9253 320.284 70.3761L325.98 60.2389L323.674 58.9427L318.03 68.9858C317.113 70.6178 317.072 71.9778 318.688 72.886Z" fill="white"/>
<path d="M328.836 79.0269C329.711 79.5965 330.86 79.6789 331.882 79.463L331.927 79.4925L331.523 80.4755L333.333 81.6539L341.16 69.6313L338.943 68.1877L337.018 71.1443L336.244 72.5307C335.989 71.5699 335.627 70.8399 334.677 70.2212C332.866 69.0427 330.041 69.5878 328.244 72.3483C326.437 75.1239 326.724 77.652 328.836 79.0269ZM330.583 77.565C329.482 76.8481 329.393 75.566 330.542 73.8011C331.642 72.1116 333.045 71.7368 333.996 72.3555C334.524 72.6992 334.949 73.2338 335.142 74.0255L332.726 77.7364C331.841 78.0406 331.186 77.9579 330.583 77.565Z" fill="white"/>
<path d="M344.984 80.6054C346.996 80.9683 348.564 80.4014 349.681 78.9441C350.612 77.7297 350.674 76.6431 349.773 75.9533C349.102 75.4387 348.28 75.5345 347.722 76.2632C347.196 76.949 347.393 77.7574 348.022 78.2392C348.322 78.4691 348.692 78.5486 349.074 78.5237L349.094 76.9291L348.197 78.3058C347.453 79.2773 346.536 79.527 345.21 79.3044L344.984 80.6054ZM348.555 83.3426C350.553 83.6946 352.136 83.1386 353.253 81.6814C354.184 80.467 354.245 79.3803 353.345 78.6906C352.688 78.1869 351.852 78.2718 351.293 79.0004C350.768 79.6862 350.965 80.4947 351.593 80.9765C351.893 81.2064 352.278 81.2968 352.645 81.261L352.665 79.6663L351.769 81.0431C351.025 82.0146 350.108 82.2643 348.781 82.0417L348.555 83.3426Z" fill="white"/>
<g clip-path="url(#clip0_787_7442)">
<path d="M243.264 130.722C243.347 130.731 243.43 130.711 243.503 130.664C243.575 130.617 243.633 130.547 243.669 130.462C243.705 130.377 243.717 130.282 243.703 130.189C243.689 130.097 243.65 130.011 243.591 129.944C243.583 129.898 243.577 129.865 243.569 129.818C243.573 129.808 243.577 129.799 243.581 129.789C243.674 129.57 243.823 129.387 244.008 129.263C244.193 129.139 244.407 129.08 244.622 129.092C244.837 129.104 245.044 129.187 245.218 129.332C245.391 129.476 245.522 129.675 245.595 129.903C245.888 130.813 246.271 131.73 246.335 132.68C246.363 133.099 246.326 133.521 246.226 133.927C247.079 132.068 247.566 130.024 247.655 127.934C247.677 127.409 247.673 126.884 247.643 126.36C247.618 125.931 247.576 125.503 247.517 125.078C247.197 122.771 246.395 120.582 245.177 118.691C244.567 118.274 244.085 117.657 243.796 116.922C243.692 116.658 243.621 116.378 243.588 116.091C243.658 116.105 243.73 116.115 243.8 116.124C243.822 116.127 243.845 116.129 243.867 116.132L243.875 116.133C243.953 116.141 244.031 116.123 244.1 116.083C244.168 116.042 244.225 115.98 244.264 115.904C244.302 115.827 244.32 115.74 244.315 115.653C244.31 115.566 244.283 115.482 244.237 115.411C244.208 115.367 244.179 115.324 244.151 115.28C244.107 115.212 244.062 115.146 244.019 115.078C244.014 115.072 244.009 115.065 244.004 115.058C243.954 114.981 243.904 114.905 243.854 114.828C243.958 114.664 244.095 114.528 244.253 114.433C244.801 114.109 245.528 114.391 245.891 114.954C246.255 115.518 246.296 116.284 246.134 116.956C245.978 117.526 245.737 118.063 245.421 118.542C245.448 118.585 245.476 118.627 245.504 118.671C246.001 119.464 246.428 120.31 246.779 121.197C246.725 120.221 246.878 119.245 247.225 118.348C247.573 117.514 248.19 116.828 248.738 116.12C249.396 115.269 250.654 115.722 250.717 116.847C250.718 116.858 250.718 116.869 250.719 116.88C250.64 116.925 250.563 116.972 250.487 117.023C250.391 117.088 250.316 117.183 250.269 117.297C250.223 117.411 250.209 117.538 250.228 117.662C250.247 117.785 250.298 117.899 250.376 117.989C250.453 118.079 250.553 118.14 250.662 118.165L250.674 118.167C250.633 118.477 250.572 118.784 250.491 119.083C250.256 119.92 249.87 120.692 249.357 121.353C248.845 122.013 248.216 122.548 247.511 122.922C247.465 122.946 247.42 122.97 247.374 122.992C247.711 124.251 247.901 125.554 247.94 126.868C247.96 127.643 247.925 128.419 247.834 129.187L247.839 129.16C248.023 128.31 248.462 127.557 249.082 127.028C250.002 126.255 251.267 126.019 252.251 125.41C252.355 125.342 252.475 125.309 252.596 125.315C252.717 125.321 252.833 125.366 252.932 125.444C253.031 125.523 253.108 125.631 253.154 125.757C253.2 125.883 253.213 126.021 253.192 126.155C253.19 126.164 253.189 126.174 253.187 126.183C253.042 126.241 252.9 126.309 252.762 126.387C252.683 126.431 252.606 126.479 252.53 126.53C252.435 126.595 252.359 126.69 252.313 126.804C252.266 126.918 252.252 127.045 252.271 127.169C252.29 127.292 252.341 127.406 252.419 127.496C252.497 127.586 252.596 127.647 252.706 127.672L252.717 127.674C252.725 127.676 252.732 127.678 252.74 127.679C252.469 128.321 252.102 128.905 251.655 129.407C251.104 130.014 250.448 130.487 249.728 130.799C249.008 131.11 248.239 131.253 247.469 131.218L247.467 131.218C247.216 132.23 246.872 133.209 246.44 134.141L243.21 133.972C243.2 133.931 243.192 133.888 243.183 133.847C243.481 133.884 243.782 133.88 244.079 133.834C243.853 133.491 243.627 133.145 243.401 132.801C243.396 132.795 243.392 132.788 243.387 132.781C243.273 132.605 243.157 132.431 243.042 132.255L243.042 132.255C243.057 131.735 243.132 131.22 243.264 130.722L243.264 130.722Z" fill="#F2F2F2"/>
<path d="M178.182 99.2933C178.099 99.3077 178.015 99.2933 177.94 99.2519C177.865 99.2105 177.803 99.1442 177.763 99.062C177.722 98.9797 177.705 98.8855 177.714 98.7921C177.723 98.6986 177.757 98.6105 177.812 98.5397C177.818 98.4928 177.822 98.4591 177.828 98.4122C177.823 98.4027 177.818 98.3932 177.814 98.3838C177.709 98.172 177.55 97.9998 177.359 97.8889C177.167 97.778 176.951 97.7333 176.736 97.7604C176.522 97.7875 176.32 97.8853 176.155 98.0413C175.99 98.1974 175.87 98.4048 175.809 98.6376C175.567 99.5666 175.236 100.508 175.224 101.46C175.219 101.881 175.278 102.3 175.4 102.698C174.447 100.902 173.849 98.8954 173.645 96.8157C173.594 96.2938 173.57 95.769 173.571 95.244C173.573 94.8135 173.591 94.3841 173.626 93.9556C173.819 91.6306 174.5 89.3902 175.612 87.4185C176.198 86.9598 176.645 86.3099 176.892 85.5564C176.982 85.2855 177.037 85.0013 177.054 84.7128C176.985 84.7317 176.914 84.747 176.845 84.7607C176.823 84.7647 176.8 84.7688 176.778 84.7728L176.77 84.7742C176.693 84.7876 176.614 84.7757 176.543 84.7399C176.472 84.7041 176.412 84.646 176.37 84.5726C176.328 84.4991 176.305 84.4135 176.305 84.326C176.305 84.2385 176.327 84.1528 176.369 84.0793C176.396 84.0335 176.422 83.9878 176.448 83.9421C176.488 83.8717 176.529 83.8024 176.569 83.7319C176.574 83.7251 176.578 83.718 176.582 83.7106C176.628 83.6302 176.674 83.5511 176.72 83.4707C176.607 83.3136 176.463 83.188 176.3 83.1037C175.735 82.8187 175.025 83.1508 174.694 83.7384C174.361 84.3261 174.362 85.0934 174.561 85.7525C174.748 86.3112 175.018 86.83 175.36 87.2867C175.335 87.3317 175.309 87.3755 175.284 87.4206C174.831 88.2469 174.451 89.1212 174.15 90.0308C174.15 89.053 173.944 88.0891 173.549 87.2185C173.155 86.4101 172.501 85.7687 171.916 85.0998C171.213 84.2965 169.982 84.8353 169.981 85.9629C169.981 85.9739 169.981 85.9848 169.981 85.9957C170.062 86.0349 170.142 86.0772 170.22 86.1227C170.319 86.1806 170.4 86.2707 170.452 86.3812C170.504 86.4917 170.526 86.6174 170.514 86.7419C170.502 86.8664 170.456 86.9838 170.384 87.0788C170.311 87.1738 170.215 87.2419 170.107 87.2743L170.096 87.2776C170.154 87.5843 170.232 87.8857 170.329 88.1792C170.61 88.9975 171.037 89.7418 171.585 90.3655C172.133 90.9892 172.79 91.4788 173.514 91.8036C173.561 91.824 173.608 91.8446 173.655 91.8637C173.387 93.1436 173.269 94.4572 173.303 95.7714C173.325 96.5465 173.403 97.3183 173.535 98.0793L173.529 98.0525C173.299 97.2164 172.82 96.4952 172.172 96.0108C171.211 95.3033 169.935 95.1556 168.92 94.6166C168.812 94.5559 168.69 94.5313 168.57 94.5457C168.45 94.56 168.336 94.6128 168.241 94.6978C168.147 94.7827 168.076 94.8963 168.037 95.0251C167.998 95.1538 167.993 95.2925 168.021 95.4246C168.024 95.434 168.026 95.4434 168.028 95.4528C168.176 95.5005 168.322 95.5584 168.463 95.6265C168.545 95.6656 168.624 95.708 168.703 95.7535C168.802 95.8114 168.882 95.9015 168.935 96.012C168.987 96.1225 169.009 96.2482 168.997 96.3727C168.984 96.4971 168.939 96.6146 168.867 96.7096C168.794 96.8046 168.698 96.8727 168.59 96.9051L168.579 96.9084C168.571 96.9106 168.564 96.9128 168.557 96.9151C168.862 97.5367 169.26 98.0946 169.734 98.5643C170.317 99.1315 170.998 99.5585 171.734 99.8193C172.469 100.08 173.245 100.169 174.012 100.081L174.013 100.08C174.32 101.073 174.717 102.026 175.199 102.926L178.413 102.533C178.421 102.491 178.427 102.448 178.434 102.407C178.138 102.464 177.838 102.481 177.538 102.456C177.745 102.098 177.952 101.737 178.158 101.378C178.163 101.371 178.167 101.364 178.171 101.357C178.276 101.173 178.382 100.991 178.487 100.808L178.487 100.808C178.443 100.29 178.341 99.7813 178.182 99.2934L178.182 99.2933Z" fill="#F2F2F2"/>
<path d="M222.594 97.9528C222.753 98.0021 222.901 98.09 223.026 98.2104C223.152 98.3308 223.252 98.4807 223.321 98.6496C223.39 98.8185 223.424 99.0022 223.423 99.1879C223.422 99.3736 223.384 99.5567 223.313 99.7243L225.038 101.882L224.128 103.382L221.73 100.296C221.488 100.143 221.304 99.8951 221.213 99.5997C221.122 99.3042 221.131 98.9815 221.237 98.6928C221.344 98.404 221.541 98.1691 221.791 98.0328C222.041 97.8964 222.326 97.868 222.594 97.9528V97.9528Z" fill="#A0616A"/>
<path d="M238.743 103.252C238.588 102.967 238.384 102.72 238.143 102.524C237.902 102.328 237.63 102.187 237.341 102.11C237.052 102.033 236.752 102.021 236.459 102.075C236.165 102.128 235.884 102.246 235.632 102.422L229.959 106.376L223.839 100.523L222.316 102.118L229.077 111.988L237.864 106.833C237.659 106.954 238.991 103.706 238.743 103.252Z" fill="#CCCCCC"/>
<path d="M227.504 116.398C227.505 119.551 226.954 122.673 225.882 125.586C224.81 128.499 223.238 131.146 221.257 133.375C219.276 135.604 216.923 137.373 214.335 138.579C211.746 139.785 208.971 140.406 206.17 140.405C194.387 140.405 184.835 129.657 184.835 116.398C184.833 113.819 185.2 111.257 185.923 108.809C187.342 104.03 190.06 99.8727 193.693 96.9265C197.327 93.9803 201.691 92.3938 206.17 92.3914C210.032 92.3899 213.822 93.5686 217.136 95.8018C220.449 98.0349 223.162 101.239 224.983 105.071C225.435 106.016 225.829 106.995 226.163 108.001C226.209 108.141 226.254 108.281 226.298 108.423V108.424C226.493 109.045 226.666 109.678 226.815 110.323C227.274 112.307 227.506 114.348 227.504 116.398V116.398Z" fill="#000080"/>
<path d="M203.835 100.201C202.877 99.6177 201.812 99.2883 200.723 99.2382C199.634 99.1881 198.549 99.4184 197.551 99.9118C196.672 100.342 195.747 101.114 195.454 102.508C196.64 101.721 198.174 102.964 198.479 104.96L198.408 104.982C198.247 106.364 198.607 107.869 199.303 108.726C199.394 107.836 199.915 107.23 200.426 106.851C200.938 106.473 201.504 106.198 201.894 105.547C202.357 104.776 202.475 103.649 202.659 102.621C202.843 101.593 203.192 100.488 203.835 100.201Z" fill="white"/>
<path d="M197.199 111.962C196.871 112.517 196.433 112.865 196.039 113.299C195.647 113.733 195.273 114.32 195.195 115.074C195.145 115.557 195.222 116.047 195.212 116.536C195.201 117.024 195.056 117.573 194.761 117.695C194.295 117.884 193.94 116.91 193.461 116.842C193.081 116.789 192.738 117.463 192.848 118.047C192.959 118.631 193.476 118.89 193.774 118.508C194.043 119.016 193.853 119.938 193.449 120.094C193.407 120.414 193.364 120.733 193.322 121.053C192.301 120.249 191.268 119.431 190.4 118.253C189.433 116.955 188.834 115.361 188.678 113.676C188.566 112.322 188.733 110.774 188.181 109.732C187.739 108.899 186.98 108.715 186.297 108.767C186.173 108.776 186.047 108.792 185.923 108.809C186.325 107.449 186.837 106.132 187.451 104.875C187.589 104.808 187.719 104.717 187.833 104.607C188.469 104 188.751 102.772 189.266 101.922C189.3 101.867 189.334 101.814 189.37 101.762C189.897 100.987 190.603 100.588 191.286 100.218C192.797 99.392 194.352 98.5558 195.948 98.6705L195.494 98.7198C194.964 100.39 194.434 102.059 193.903 103.729C193.823 103.985 193.741 104.242 193.659 104.499C193.358 105.448 193.047 106.459 193.094 107.522C193.121 108.152 193.315 108.824 193.685 109.04C194.03 109.24 194.407 108.995 194.74 108.752C194.881 108.651 195.021 108.549 195.162 108.447C195.668 108.08 196.229 107.704 196.763 107.949C197.253 108.173 197.614 108.921 197.683 109.728C197.746 110.513 197.576 111.298 197.199 111.962V111.962Z" fill="white"/>
<path d="M200.21 123.362C198.731 122.338 197.253 121.314 195.775 120.29L195.8 120.217C194.881 120.611 194.5 122.45 194.651 123.953C194.803 125.456 195.318 126.8 195.579 128.265C195.929 130.269 195.797 132.343 195.195 134.27C197.139 131.816 198.859 129.149 200.33 126.309C200.535 125.951 200.692 125.56 200.794 125.15C200.888 124.714 200.874 124.189 200.686 123.839C200.565 123.638 200.401 123.474 200.21 123.362V123.362Z" fill="white"/>
<path d="M194.376 104.731C194.219 105.128 194.158 105.658 194.301 106.069C194.446 106.488 194.754 106.678 195.037 106.836L195.854 107.291C196.125 107.443 196.418 107.596 196.695 107.471C197.029 107.321 197.261 106.732 197.201 106.184C197.137 105.602 196.811 105.202 196.51 104.861C196.087 104.383 195.665 103.906 195.243 103.429L195.005 103.757C194.748 104.039 194.535 104.369 194.376 104.731V104.731Z" fill="white"/>
<path d="M223.126 110.955C223.494 111.053 223.861 111.15 224.228 111.247C224.164 112.644 223.549 113.936 222.724 114.404C222.381 114.599 221.998 114.671 221.713 115.035C221.456 115.366 221.326 115.881 221.206 116.373C220.996 117.232 220.786 118.091 220.577 118.95C220.351 119.875 220.062 120.903 219.477 121.237C218.974 121.524 218.399 121.173 218.013 120.585C217.626 119.997 217.391 119.206 217.162 118.435C217.176 119.275 216.829 120.099 216.337 120.391C215.844 120.683 215.244 120.419 214.915 119.767C214.678 119.299 214.579 118.681 214.347 118.207C214.115 117.732 213.627 117.46 213.374 117.905C213.207 118.201 213.228 118.655 213.145 119.031C213.016 119.615 212.625 119.982 212.237 120.014C211.851 120.046 211.474 119.795 211.15 119.455C210.483 118.751 209.991 117.633 209.8 116.392C209.716 115.838 209.692 115.235 209.838 114.716C209.984 114.198 210.336 113.797 210.686 113.896C210.915 113.349 210.461 112.624 210.053 112.688C209.642 112.752 209.321 113.247 208.985 113.627C208.649 114.007 208.18 114.283 207.842 113.905C207.844 114.256 207.591 114.488 207.371 114.459C207.153 114.431 206.959 114.234 206.759 114.094C205.985 113.551 205.002 113.911 204.452 114.938C204.796 113.292 205.3 111.403 206.356 111.017C206.787 110.858 207.258 110.989 207.665 110.714C208.387 110.227 208.533 108.388 207.91 107.629C207.989 108.347 207.974 109.184 207.637 109.675C207.3 110.166 206.594 109.846 206.637 109.12C206.539 109.62 206.056 109.696 205.833 109.312C205.609 108.928 205.628 108.3 205.787 107.841C205.946 107.382 206.216 107.053 206.478 106.737C207.041 106.058 207.612 105.371 208.264 104.944C208.917 104.517 209.671 104.373 210.325 104.798C210.67 105.022 210.974 105.395 211.326 105.592C211.678 105.791 212.124 105.766 212.358 105.302C212.62 104.784 212.497 104.016 212.594 103.369C212.768 102.226 213.784 101.691 214.347 102.446C213.926 102.325 213.491 102.885 213.439 103.564C213.386 104.243 213.69 104.928 214.098 105.134C214.783 105.475 215.454 104.616 215.972 103.821C216.512 102.989 217.054 102.157 217.596 101.326C217.682 101.184 217.779 101.051 217.886 100.928C218.056 100.742 218.282 100.636 218.519 100.63C218.756 100.625 218.986 100.721 219.163 100.899C219.71 101.402 219.967 102.433 220.417 103.142C221.069 104.173 222.044 104.424 222.952 104.624C223.629 104.772 224.306 104.921 224.984 105.071C225.435 106.016 225.829 106.995 226.163 108.001C225.015 108.549 223.957 109.575 223.126 110.955Z" fill="white"/>
<path d="M225.314 127.003C224.806 128.163 224.216 129.275 223.548 130.328C223.121 130.122 222.663 130.489 222.263 130.833C221.846 131.193 221.345 131.544 220.917 131.216C220.479 130.88 220.338 129.939 220.477 129.194C220.616 128.45 220.962 127.857 221.297 127.295C221.653 126.697 222.033 126.077 222.527 125.845C223.023 125.613 223.659 125.941 223.804 126.733L224.155 126.72C223.958 126.416 224.061 125.786 224.326 125.676C224.63 125.546 224.894 126.017 225.075 126.433C225.155 126.621 225.237 126.811 225.314 127.003Z" fill="white"/>
<path d="M211.877 121.369C211.123 121.422 210.526 120.378 210.129 119.35C209.732 118.322 209.37 117.147 208.689 116.624C208.3 116.325 207.857 116.284 207.435 116.139C207.014 115.995 206.572 115.695 206.371 115.085L205.892 114.867C205.261 115.267 204.62 115.674 204.076 116.324C203.466 117.054 203.085 117.99 202.994 118.987C202.903 120.064 203.24 121.265 203.87 121.67C204.369 121.99 204.949 121.788 205.453 122.081C206.084 122.447 206.458 123.51 206.6 124.559C206.742 125.608 206.706 126.698 206.807 127.759C206.908 128.82 207.188 129.924 207.766 130.468C208.49 131.149 209.551 130.583 209.876 129.345C210.035 128.737 210.03 128.051 210.149 127.421C210.359 126.31 210.925 125.486 211.373 124.575C211.822 123.664 212.176 122.426 211.877 121.369Z" fill="white"/>
<path d="M204.425 110.455C204.496 110.528 204.561 110.606 204.622 110.69C204.684 110.811 204.716 110.949 204.714 111.089C204.712 111.23 204.676 111.367 204.61 111.486C204.701 111.48 204.789 111.453 204.871 111.406C204.952 111.36 205.023 111.295 205.081 111.216C205.219 111.04 205.34 110.848 205.442 110.643C205.519 110.502 205.601 110.311 205.549 110.144C205.513 110.029 205.429 109.981 205.37 109.895C205.276 109.758 205.253 109.542 205.205 109.354C205.1 108.95 204.849 108.653 204.577 108.61L204.615 108.619C204.501 108.662 204.422 108.865 204.447 109.048C204.47 109.215 204.565 109.353 204.556 109.523C204.542 109.767 204.325 109.881 204.312 110.125C204.31 110.248 204.351 110.366 204.425 110.455V110.455Z" fill="white"/>
<path d="M203.133 106.307C203.135 106.307 203.136 106.307 203.137 106.306C203.16 106.283 203.181 106.257 203.201 106.229L203.133 106.307Z" fill="#E6E6E6"/>
<path d="M203.36 107.453C203.526 107.332 203.619 106.999 203.564 106.719C203.51 106.442 203.316 106.255 203.137 106.306C203.085 106.366 203.02 106.409 202.95 106.433C202.879 106.456 202.804 106.459 202.732 106.441C202.621 106.409 202.5 106.326 202.404 106.42C202.349 106.49 202.311 106.574 202.292 106.665C202.257 106.788 202.221 106.91 202.186 107.033C202.169 107.077 202.164 107.126 202.173 107.172C202.18 107.191 202.191 107.208 202.205 107.22C202.219 107.233 202.236 107.241 202.254 107.244C202.466 107.315 202.679 107.386 202.892 107.456C203.048 107.508 203.215 107.557 203.36 107.453Z" fill="white"/>
<path d="M219.437 123.271C219.338 123.089 219.24 122.908 219.141 122.727C219.045 122.517 218.913 122.33 218.752 122.177C218.717 122.143 218.676 122.119 218.632 122.103C218.588 122.088 218.542 122.083 218.496 122.088C218.451 122.093 218.406 122.109 218.366 122.133C218.326 122.158 218.29 122.192 218.261 122.232L218.273 122.336C218.498 122.652 218.735 123.004 218.792 123.474C218.814 123.66 218.807 123.852 218.826 124.038C218.846 124.224 218.902 124.417 219.009 124.497C219.164 124.614 219.346 124.442 219.456 124.232C219.555 124.06 219.599 123.856 219.582 123.652C219.557 123.515 219.508 123.385 219.437 123.271V123.271Z" fill="white"/>
<path d="M223.818 116.344C223.847 116.134 223.875 115.924 223.904 115.714C223.95 115.483 223.955 115.245 223.92 115.011C223.912 114.961 223.896 114.912 223.871 114.868C223.846 114.825 223.813 114.787 223.775 114.758C223.738 114.729 223.695 114.709 223.65 114.698C223.605 114.688 223.558 114.688 223.513 114.698L223.463 114.786C223.453 115.191 223.434 115.632 223.208 116.033C223.119 116.191 223.004 116.332 222.912 116.489C222.821 116.646 222.753 116.834 222.789 116.973C222.841 117.174 223.078 117.175 223.283 117.094C223.457 117.034 223.607 116.909 223.711 116.741C223.77 116.618 223.807 116.483 223.818 116.344V116.344Z" fill="#E6E6E6"/>
<path d="M220.981 123.507C221.029 123.351 220.96 123.172 220.945 123C220.938 122.778 220.99 122.559 221.095 122.37C221.2 122.192 221.279 121.997 221.33 121.792C221.351 121.699 221.347 121.6 221.318 121.509C221.286 121.427 221.207 121.389 221.162 121.455L221.258 121.525C221.128 121.499 220.993 121.506 220.865 121.546C220.792 121.578 220.727 121.628 220.675 121.694C220.623 121.76 220.586 121.839 220.567 121.924C220.551 122.057 220.525 122.188 220.489 122.316C220.431 122.45 220.32 122.495 220.249 122.612C220.201 122.716 220.177 122.832 220.179 122.949C220.181 123.066 220.208 123.181 220.259 123.283C220.347 123.45 220.488 123.574 220.653 123.631C220.771 123.679 220.927 123.682 220.981 123.507Z" fill="white"/>
<path d="M223.731 124.44C223.774 124.566 223.831 124.684 223.902 124.792C224.033 124.941 224.212 124.85 224.372 124.813C224.517 124.788 224.665 124.807 224.801 124.868C224.938 124.93 225.057 125.031 225.146 125.163C225.084 124.815 224.948 124.489 224.751 124.213C224.554 123.936 224.301 123.717 224.013 123.573C223.637 123.4 223.24 123.383 222.848 123.368L222.781 123.387C222.953 123.952 223.494 123.939 223.731 124.44Z" fill="white"/>
<path d="M212.083 125.595L212.084 125.597C212.091 125.583 212.097 125.569 212.104 125.555L212.083 125.595Z" fill="#E6E6E6"/>
<path d="M211.666 126.504C211.575 126.689 211.497 126.883 211.432 127.082C211.346 127.405 211.29 127.737 211.263 128.072C211.241 128.263 211.235 128.507 211.341 128.6C211.372 128.622 211.408 128.632 211.445 128.626C211.481 128.621 211.514 128.601 211.538 128.569C211.597 128.499 211.645 128.418 211.681 128.33C211.89 127.926 212.052 127.493 212.163 127.042C212.265 126.567 212.264 126.008 212.084 125.597C211.945 125.899 211.806 126.202 211.666 126.504Z" fill="white"/>
<path d="M207.641 102.295C207.708 102.367 207.792 102.417 207.882 102.437C207.973 102.457 208.068 102.447 208.153 102.407C208.331 102.32 208.494 102.199 208.635 102.049C208.752 101.952 208.851 101.83 208.927 101.691C208.969 101.607 208.996 101.515 209.006 101.42C209.016 101.325 209.01 101.229 208.987 101.137C208.921 100.92 208.753 100.847 208.606 100.798C208.369 100.719 208.133 100.64 207.897 100.561L208.068 100.388C207.892 100.282 207.697 100.479 207.587 100.723C207.517 100.882 207.467 101.052 207.441 101.228C207.382 101.611 207.44 102.068 207.641 102.295Z" fill="#E6E6E6"/>
<path d="M211.815 100.718C211.881 100.801 211.973 100.852 212.072 100.861C212.171 100.87 212.269 100.836 212.347 100.767C212.414 100.71 212.469 100.639 212.51 100.557C212.55 100.474 212.575 100.383 212.582 100.29C212.599 100.081 212.507 99.848 212.376 99.8299L212.406 99.6341C212.153 99.5827 211.842 99.5724 211.706 99.918C211.66 100.05 211.646 100.194 211.665 100.334C211.685 100.475 211.736 100.607 211.815 100.718Z" fill="#E6E6E6"/>
<path d="M211.257 90.3012C209.774 90.113 208.286 90.5953 207.119 91.6421C205.952 92.6888 205.203 94.2143 205.035 95.8829C204.687 99.3575 206.314 106.903 209.28 110.026C210.676 104.042 215.57 100.492 216.218 97.3022C216.91 93.8933 214.345 90.6931 211.257 90.3012Z" fill="#FFC700"/>
<path d="M210.232 98.0256C211.245 98.0256 212.067 97.1012 212.067 95.9608C212.067 94.8204 211.245 93.896 210.232 93.896C209.218 93.896 208.397 94.8204 208.397 95.9608C208.397 97.1012 209.218 98.0256 210.232 98.0256Z" fill="white"/>
<path d="M208.302 113.003C208.966 113.003 209.504 112.398 209.504 111.651C209.504 110.904 208.966 110.298 208.302 110.298C207.638 110.298 207.1 110.904 207.1 111.651C207.1 112.398 207.638 113.003 208.302 113.003Z" fill="#FFC700"/>
<path opacity="0.2" d="M211.75 94.4814C211.957 94.6211 212.137 94.8052 212.28 95.0231C212.423 95.2411 212.527 95.4887 212.585 95.7518C212.644 96.0149 212.655 96.2884 212.62 96.5565C212.584 96.8247 212.502 97.0824 212.378 97.3148C212.254 97.5472 212.09 97.7498 211.896 97.9111C211.703 98.0724 211.483 98.1892 211.249 98.2548C210.777 98.3872 210.277 98.3032 209.86 98.0211C210.285 98.1276 210.73 98.0603 211.115 97.8312C211.501 97.6021 211.801 97.2262 211.962 96.7709C212.124 96.3155 212.136 95.8103 211.997 95.3457C211.857 94.8812 211.576 94.4876 211.202 94.2354C211.395 94.2836 211.58 94.3667 211.75 94.4814V94.4814Z" fill="#231F20"/>
<path opacity="0.2" d="M216.225 97.3089C215.577 100.499 210.684 104.049 209.287 110.033C209.008 109.736 208.749 109.417 208.512 109.077C210.081 103.452 214.671 100.034 215.296 96.952C215.856 94.1933 214.283 91.5715 212.026 90.4639C214.758 91.2367 216.859 94.185 216.225 97.3089Z" fill="#231F20"/>
<path d="M194.061 98.3578C192.948 98.2165 191.83 98.5787 190.954 99.3648C190.077 100.151 189.515 101.296 189.389 102.549C189.127 105.159 190.349 110.825 192.576 113.171C193.625 108.677 197.3 106.011 197.786 103.615C198.306 101.055 196.38 98.6522 194.061 98.3578Z" fill="#FFC700"/>
<path d="M193.291 104.159C194.052 104.159 194.669 103.464 194.669 102.608C194.669 101.752 194.052 101.057 193.291 101.057C192.53 101.057 191.913 101.752 191.913 102.608C191.913 103.464 192.53 104.159 193.291 104.159Z" fill="white"/>
<path d="M191.842 115.406C192.341 115.406 192.745 114.952 192.745 114.391C192.745 113.83 192.341 113.375 191.842 113.375C191.344 113.375 190.94 113.83 190.94 114.391C190.94 114.952 191.344 115.406 191.842 115.406Z" fill="#FFC700"/>
<path opacity="0.2" d="M194.431 101.497C194.586 101.602 194.722 101.74 194.829 101.904C194.937 102.068 195.015 102.254 195.059 102.451C195.102 102.649 195.111 102.854 195.084 103.055C195.058 103.257 194.996 103.45 194.903 103.625C194.81 103.799 194.687 103.952 194.541 104.073C194.396 104.194 194.231 104.281 194.055 104.331C193.879 104.38 193.697 104.39 193.518 104.36C193.339 104.33 193.167 104.26 193.012 104.155C193.331 104.235 193.666 104.185 193.955 104.013C194.244 103.841 194.47 103.558 194.591 103.216C194.712 102.874 194.721 102.495 194.617 102.146C194.512 101.797 194.3 101.502 194.02 101.312C194.165 101.349 194.304 101.411 194.431 101.497Z" fill="#231F20"/>
<path opacity="0.2" d="M197.792 103.62C197.305 106.016 193.63 108.682 192.582 113.176C192.372 112.953 192.178 112.713 192 112.458C193.178 108.234 196.624 105.667 197.094 103.352C197.515 101.281 196.334 99.3118 194.639 98.4801C196.69 99.0604 198.268 101.274 197.792 103.62Z" fill="#231F20"/>
<path d="M237.205 154.53H235.692L234.972 147.963L237.205 147.963L237.205 154.53Z" fill="#A0616A"/>
<path d="M238.019 157.762H236.945L236.753 156.622L236.263 157.762H233.415C233.279 157.762 233.146 157.713 233.036 157.622C232.926 157.531 232.845 157.403 232.804 157.257C232.763 157.11 232.765 156.953 232.81 156.807C232.854 156.662 232.939 156.537 233.051 156.449L235.325 154.682V153.529L237.717 153.69L238.019 157.762Z" fill="#2F2E41"/>
<path d="M231.344 154.53H229.831L229.111 147.963L231.345 147.963L231.344 154.53Z" fill="#A0616A"/>
<path d="M232.158 157.762H231.085L230.893 156.622L230.402 157.762H227.555C227.418 157.762 227.285 157.713 227.175 157.622C227.065 157.531 226.984 157.403 226.944 157.257C226.903 157.11 226.905 156.953 226.95 156.807C226.994 156.662 227.079 156.537 227.191 156.449L229.465 154.682V153.529L231.857 153.69L232.158 157.762Z" fill="#2F2E41"/>
<path d="M225.596 137.192C225.886 137.68 229.036 151.115 229.036 151.115L231.829 151.473L231.497 148.093L230.99 142.111L230.206 138.119C230.206 138.119 232.977 131.023 233.152 130.457L233.276 130.052L234.142 138.892C234.245 139.208 234.29 139.544 234.274 139.88C234.248 140.432 234.74 148.74 234.74 148.74L234.977 151.719L237.37 152.093L238.34 146.938C239.151 145.263 238.686 139.313 238.355 138.759C238.023 138.205 238.155 134.347 238.155 134.347C238.579 134.18 241.103 124.493 239.84 124.55C239.921 124.034 239.985 123.573 239.985 123.573L237.793 121.584L232.308 119.979L230.924 119.232C230.924 119.232 228.452 124.374 228.477 124.63C228.511 124.954 228.445 125.281 228.29 125.557L225.794 134.955C225.794 134.955 225.304 136.698 225.596 137.192Z" fill="#2F2E41"/>
<path d="M239.377 103.563L238.505 101.478L235.535 101.606L234.566 103.775C234.566 103.775 231.797 107.496 231.708 108.706C231.595 110.228 232.532 117.686 231.595 117.203C231.595 117.203 229.387 120.119 230.693 120.119C232 120.119 237.911 124.294 238.299 124.764C238.686 125.234 240.418 125.538 240.273 124.558C240.128 123.578 239.377 118.276 239.377 118.276L241.408 109.94C241.993 108.141 242.174 106.122 240.853 104.913L239.377 103.563Z" fill="#CCCCCC"/>
<path d="M228.376 97.4263C227.978 97.2488 227.554 97.1612 227.127 97.1683C226.699 97.1754 226.277 97.2772 225.885 97.4678C225.492 97.6585 225.137 97.9342 224.839 98.2793C224.542 98.6244 224.307 99.0321 224.15 99.4791C223.486 101.359 223.377 105.849 224.611 108.099C226.198 104.997 229.408 103.852 230.2 102.182C231.046 100.397 230.046 98.1726 228.376 97.4263Z" fill="#FFC700"/>
<path d="M227.04 101.605C227.626 101.605 228.101 101.07 228.101 100.41C228.101 99.7506 227.626 99.2158 227.04 99.2158C226.453 99.2158 225.978 99.7506 225.978 100.41C225.978 101.07 226.453 101.605 227.04 101.605Z" fill="white"/>
<path d="M223.846 109.621C224.23 109.621 224.541 109.271 224.541 108.839C224.541 108.407 224.23 108.056 223.846 108.056C223.462 108.056 223.151 108.407 223.151 108.839C223.151 109.271 223.462 109.621 223.846 109.621Z" fill="#FFC700"/>
<path opacity="0.2" d="M228.087 99.8439C228.281 100.073 228.387 100.379 228.381 100.695C228.375 101.012 228.257 101.313 228.054 101.532C227.851 101.751 227.579 101.87 227.298 101.864C227.016 101.857 226.749 101.725 226.554 101.497C226.777 101.629 227.035 101.667 227.281 101.605C227.527 101.543 227.745 101.385 227.896 101.158C228.048 100.931 228.123 100.652 228.108 100.368C228.093 100.085 227.989 99.8175 227.814 99.6129C227.915 99.6728 228.008 99.7508 228.087 99.8439Z" fill="#231F20"/>
<path opacity="0.2" d="M230.203 102.187C229.411 103.857 226.201 105.002 224.614 108.104C224.498 107.891 224.397 107.668 224.31 107.438C225.945 104.566 228.968 103.442 229.733 101.829C230.418 100.384 229.893 98.6523 228.783 97.6485C230.204 98.5466 230.979 100.551 230.203 102.187Z" fill="#231F20"/>
<path d="M223.532 108.569C223.694 108.532 223.861 108.535 224.022 108.578C224.182 108.621 224.332 108.703 224.462 108.818C224.591 108.934 224.696 109.079 224.77 109.245C224.844 109.412 224.884 109.594 224.889 109.779L227.297 110.82L227.092 112.621L223.71 111.098C223.432 111.086 223.168 110.959 222.968 110.742C222.767 110.526 222.645 110.234 222.623 109.922C222.601 109.611 222.682 109.301 222.849 109.051C223.017 108.802 223.26 108.631 223.532 108.569L223.532 108.569Z" fill="#A0616A"/>
<path d="M240.359 104.858C240.106 104.684 239.824 104.568 239.53 104.516C239.237 104.465 238.937 104.479 238.649 104.558C238.36 104.638 238.088 104.78 237.849 104.978C237.609 105.175 237.406 105.424 237.253 105.71L233.796 112.133L225.981 110.049L225.269 112.248L235.277 117.583L240.346 108.498C241.105 107.298 241.476 105.626 240.359 104.858Z" fill="#CCCCCC"/>
<path d="M240.488 96.9867C240.488 97.6057 240.354 98.2154 240.096 98.7621C239.838 99.3088 239.464 99.7759 239.008 100.122C238.552 100.469 238.028 100.684 237.481 100.749C236.933 100.814 236.38 100.727 235.87 100.496C235.36 100.264 234.908 99.8951 234.554 99.4212C234.2 98.9472 233.955 98.3828 233.84 97.7773C233.725 97.1719 233.744 96.544 233.896 95.9488C234.047 95.3536 234.326 94.8092 234.707 94.3635L234.723 94.3453C234.75 94.3136 234.777 94.2818 234.805 94.2515C234.806 94.2515 234.806 94.2515 234.806 94.2514C234.806 94.2514 234.806 94.2512 234.806 94.2511C234.807 94.251 234.807 94.2508 234.807 94.2506C234.807 94.2504 234.807 94.2502 234.807 94.25C234.842 94.2137 234.877 94.1774 234.913 94.1426C235.399 93.6635 235.997 93.352 236.636 93.2455C237.275 93.139 237.927 93.242 238.516 93.542C239.104 93.8421 239.603 94.3266 239.953 94.9375C240.302 95.5484 240.488 96.2599 240.488 96.9867V96.9867Z" fill="#2F2E41"/>
<path d="M236.299 101.033C237.856 101.033 239.118 99.6132 239.118 97.8617C239.118 96.1102 237.856 94.6904 236.299 94.6904C234.743 94.6904 233.481 96.1102 233.481 97.8617C233.481 99.6132 234.743 101.033 236.299 101.033Z" fill="#9E616A"/>
<path d="M239.292 98.7661L238.825 98.6733C238.564 98.6199 238.324 98.4782 238.136 98.267C237.949 98.0559 237.823 97.7854 237.776 97.4917L237.321 98.351L237.301 98.3584C236.215 98.764 235.086 98.6427 233.848 97.9881C233.495 97.7992 233.151 97.5863 232.821 97.3505L232.796 97.3334L232.794 97.3011C232.731 96.2694 232.937 95.4076 233.374 94.8742C233.542 94.6736 233.745 94.5151 233.971 94.4091C234.197 94.3031 234.44 94.252 234.685 94.2593C234.702 94.2541 234.718 94.2442 234.731 94.2303C234.738 94.2251 234.744 94.22 234.75 94.2151V94.2098L234.783 94.1926C234.852 94.1559 234.923 94.1206 234.994 94.0884C235.552 93.8455 236.159 93.7846 236.746 93.9126C237.333 94.0406 237.876 94.3525 238.313 94.8123C239.181 95.7449 239.579 97.3099 239.304 98.7068L239.292 98.7661Z" fill="#2F2E41"/>
<path d="M245.237 101.468C244.278 100.911 245.511 98.8894 245.263 97.7074C245.015 96.5254 243.23 96.1452 243.117 94.9375C243.003 93.7298 242.735 92.4842 242.027 91.5677C241.575 90.9822 240.908 90.5499 240.221 90.6232C239.989 90.648 239.764 90.7289 239.562 90.8603C239.36 90.9917 239.186 91.1705 239.051 91.3847C238.915 91.5988 238.823 91.8431 238.779 92.1011C238.736 92.359 238.742 92.6245 238.798 92.8795C238.603 92.5678 238.097 92.6354 237.971 92.9899C237.86 93.305 238.106 93.6868 238.395 93.7147C238.774 94.241 239.208 94.7995 239.801 94.9056C239.896 94.9301 239.994 94.93 240.088 94.9055C240.183 94.8809 240.271 94.8325 240.347 94.764C240.486 94.6131 240.497 94.3116 240.332 94.1988C241.077 94.5321 241.514 95.4393 241.625 96.3334C241.736 97.2276 241.583 98.1323 241.482 99.028C241.381 99.9236 241.337 100.866 241.65 101.697C242.018 102.68 242.867 103.384 243.794 103.61C244.72 103.836 245.707 103.615 246.545 103.118C247.384 102.621 248.083 101.861 248.655 101.01C247.671 101.796 246.309 102.091 245.237 101.468Z" fill="#2F2E41"/>
<path d="M239.172 98.6779C239.172 98.6779 238.337 95.1713 234.758 94.362C234.754 94.3605 234.741 94.3544 234.723 94.3454C234.713 94.3378 234.699 94.3302 234.686 94.3227C234.726 94.2969 234.765 94.2743 234.805 94.2515C234.806 94.2515 234.806 94.2515 234.806 94.2514C234.806 94.2514 234.806 94.2512 234.806 94.2511C234.807 94.251 234.807 94.2508 234.807 94.2506C234.807 94.2504 234.807 94.2502 234.807 94.25C234.842 94.2137 234.877 94.1774 234.913 94.1426L235.015 94.1472C235.015 94.1472 238.606 93.5073 239.172 98.6779Z" fill="#FD6584"/>
<path opacity="0.2" d="M237.303 109.93L235.282 112.565L231.942 111.455L235.583 113.343L237.303 109.93Z" fill="white"/>
<path d="M249.435 157.961L218.358 158C218.323 158 218.289 157.984 218.264 157.956C218.238 157.927 218.224 157.889 218.224 157.849C218.224 157.809 218.238 157.771 218.264 157.742C218.289 157.714 218.323 157.698 218.358 157.698L249.435 157.659C249.471 157.659 249.505 157.675 249.53 157.703C249.555 157.732 249.569 157.77 249.569 157.81C249.569 157.85 249.555 157.888 249.53 157.917C249.505 157.945 249.471 157.961 249.435 157.961V157.961Z" fill="#CACACA"/>
<path d="M250.799 134.495C249.344 134.495 247.749 134.434 246.014 134.31C237.042 133.669 225.42 131.44 213.289 128.034C201.158 124.627 189.968 120.451 181.78 116.274C177.791 114.239 174.73 112.312 172.681 110.548C170.512 108.681 169.563 107.053 169.861 105.71C170.441 103.094 175.578 102.522 179.786 102.502L179.787 102.883C174.009 102.909 170.601 103.946 170.189 105.802C169.665 108.166 173.94 111.856 181.92 115.927C190.09 120.095 201.259 124.264 213.371 127.664C225.483 131.065 237.083 133.29 246.036 133.93C254.779 134.555 260.094 133.558 260.619 131.194C261.054 129.231 258.184 126.34 252.539 123.053L252.695 122.715C256.797 125.103 261.558 128.529 260.947 131.286C260.649 132.629 259.132 133.564 256.437 134.066C254.901 134.352 253.014 134.495 250.799 134.495Z" fill="#FFC700"/>
</g>
<defs>
<clipPath id="clip0_787_7442">
<rect width="93" height="75" fill="white" transform="translate(168 83)"/>
</clipPath>
</defs>
</svg>
