<svg width="30" height="30" viewBox="0 0 30 30" fill="none" xmlns="http://www.w3.org/2000/svg">
<path d="M12.25 16.75H15.375C17.25 16.75 18.075 16.4 18.875 15.725C19.675 15.0375 20 14.0625 20 12.7875C20 11.575 19.6875 10.625 18.875 9.85C18.0625 9.1125 17.2875 8.75 15.375 8.75H10V21.25H12.25V16.75ZM23.75 3.75C24.413 3.75 25.0489 4.01339 25.5178 4.48223C25.9866 4.95107 26.25 5.58696 26.25 6.25V23.75C26.25 24.413 25.9866 25.0489 25.5178 25.5178C25.0489 25.9866 24.413 26.25 23.75 26.25H6.25C5.58696 26.25 4.95107 25.9866 4.48223 25.5178C4.01339 25.0489 3.75 24.413 3.75 23.75V6.25C3.75 5.58696 4.01339 4.95107 4.48223 4.48223C4.95107 4.01339 5.58696 3.75 6.25 3.75H23.75ZM12.25 15V10.5H15.125C15.95 10.5 16.5875 10.8125 17 11.25C17.4125 11.6875 17.625 12.15 17.625 12.8C17.625 13.5 17.4 13.9875 17 14.375C16.6 14.7625 16.125 15 15.275 15H12.25Z" fill="#FFC700"/>
</svg>
