<svg width="22" height="22" viewBox="0 0 22 22" fill="none" xmlns="http://www.w3.org/2000/svg">
<path d="M20.9493 14.8325C20.9682 14.8765 20.9836 14.9218 20.9955 14.968C21.0335 14.9641 21.0757 14.9592 21.1209 14.9538C21.1278 14.9529 21.1349 14.9521 21.142 14.9513C21.225 14.9413 21.3178 14.9302 21.3889 14.9267C21.4229 14.9251 21.477 14.9235 21.5273 14.9336C21.5462 14.9374 21.612 14.951 21.6691 15.0054C21.7033 15.038 21.7355 15.0867 21.7463 15.1502C21.7567 15.2114 21.7434 15.2633 21.7285 15.298C21.7034 15.3564 21.6625 15.3931 21.649 15.4051C21.6291 15.4228 21.608 15.438 21.5901 15.45C21.5537 15.4744 21.5096 15.4996 21.465 15.5237C21.3746 15.5723 21.2599 15.6279 21.1494 15.6805C21.1086 15.6998 21.0687 15.7187 21.0301 15.7369C20.9612 15.7694 20.8969 15.7997 20.8411 15.8269C20.798 15.8479 20.7636 15.8652 20.7391 15.8784C20.732 15.8823 20.7265 15.8853 20.7225 15.8877L14.9434 21.4745C14.76 21.6518 14.5129 21.75 14.257 21.75C14.0011 21.75 13.7541 21.6518 13.5707 21.4745C13.3869 21.2968 13.2821 21.0541 13.2821 20.7991C13.2821 20.5442 13.3869 20.3014 13.5707 20.1238L13.5707 20.1238L17.6832 16.1494L4.12027 16.1494C3.09648 16.1494 2.113 15.7563 1.38658 15.054C0.659879 14.3515 0.249992 13.3968 0.249992 12.3995L0.249991 1.19997C0.249991 0.945241 0.354741 0.702727 0.538301 0.525273C0.72157 0.3481 0.968389 0.249999 1.22405 0.249999C1.4797 0.249999 1.72652 0.3481 1.90979 0.525273C2.09335 0.702727 2.1981 0.945239 2.1981 1.19997L2.1981 12.3995C2.1981 12.8873 2.39849 13.357 2.75808 13.7046C3.11795 14.0525 3.6078 14.2494 4.12027 14.2494L17.6832 14.2494L13.5707 10.275L13.5707 10.2749C13.4797 10.187 13.4072 10.0822 13.3575 9.96628C13.3078 9.8503 13.2821 9.72568 13.2821 9.59962C13.2821 9.47355 13.3078 9.34893 13.3575 9.23295C13.4072 9.11699 13.4797 9.01219 13.5707 8.9243L13.7444 9.10404L13.5707 8.92429C13.6616 8.83642 13.769 8.76715 13.8867 8.72003C14.0043 8.67291 14.1302 8.64876 14.257 8.64876C14.3839 8.64876 14.5098 8.67291 14.6274 8.72003C14.7451 8.76715 14.8525 8.83642 14.9434 8.92429L14.7697 9.10404L14.9434 8.9243L20.7357 14.5238C20.7357 14.5239 20.7358 14.524 20.7358 14.524C20.8268 14.6118 20.8995 14.7166 20.9493 14.8325ZM20.7133 15.8933C20.7134 15.8933 20.714 15.8928 20.7152 15.892C20.7139 15.8929 20.7133 15.8933 20.7133 15.8933Z" fill="white" stroke="white" stroke-width="0.5"/>
</svg>
