<svg width="40" height="25" viewBox="0 0 40 25" fill="none" xmlns="http://www.w3.org/2000/svg">
<path d="M3.43108 16.4371C5.15141 8.28328 12.343 2.48971 20.4326 2.48971C28.5196 2.48971 35.7112 8.28328 37.434 16.4371C37.5023 16.7607 37.6979 17.0442 37.978 17.2254C38.258 17.4065 38.5995 17.4705 38.9273 17.4031C39.2551 17.3358 39.5424 17.1426 39.726 16.8662C39.9095 16.5898 39.9743 16.2527 39.9061 15.9292C37.9461 6.65501 29.7481 0 20.4326 0C11.1171 0 2.91902 6.65501 0.959057 15.9292C0.890818 16.2527 0.955597 16.5898 1.13914 16.8662C1.32269 17.1426 1.60997 17.3358 1.93778 17.4031C2.26559 17.4705 2.60708 17.4065 2.88713 17.2254C3.16718 17.0442 3.36284 16.7607 3.43108 16.4371Z" fill="#FFFBF7"/>
<path d="M20.4073 7.46912C22.7488 7.46912 24.9944 8.3872 26.6501 10.0214C28.3058 11.6556 29.236 13.872 29.236 16.1831C29.236 18.4942 28.3058 20.7107 26.6501 22.3448C24.9944 23.979 22.7488 24.8971 20.4073 24.8971C18.0658 24.8971 15.8202 23.979 14.1645 22.3448C12.5088 20.7107 11.5787 18.4942 11.5787 16.1831C11.5787 13.872 12.5088 11.6556 14.1645 10.0214C15.8202 8.3872 18.0658 7.46912 20.4073 7.46912Z" fill="#FFFBF7"/>
</svg>
