<svg width="414" height="260" viewBox="0 0 414 260" fill="none" xmlns="http://www.w3.org/2000/svg">
<g filter="url(#filter0_d_787_7666)">
<path d="M90.7383 44.5352C90.7383 44.2305 90.6914 43.957 90.5977 43.7148C90.5117 43.4648 90.3477 43.2383 90.1055 43.0352C89.8633 42.8242 89.5234 42.6172 89.0859 42.4141C88.6484 42.2109 88.082 42 87.3867 41.7812C86.6133 41.5312 85.8789 41.25 85.1836 40.9375C84.4961 40.625 83.8867 40.2617 83.3555 39.8477C82.832 39.4258 82.418 38.9375 82.1133 38.3828C81.8164 37.8281 81.668 37.1836 81.668 36.4492C81.668 35.7383 81.8242 35.0938 82.1367 34.5156C82.4492 33.9297 82.8867 33.4297 83.4492 33.0156C84.0117 32.5938 84.6758 32.2695 85.4414 32.043C86.2148 31.8164 87.0625 31.7031 87.9844 31.7031C89.2422 31.7031 90.3398 31.9297 91.2773 32.3828C92.2148 32.8359 92.9414 33.457 93.457 34.2461C93.9805 35.0352 94.2422 35.9375 94.2422 36.9531H90.75C90.75 36.4531 90.6445 36.0156 90.4336 35.6406C90.2305 35.2578 89.918 34.957 89.4961 34.7383C89.082 34.5195 88.5586 34.4102 87.9258 34.4102C87.3164 34.4102 86.8086 34.5039 86.4023 34.6914C85.9961 34.8711 85.6914 35.1172 85.4883 35.4297C85.2852 35.7344 85.1836 36.0781 85.1836 36.4609C85.1836 36.75 85.2539 37.0117 85.3945 37.2461C85.543 37.4805 85.7617 37.6992 86.0508 37.9023C86.3398 38.1055 86.6953 38.2969 87.1172 38.4766C87.5391 38.6562 88.0273 38.832 88.582 39.0039C89.5117 39.2852 90.3281 39.6016 91.0312 39.9531C91.7422 40.3047 92.3359 40.6992 92.8125 41.1367C93.2891 41.5742 93.6484 42.0703 93.8906 42.625C94.1328 43.1797 94.2539 43.8086 94.2539 44.5117C94.2539 45.2539 94.1094 45.918 93.8203 46.5039C93.5312 47.0898 93.1133 47.5859 92.5664 47.9922C92.0195 48.3984 91.3672 48.707 90.6094 48.918C89.8516 49.1289 89.0039 49.2344 88.0664 49.2344C87.2227 49.2344 86.3906 49.125 85.5703 48.9062C84.75 48.6797 84.0039 48.3398 83.332 47.8867C82.668 47.4336 82.1367 46.8555 81.7383 46.1523C81.3398 45.4492 81.1406 44.6172 81.1406 43.6562H84.668C84.668 44.1875 84.75 44.6367 84.9141 45.0039C85.0781 45.3711 85.3086 45.668 85.6055 45.8945C85.9102 46.1211 86.2695 46.2852 86.6836 46.3867C87.1055 46.4883 87.5664 46.5391 88.0664 46.5391C88.6758 46.5391 89.1758 46.4531 89.5664 46.2812C89.9648 46.1094 90.2578 45.8711 90.4453 45.5664C90.6406 45.2617 90.7383 44.918 90.7383 44.5352ZM99.7266 31V49H96.3516V31H99.7266ZM99.2461 42.2148H98.3203C98.3281 41.332 98.4453 40.5195 98.6719 39.7773C98.8984 39.0273 99.2227 38.3789 99.6445 37.832C100.066 37.2773 100.57 36.8477 101.156 36.543C101.75 36.2383 102.406 36.0859 103.125 36.0859C103.75 36.0859 104.316 36.1758 104.824 36.3555C105.34 36.5273 105.781 36.8086 106.148 37.1992C106.523 37.582 106.812 38.0859 107.016 38.7109C107.219 39.3359 107.32 40.0938 107.32 40.9844V49H103.922V40.9609C103.922 40.3984 103.84 39.957 103.676 39.6367C103.52 39.3086 103.289 39.0781 102.984 38.9453C102.688 38.8047 102.32 38.7344 101.883 38.7344C101.398 38.7344 100.984 38.8242 100.641 39.0039C100.305 39.1836 100.035 39.4336 99.832 39.7539C99.6289 40.0664 99.4805 40.4336 99.3867 40.8555C99.293 41.2773 99.2461 41.7305 99.2461 42.2148ZM116.73 46.1406V40.4922C116.73 40.0859 116.664 39.7383 116.531 39.4492C116.398 39.1523 116.191 38.9219 115.91 38.7578C115.637 38.5938 115.281 38.5117 114.844 38.5117C114.469 38.5117 114.145 38.5781 113.871 38.7109C113.598 38.8359 113.387 39.0195 113.238 39.2617C113.09 39.4961 113.016 39.7734 113.016 40.0938H109.641C109.641 39.5547 109.766 39.043 110.016 38.5586C110.266 38.0742 110.629 37.6484 111.105 37.2812C111.582 36.9062 112.148 36.6133 112.805 36.4023C113.469 36.1914 114.211 36.0859 115.031 36.0859C116.016 36.0859 116.891 36.25 117.656 36.5781C118.422 36.9062 119.023 37.3984 119.461 38.0547C119.906 38.7109 120.129 39.5312 120.129 40.5156V45.9414C120.129 46.6367 120.172 47.207 120.258 47.6523C120.344 48.0898 120.469 48.4727 120.633 48.8008V49H117.223C117.059 48.6562 116.934 48.2266 116.848 47.7109C116.77 47.1875 116.73 46.6641 116.73 46.1406ZM117.176 41.2773L117.199 43.1875H115.312C114.867 43.1875 114.48 43.2383 114.152 43.3398C113.824 43.4414 113.555 43.5859 113.344 43.7734C113.133 43.9531 112.977 44.1641 112.875 44.4062C112.781 44.6484 112.734 44.9141 112.734 45.2031C112.734 45.4922 112.801 45.7539 112.934 45.9883C113.066 46.2148 113.258 46.3945 113.508 46.5273C113.758 46.6523 114.051 46.7148 114.387 46.7148C114.895 46.7148 115.336 46.6133 115.711 46.4102C116.086 46.207 116.375 45.957 116.578 45.6602C116.789 45.3633 116.898 45.082 116.906 44.8164L117.797 46.2461C117.672 46.5664 117.5 46.8984 117.281 47.2422C117.07 47.5859 116.801 47.9102 116.473 48.2148C116.145 48.5117 115.75 48.7578 115.289 48.9531C114.828 49.1406 114.281 49.2344 113.648 49.2344C112.844 49.2344 112.113 49.0742 111.457 48.7539C110.809 48.4258 110.293 47.9766 109.91 47.4062C109.535 46.8281 109.348 46.1719 109.348 45.4375C109.348 44.7734 109.473 44.1836 109.723 43.668C109.973 43.1523 110.34 42.7188 110.824 42.3672C111.316 42.0078 111.93 41.7383 112.664 41.5586C113.398 41.3711 114.25 41.2773 115.219 41.2773H117.176ZM126.105 39.0859V49H122.73V36.3203H125.906L126.105 39.0859ZM129.926 36.2383L129.867 39.3672C129.703 39.3438 129.504 39.3242 129.27 39.3086C129.043 39.2852 128.836 39.2734 128.648 39.2734C128.172 39.2734 127.758 39.3359 127.406 39.4609C127.062 39.5781 126.773 39.7539 126.539 39.9883C126.312 40.2227 126.141 40.5078 126.023 40.8438C125.914 41.1797 125.852 41.5625 125.836 41.9922L125.156 41.7812C125.156 40.9609 125.238 40.207 125.402 39.5195C125.566 38.8242 125.805 38.2188 126.117 37.7031C126.438 37.1875 126.828 36.7891 127.289 36.5078C127.75 36.2266 128.277 36.0859 128.871 36.0859C129.059 36.0859 129.25 36.1016 129.445 36.1328C129.641 36.1562 129.801 36.1914 129.926 36.2383ZM137.121 49.2344C136.137 49.2344 135.254 49.0781 134.473 48.7656C133.691 48.4453 133.027 48.0039 132.48 47.4414C131.941 46.8789 131.527 46.2266 131.238 45.4844C130.949 44.7344 130.805 43.9375 130.805 43.0938V42.625C130.805 41.6641 130.941 40.7852 131.215 39.9883C131.488 39.1914 131.879 38.5 132.387 37.9141C132.902 37.3281 133.527 36.8789 134.262 36.5664C134.996 36.2461 135.824 36.0859 136.746 36.0859C137.645 36.0859 138.441 36.2344 139.137 36.5312C139.832 36.8281 140.414 37.25 140.883 37.7969C141.359 38.3438 141.719 39 141.961 39.7656C142.203 40.5234 142.324 41.3672 142.324 42.2969V43.7031H132.246V41.4531H139.008V41.1953C139.008 40.7266 138.922 40.3086 138.75 39.9414C138.586 39.5664 138.336 39.2695 138 39.0508C137.664 38.832 137.234 38.7227 136.711 38.7227C136.266 38.7227 135.883 38.8203 135.562 39.0156C135.242 39.2109 134.98 39.4844 134.777 39.8359C134.582 40.1875 134.434 40.6016 134.332 41.0781C134.238 41.5469 134.191 42.0625 134.191 42.625V43.0938C134.191 43.6016 134.262 44.0703 134.402 44.5C134.551 44.9297 134.758 45.3008 135.023 45.6133C135.297 45.9258 135.625 46.168 136.008 46.3398C136.398 46.5117 136.84 46.5977 137.332 46.5977C137.941 46.5977 138.508 46.4805 139.031 46.2461C139.562 46.0039 140.02 45.6406 140.402 45.1562L142.043 46.9375C141.777 47.3203 141.414 47.6875 140.953 48.0391C140.5 48.3906 139.953 48.6797 139.312 48.9062C138.672 49.125 137.941 49.2344 137.121 49.2344ZM154.172 31.9375V49H150.668V31.9375H154.172ZM164.742 31.9375V49H161.238V31.9375H164.742ZM169.992 31.9375V34.6914H156.07V31.9375H169.992ZM181.078 31.9375V49H177.574V31.9375H181.078ZM187.465 39.0273V49H184.09V36.3203H187.254L187.465 39.0273ZM186.973 42.2148H186.059C186.059 41.2773 186.18 40.4336 186.422 39.6836C186.664 38.9258 187.004 38.2812 187.441 37.75C187.879 37.2109 188.398 36.8008 189 36.5195C189.609 36.2305 190.289 36.0859 191.039 36.0859C191.633 36.0859 192.176 36.1719 192.668 36.3438C193.16 36.5156 193.582 36.7891 193.934 37.1641C194.293 37.5391 194.566 38.0352 194.754 38.6523C194.949 39.2695 195.047 40.0234 195.047 40.9141V49H191.648V40.9023C191.648 40.3398 191.57 39.9023 191.414 39.5898C191.258 39.2773 191.027 39.0586 190.723 38.9336C190.426 38.8008 190.059 38.7344 189.621 38.7344C189.168 38.7344 188.773 38.8242 188.438 39.0039C188.109 39.1836 187.836 39.4336 187.617 39.7539C187.406 40.0664 187.246 40.4336 187.137 40.8555C187.027 41.2773 186.973 41.7305 186.973 42.2148ZM201.914 49H198.516V35.1953C198.516 34.2344 198.703 33.4258 199.078 32.7695C199.461 32.1055 199.996 31.6055 200.684 31.2695C201.379 30.9258 202.203 30.7539 203.156 30.7539C203.469 30.7539 203.77 30.7773 204.059 30.8242C204.348 30.8633 204.629 30.9141 204.902 30.9766L204.867 33.5195C204.719 33.4805 204.562 33.4531 204.398 33.4375C204.234 33.4219 204.043 33.4141 203.824 33.4141C203.418 33.4141 203.07 33.4844 202.781 33.625C202.5 33.7578 202.285 33.957 202.137 34.2227C201.988 34.4883 201.914 34.8125 201.914 35.1953V49ZM204.445 36.3203V38.7109H196.629V36.3203H204.445ZM205.676 42.7891V42.543C205.676 41.6133 205.809 40.7578 206.074 39.9766C206.34 39.1875 206.727 38.5039 207.234 37.9258C207.742 37.3477 208.367 36.8984 209.109 36.5781C209.852 36.25 210.703 36.0859 211.664 36.0859C212.625 36.0859 213.48 36.25 214.23 36.5781C214.98 36.8984 215.609 37.3477 216.117 37.9258C216.633 38.5039 217.023 39.1875 217.289 39.9766C217.555 40.7578 217.688 41.6133 217.688 42.543V42.7891C217.688 43.7109 217.555 44.5664 217.289 45.3555C217.023 46.1367 216.633 46.8203 216.117 47.4062C215.609 47.9844 214.984 48.4336 214.242 48.7539C213.5 49.0742 212.648 49.2344 211.688 49.2344C210.727 49.2344 209.871 49.0742 209.121 48.7539C208.379 48.4336 207.75 47.9844 207.234 47.4062C206.727 46.8203 206.34 46.1367 206.074 45.3555C205.809 44.5664 205.676 43.7109 205.676 42.7891ZM209.051 42.543V42.7891C209.051 43.3203 209.098 43.8164 209.191 44.2773C209.285 44.7383 209.434 45.1445 209.637 45.4961C209.848 45.8398 210.121 46.1094 210.457 46.3047C210.793 46.5 211.203 46.5977 211.688 46.5977C212.156 46.5977 212.559 46.5 212.895 46.3047C213.23 46.1094 213.5 45.8398 213.703 45.4961C213.906 45.1445 214.055 44.7383 214.148 44.2773C214.25 43.8164 214.301 43.3203 214.301 42.7891V42.543C214.301 42.0273 214.25 41.543 214.148 41.0898C214.055 40.6289 213.902 40.2227 213.691 39.8711C213.488 39.5117 213.219 39.2305 212.883 39.0273C212.547 38.8242 212.141 38.7227 211.664 38.7227C211.188 38.7227 210.781 38.8242 210.445 39.0273C210.117 39.2305 209.848 39.5117 209.637 39.8711C209.434 40.2227 209.285 40.6289 209.191 41.0898C209.098 41.543 209.051 42.0273 209.051 42.543ZM223.137 39.0859V49H219.762V36.3203H222.938L223.137 39.0859ZM226.957 36.2383L226.898 39.3672C226.734 39.3438 226.535 39.3242 226.301 39.3086C226.074 39.2852 225.867 39.2734 225.68 39.2734C225.203 39.2734 224.789 39.3359 224.438 39.4609C224.094 39.5781 223.805 39.7539 223.57 39.9883C223.344 40.2227 223.172 40.5078 223.055 40.8438C222.945 41.1797 222.883 41.5625 222.867 41.9922L222.188 41.7812C222.188 40.9609 222.27 40.207 222.434 39.5195C222.598 38.8242 222.836 38.2188 223.148 37.7031C223.469 37.1875 223.859 36.7891 224.32 36.5078C224.781 36.2266 225.309 36.0859 225.902 36.0859C226.09 36.0859 226.281 36.1016 226.477 36.1328C226.672 36.1562 226.832 36.1914 226.957 36.2383ZM231.926 38.9453V49H228.539V36.3203H231.715L231.926 38.9453ZM231.457 42.2148H230.52C230.52 41.332 230.625 40.5195 230.836 39.7773C231.055 39.0273 231.371 38.3789 231.785 37.832C232.207 37.2773 232.727 36.8477 233.344 36.543C233.961 36.2383 234.676 36.0859 235.488 36.0859C236.051 36.0859 236.566 36.1719 237.035 36.3438C237.504 36.5078 237.906 36.7695 238.242 37.1289C238.586 37.4805 238.852 37.9414 239.039 38.5117C239.227 39.0742 239.32 39.75 239.32 40.5391V49H235.945V40.9141C235.945 40.3359 235.867 39.8906 235.711 39.5781C235.555 39.2656 235.332 39.0469 235.043 38.9219C234.762 38.7969 234.422 38.7344 234.023 38.7344C233.586 38.7344 233.203 38.8242 232.875 39.0039C232.555 39.1836 232.289 39.4336 232.078 39.7539C231.867 40.0664 231.711 40.4336 231.609 40.8555C231.508 41.2773 231.457 41.7305 231.457 42.2148ZM239.004 41.8281L237.797 41.9805C237.797 41.1523 237.898 40.3828 238.102 39.6719C238.312 38.9609 238.621 38.3359 239.027 37.7969C239.441 37.2578 239.953 36.8398 240.562 36.543C241.172 36.2383 241.875 36.0859 242.672 36.0859C243.281 36.0859 243.836 36.1758 244.336 36.3555C244.836 36.5273 245.262 36.8047 245.613 37.1875C245.973 37.5625 246.246 38.0547 246.434 38.6641C246.629 39.2734 246.727 40.0195 246.727 40.9023V49H243.34V40.9023C243.34 40.3164 243.262 39.8711 243.105 39.5664C242.957 39.2539 242.738 39.0391 242.449 38.9219C242.168 38.7969 241.832 38.7344 241.441 38.7344C241.035 38.7344 240.68 38.8164 240.375 38.9805C240.07 39.1367 239.816 39.3555 239.613 39.6367C239.41 39.918 239.258 40.2461 239.156 40.6211C239.055 40.9883 239.004 41.3906 239.004 41.8281ZM256.184 46.1406V40.4922C256.184 40.0859 256.117 39.7383 255.984 39.4492C255.852 39.1523 255.645 38.9219 255.363 38.7578C255.09 38.5938 254.734 38.5117 254.297 38.5117C253.922 38.5117 253.598 38.5781 253.324 38.7109C253.051 38.8359 252.84 39.0195 252.691 39.2617C252.543 39.4961 252.469 39.7734 252.469 40.0938H249.094C249.094 39.5547 249.219 39.043 249.469 38.5586C249.719 38.0742 250.082 37.6484 250.559 37.2812C251.035 36.9062 251.602 36.6133 252.258 36.4023C252.922 36.1914 253.664 36.0859 254.484 36.0859C255.469 36.0859 256.344 36.25 257.109 36.5781C257.875 36.9062 258.477 37.3984 258.914 38.0547C259.359 38.7109 259.582 39.5312 259.582 40.5156V45.9414C259.582 46.6367 259.625 47.207 259.711 47.6523C259.797 48.0898 259.922 48.4727 260.086 48.8008V49H256.676C256.512 48.6562 256.387 48.2266 256.301 47.7109C256.223 47.1875 256.184 46.6641 256.184 46.1406ZM256.629 41.2773L256.652 43.1875H254.766C254.32 43.1875 253.934 43.2383 253.605 43.3398C253.277 43.4414 253.008 43.5859 252.797 43.7734C252.586 43.9531 252.43 44.1641 252.328 44.4062C252.234 44.6484 252.188 44.9141 252.188 45.2031C252.188 45.4922 252.254 45.7539 252.387 45.9883C252.52 46.2148 252.711 46.3945 252.961 46.5273C253.211 46.6523 253.504 46.7148 253.84 46.7148C254.348 46.7148 254.789 46.6133 255.164 46.4102C255.539 46.207 255.828 45.957 256.031 45.6602C256.242 45.3633 256.352 45.082 256.359 44.8164L257.25 46.2461C257.125 46.5664 256.953 46.8984 256.734 47.2422C256.523 47.5859 256.254 47.9102 255.926 48.2148C255.598 48.5117 255.203 48.7578 254.742 48.9531C254.281 49.1406 253.734 49.2344 253.102 49.2344C252.297 49.2344 251.566 49.0742 250.91 48.7539C250.262 48.4258 249.746 47.9766 249.363 47.4062C248.988 46.8281 248.801 46.1719 248.801 45.4375C248.801 44.7734 248.926 44.1836 249.176 43.668C249.426 43.1523 249.793 42.7188 250.277 42.3672C250.77 42.0078 251.383 41.7383 252.117 41.5586C252.852 41.3711 253.703 41.2773 254.672 41.2773H256.629ZM268.395 36.3203V38.7109H261.012V36.3203H268.395ZM262.84 33.1914H266.215V45.1797C266.215 45.5469 266.262 45.8281 266.355 46.0234C266.457 46.2188 266.605 46.3555 266.801 46.4336C266.996 46.5039 267.242 46.5391 267.539 46.5391C267.75 46.5391 267.938 46.5312 268.102 46.5156C268.273 46.4922 268.418 46.4688 268.535 46.4453L268.547 48.9297C268.258 49.0234 267.945 49.0977 267.609 49.1523C267.273 49.207 266.902 49.2344 266.496 49.2344C265.754 49.2344 265.105 49.1133 264.551 48.8711C264.004 48.6211 263.582 48.2227 263.285 47.6758C262.988 47.1289 262.84 46.4102 262.84 45.5195V33.1914ZM273.879 36.3203V49H270.492V36.3203H273.879ZM270.281 33.0156C270.281 32.5234 270.453 32.1172 270.797 31.7969C271.141 31.4766 271.602 31.3164 272.18 31.3164C272.75 31.3164 273.207 31.4766 273.551 31.7969C273.902 32.1172 274.078 32.5234 274.078 33.0156C274.078 33.5078 273.902 33.9141 273.551 34.2344C273.207 34.5547 272.75 34.7148 272.18 34.7148C271.602 34.7148 271.141 34.5547 270.797 34.2344C270.453 33.9141 270.281 33.5078 270.281 33.0156ZM276.129 42.7891V42.543C276.129 41.6133 276.262 40.7578 276.527 39.9766C276.793 39.1875 277.18 38.5039 277.688 37.9258C278.195 37.3477 278.82 36.8984 279.562 36.5781C280.305 36.25 281.156 36.0859 282.117 36.0859C283.078 36.0859 283.934 36.25 284.684 36.5781C285.434 36.8984 286.062 37.3477 286.57 37.9258C287.086 38.5039 287.477 39.1875 287.742 39.9766C288.008 40.7578 288.141 41.6133 288.141 42.543V42.7891C288.141 43.7109 288.008 44.5664 287.742 45.3555C287.477 46.1367 287.086 46.8203 286.57 47.4062C286.062 47.9844 285.438 48.4336 284.695 48.7539C283.953 49.0742 283.102 49.2344 282.141 49.2344C281.18 49.2344 280.324 49.0742 279.574 48.7539C278.832 48.4336 278.203 47.9844 277.688 47.4062C277.18 46.8203 276.793 46.1367 276.527 45.3555C276.262 44.5664 276.129 43.7109 276.129 42.7891ZM279.504 42.543V42.7891C279.504 43.3203 279.551 43.8164 279.645 44.2773C279.738 44.7383 279.887 45.1445 280.09 45.4961C280.301 45.8398 280.574 46.1094 280.91 46.3047C281.246 46.5 281.656 46.5977 282.141 46.5977C282.609 46.5977 283.012 46.5 283.348 46.3047C283.684 46.1094 283.953 45.8398 284.156 45.4961C284.359 45.1445 284.508 44.7383 284.602 44.2773C284.703 43.8164 284.754 43.3203 284.754 42.7891V42.543C284.754 42.0273 284.703 41.543 284.602 41.0898C284.508 40.6289 284.355 40.2227 284.145 39.8711C283.941 39.5117 283.672 39.2305 283.336 39.0273C283 38.8242 282.594 38.7227 282.117 38.7227C281.641 38.7227 281.234 38.8242 280.898 39.0273C280.57 39.2305 280.301 39.5117 280.09 39.8711C279.887 40.2227 279.738 40.6289 279.645 41.0898C279.551 41.543 279.504 42.0273 279.504 42.543ZM293.52 39.0273V49H290.145V36.3203H293.309L293.52 39.0273ZM293.027 42.2148H292.113C292.113 41.2773 292.234 40.4336 292.477 39.6836C292.719 38.9258 293.059 38.2812 293.496 37.75C293.934 37.2109 294.453 36.8008 295.055 36.5195C295.664 36.2305 296.344 36.0859 297.094 36.0859C297.688 36.0859 298.23 36.1719 298.723 36.3438C299.215 36.5156 299.637 36.7891 299.988 37.1641C300.348 37.5391 300.621 38.0352 300.809 38.6523C301.004 39.2695 301.102 40.0234 301.102 40.9141V49H297.703V40.9023C297.703 40.3398 297.625 39.9023 297.469 39.5898C297.312 39.2773 297.082 39.0586 296.777 38.9336C296.48 38.8008 296.113 38.7344 295.676 38.7344C295.223 38.7344 294.828 38.8242 294.492 39.0039C294.164 39.1836 293.891 39.4336 293.672 39.7539C293.461 40.0664 293.301 40.4336 293.191 40.8555C293.082 41.2773 293.027 41.7305 293.027 42.2148ZM323.871 40.0703V40.8789C323.871 42.1758 323.695 43.3398 323.344 44.3711C322.992 45.4023 322.496 46.2812 321.855 47.0078C321.215 47.7266 320.449 48.2773 319.559 48.6602C318.676 49.043 317.695 49.2344 316.617 49.2344C315.547 49.2344 314.566 49.043 313.676 48.6602C312.793 48.2773 312.027 47.7266 311.379 47.0078C310.73 46.2812 310.227 45.4023 309.867 44.3711C309.516 43.3398 309.34 42.1758 309.34 40.8789V40.0703C309.34 38.7656 309.516 37.6016 309.867 36.5781C310.219 35.5469 310.715 34.668 311.355 33.9414C312.004 33.2148 312.77 32.6602 313.652 32.2773C314.543 31.8945 315.523 31.7031 316.594 31.7031C317.672 31.7031 318.652 31.8945 319.535 32.2773C320.426 32.6602 321.191 33.2148 321.832 33.9414C322.48 34.668 322.98 35.5469 323.332 36.5781C323.691 37.6016 323.871 38.7656 323.871 40.0703ZM320.32 40.8789V40.0469C320.32 39.1406 320.238 38.3438 320.074 37.6562C319.91 36.9688 319.668 36.3906 319.348 35.9219C319.027 35.4531 318.637 35.1016 318.176 34.8672C317.715 34.625 317.188 34.5039 316.594 34.5039C316 34.5039 315.473 34.625 315.012 34.8672C314.559 35.1016 314.172 35.4531 313.852 35.9219C313.539 36.3906 313.301 36.9688 313.137 37.6562C312.973 38.3438 312.891 39.1406 312.891 40.0469V40.8789C312.891 41.7773 312.973 42.5742 313.137 43.2695C313.301 43.957 313.543 44.5391 313.863 45.0156C314.184 45.4844 314.574 45.8398 315.035 46.082C315.496 46.3242 316.023 46.4453 316.617 46.4453C317.211 46.4453 317.738 46.3242 318.199 46.082C318.66 45.8398 319.047 45.4844 319.359 45.0156C319.672 44.5391 319.91 43.957 320.074 43.2695C320.238 42.5742 320.32 41.7773 320.32 40.8789ZM329.566 39.0859V49H326.191V36.3203H329.367L329.566 39.0859ZM333.387 36.2383L333.328 39.3672C333.164 39.3438 332.965 39.3242 332.73 39.3086C332.504 39.2852 332.297 39.2734 332.109 39.2734C331.633 39.2734 331.219 39.3359 330.867 39.4609C330.523 39.5781 330.234 39.7539 330 39.9883C329.773 40.2227 329.602 40.5078 329.484 40.8438C329.375 41.1797 329.312 41.5625 329.297 41.9922L328.617 41.7812C328.617 40.9609 328.699 40.207 328.863 39.5195C329.027 38.8242 329.266 38.2188 329.578 37.7031C329.898 37.1875 330.289 36.7891 330.75 36.5078C331.211 36.2266 331.738 36.0859 332.332 36.0859C332.52 36.0859 332.711 36.1016 332.906 36.1328C333.102 36.1562 333.262 36.1914 333.387 36.2383ZM117.891 77.5352C117.891 77.2305 117.844 76.957 117.75 76.7148C117.664 76.4648 117.5 76.2383 117.258 76.0352C117.016 75.8242 116.676 75.6172 116.238 75.4141C115.801 75.2109 115.234 75 114.539 74.7812C113.766 74.5312 113.031 74.25 112.336 73.9375C111.648 73.625 111.039 73.2617 110.508 72.8477C109.984 72.4258 109.57 71.9375 109.266 71.3828C108.969 70.8281 108.82 70.1836 108.82 69.4492C108.82 68.7383 108.977 68.0938 109.289 67.5156C109.602 66.9297 110.039 66.4297 110.602 66.0156C111.164 65.5938 111.828 65.2695 112.594 65.043C113.367 64.8164 114.215 64.7031 115.137 64.7031C116.395 64.7031 117.492 64.9297 118.43 65.3828C119.367 65.8359 120.094 66.457 120.609 67.2461C121.133 68.0352 121.395 68.9375 121.395 69.9531H117.902C117.902 69.4531 117.797 69.0156 117.586 68.6406C117.383 68.2578 117.07 67.957 116.648 67.7383C116.234 67.5195 115.711 67.4102 115.078 67.4102C114.469 67.4102 113.961 67.5039 113.555 67.6914C113.148 67.8711 112.844 68.1172 112.641 68.4297C112.438 68.7344 112.336 69.0781 112.336 69.4609C112.336 69.75 112.406 70.0117 112.547 70.2461C112.695 70.4805 112.914 70.6992 113.203 70.9023C113.492 71.1055 113.848 71.2969 114.27 71.4766C114.691 71.6562 115.18 71.832 115.734 72.0039C116.664 72.2852 117.48 72.6016 118.184 72.9531C118.895 73.3047 119.488 73.6992 119.965 74.1367C120.441 74.5742 120.801 75.0703 121.043 75.625C121.285 76.1797 121.406 76.8086 121.406 77.5117C121.406 78.2539 121.262 78.918 120.973 79.5039C120.684 80.0898 120.266 80.5859 119.719 80.9922C119.172 81.3984 118.52 81.707 117.762 81.918C117.004 82.1289 116.156 82.2344 115.219 82.2344C114.375 82.2344 113.543 82.125 112.723 81.9062C111.902 81.6797 111.156 81.3398 110.484 80.8867C109.82 80.4336 109.289 79.8555 108.891 79.1523C108.492 78.4492 108.293 77.6172 108.293 76.6562H111.82C111.82 77.1875 111.902 77.6367 112.066 78.0039C112.23 78.3711 112.461 78.668 112.758 78.8945C113.062 79.1211 113.422 79.2852 113.836 79.3867C114.258 79.4883 114.719 79.5391 115.219 79.5391C115.828 79.5391 116.328 79.4531 116.719 79.2812C117.117 79.1094 117.41 78.8711 117.598 78.5664C117.793 78.2617 117.891 77.918 117.891 77.5352ZM126.879 64V82H123.504V64H126.879ZM126.398 75.2148H125.473C125.48 74.332 125.598 73.5195 125.824 72.7773C126.051 72.0273 126.375 71.3789 126.797 70.832C127.219 70.2773 127.723 69.8477 128.309 69.543C128.902 69.2383 129.559 69.0859 130.277 69.0859C130.902 69.0859 131.469 69.1758 131.977 69.3555C132.492 69.5273 132.934 69.8086 133.301 70.1992C133.676 70.582 133.965 71.0859 134.168 71.7109C134.371 72.3359 134.473 73.0938 134.473 73.9844V82H131.074V73.9609C131.074 73.3984 130.992 72.957 130.828 72.6367C130.672 72.3086 130.441 72.0781 130.137 71.9453C129.84 71.8047 129.473 71.7344 129.035 71.7344C128.551 71.7344 128.137 71.8242 127.793 72.0039C127.457 72.1836 127.188 72.4336 126.984 72.7539C126.781 73.0664 126.633 73.4336 126.539 73.8555C126.445 74.2773 126.398 74.7305 126.398 75.2148ZM143.883 79.1406V73.4922C143.883 73.0859 143.816 72.7383 143.684 72.4492C143.551 72.1523 143.344 71.9219 143.062 71.7578C142.789 71.5938 142.434 71.5117 141.996 71.5117C141.621 71.5117 141.297 71.5781 141.023 71.7109C140.75 71.8359 140.539 72.0195 140.391 72.2617C140.242 72.4961 140.168 72.7734 140.168 73.0938H136.793C136.793 72.5547 136.918 72.043 137.168 71.5586C137.418 71.0742 137.781 70.6484 138.258 70.2812C138.734 69.9062 139.301 69.6133 139.957 69.4023C140.621 69.1914 141.363 69.0859 142.184 69.0859C143.168 69.0859 144.043 69.25 144.809 69.5781C145.574 69.9062 146.176 70.3984 146.613 71.0547C147.059 71.7109 147.281 72.5312 147.281 73.5156V78.9414C147.281 79.6367 147.324 80.207 147.41 80.6523C147.496 81.0898 147.621 81.4727 147.785 81.8008V82H144.375C144.211 81.6562 144.086 81.2266 144 80.7109C143.922 80.1875 143.883 79.6641 143.883 79.1406ZM144.328 74.2773L144.352 76.1875H142.465C142.02 76.1875 141.633 76.2383 141.305 76.3398C140.977 76.4414 140.707 76.5859 140.496 76.7734C140.285 76.9531 140.129 77.1641 140.027 77.4062C139.934 77.6484 139.887 77.9141 139.887 78.2031C139.887 78.4922 139.953 78.7539 140.086 78.9883C140.219 79.2148 140.41 79.3945 140.66 79.5273C140.91 79.6523 141.203 79.7148 141.539 79.7148C142.047 79.7148 142.488 79.6133 142.863 79.4102C143.238 79.207 143.527 78.957 143.73 78.6602C143.941 78.3633 144.051 78.082 144.059 77.8164L144.949 79.2461C144.824 79.5664 144.652 79.8984 144.434 80.2422C144.223 80.5859 143.953 80.9102 143.625 81.2148C143.297 81.5117 142.902 81.7578 142.441 81.9531C141.98 82.1406 141.434 82.2344 140.801 82.2344C139.996 82.2344 139.266 82.0742 138.609 81.7539C137.961 81.4258 137.445 80.9766 137.062 80.4062C136.688 79.8281 136.5 79.1719 136.5 78.4375C136.5 77.7734 136.625 77.1836 136.875 76.668C137.125 76.1523 137.492 75.7188 137.977 75.3672C138.469 75.0078 139.082 74.7383 139.816 74.5586C140.551 74.3711 141.402 74.2773 142.371 74.2773H144.328ZM153.258 72.0859V82H149.883V69.3203H153.059L153.258 72.0859ZM157.078 69.2383L157.02 72.3672C156.855 72.3438 156.656 72.3242 156.422 72.3086C156.195 72.2852 155.988 72.2734 155.801 72.2734C155.324 72.2734 154.91 72.3359 154.559 72.4609C154.215 72.5781 153.926 72.7539 153.691 72.9883C153.465 73.2227 153.293 73.5078 153.176 73.8438C153.066 74.1797 153.004 74.5625 152.988 74.9922L152.309 74.7812C152.309 73.9609 152.391 73.207 152.555 72.5195C152.719 71.8242 152.957 71.2188 153.27 70.7031C153.59 70.1875 153.98 69.7891 154.441 69.5078C154.902 69.2266 155.43 69.0859 156.023 69.0859C156.211 69.0859 156.402 69.1016 156.598 69.1328C156.793 69.1562 156.953 69.1914 157.078 69.2383ZM164.273 82.2344C163.289 82.2344 162.406 82.0781 161.625 81.7656C160.844 81.4453 160.18 81.0039 159.633 80.4414C159.094 79.8789 158.68 79.2266 158.391 78.4844C158.102 77.7344 157.957 76.9375 157.957 76.0938V75.625C157.957 74.6641 158.094 73.7852 158.367 72.9883C158.641 72.1914 159.031 71.5 159.539 70.9141C160.055 70.3281 160.68 69.8789 161.414 69.5664C162.148 69.2461 162.977 69.0859 163.898 69.0859C164.797 69.0859 165.594 69.2344 166.289 69.5312C166.984 69.8281 167.566 70.25 168.035 70.7969C168.512 71.3438 168.871 72 169.113 72.7656C169.355 73.5234 169.477 74.3672 169.477 75.2969V76.7031H159.398V74.4531H166.16V74.1953C166.16 73.7266 166.074 73.3086 165.902 72.9414C165.738 72.5664 165.488 72.2695 165.152 72.0508C164.816 71.832 164.387 71.7227 163.863 71.7227C163.418 71.7227 163.035 71.8203 162.715 72.0156C162.395 72.2109 162.133 72.4844 161.93 72.8359C161.734 73.1875 161.586 73.6016 161.484 74.0781C161.391 74.5469 161.344 75.0625 161.344 75.625V76.0938C161.344 76.6016 161.414 77.0703 161.555 77.5C161.703 77.9297 161.91 78.3008 162.176 78.6133C162.449 78.9258 162.777 79.168 163.16 79.3398C163.551 79.5117 163.992 79.5977 164.484 79.5977C165.094 79.5977 165.66 79.4805 166.184 79.2461C166.715 79.0039 167.172 78.6406 167.555 78.1562L169.195 79.9375C168.93 80.3203 168.566 80.6875 168.105 81.0391C167.652 81.3906 167.105 81.6797 166.465 81.9062C165.824 82.125 165.094 82.2344 164.273 82.2344ZM179.93 64.9375L183.492 72.7188L187.055 64.9375H190.887L185.273 75.7891V82H181.711V75.7891L176.086 64.9375H179.93ZM190.922 75.7891V75.543C190.922 74.6133 191.055 73.7578 191.32 72.9766C191.586 72.1875 191.973 71.5039 192.48 70.9258C192.988 70.3477 193.613 69.8984 194.355 69.5781C195.098 69.25 195.949 69.0859 196.91 69.0859C197.871 69.0859 198.727 69.25 199.477 69.5781C200.227 69.8984 200.855 70.3477 201.363 70.9258C201.879 71.5039 202.27 72.1875 202.535 72.9766C202.801 73.7578 202.934 74.6133 202.934 75.543V75.7891C202.934 76.7109 202.801 77.5664 202.535 78.3555C202.27 79.1367 201.879 79.8203 201.363 80.4062C200.855 80.9844 200.23 81.4336 199.488 81.7539C198.746 82.0742 197.895 82.2344 196.934 82.2344C195.973 82.2344 195.117 82.0742 194.367 81.7539C193.625 81.4336 192.996 80.9844 192.48 80.4062C191.973 79.8203 191.586 79.1367 191.32 78.3555C191.055 77.5664 190.922 76.7109 190.922 75.7891ZM194.297 75.543V75.7891C194.297 76.3203 194.344 76.8164 194.438 77.2773C194.531 77.7383 194.68 78.1445 194.883 78.4961C195.094 78.8398 195.367 79.1094 195.703 79.3047C196.039 79.5 196.449 79.5977 196.934 79.5977C197.402 79.5977 197.805 79.5 198.141 79.3047C198.477 79.1094 198.746 78.8398 198.949 78.4961C199.152 78.1445 199.301 77.7383 199.395 77.2773C199.496 76.8164 199.547 76.3203 199.547 75.7891V75.543C199.547 75.0273 199.496 74.543 199.395 74.0898C199.301 73.6289 199.148 73.2227 198.938 72.8711C198.734 72.5117 198.465 72.2305 198.129 72.0273C197.793 71.8242 197.387 71.7227 196.91 71.7227C196.434 71.7227 196.027 71.8242 195.691 72.0273C195.363 72.2305 195.094 72.5117 194.883 72.8711C194.68 73.2227 194.531 73.6289 194.438 74.0898C194.344 74.543 194.297 75.0273 194.297 75.543ZM212.508 78.9648V69.3203H215.883V82H212.707L212.508 78.9648ZM212.883 76.3633L213.879 76.3398C213.879 77.1836 213.781 77.9688 213.586 78.6953C213.391 79.4141 213.098 80.0391 212.707 80.5703C212.316 81.0938 211.824 81.5039 211.23 81.8008C210.637 82.0898 209.938 82.2344 209.133 82.2344C208.516 82.2344 207.945 82.1484 207.422 81.9766C206.906 81.7969 206.461 81.5195 206.086 81.1445C205.719 80.7617 205.43 80.2734 205.219 79.6797C205.016 79.0781 204.914 78.3555 204.914 77.5117V69.3203H208.289V77.5352C208.289 77.9102 208.332 78.2266 208.418 78.4844C208.512 78.7422 208.641 78.9531 208.805 79.1172C208.969 79.2812 209.16 79.3984 209.379 79.4688C209.605 79.5391 209.855 79.5742 210.129 79.5742C210.824 79.5742 211.371 79.4336 211.77 79.1523C212.176 78.8711 212.461 78.4883 212.625 78.0039C212.797 77.5117 212.883 76.9648 212.883 76.3633ZM221.836 72.0859V82H218.461V69.3203H221.637L221.836 72.0859ZM225.656 69.2383L225.598 72.3672C225.434 72.3438 225.234 72.3242 225 72.3086C224.773 72.2852 224.566 72.2734 224.379 72.2734C223.902 72.2734 223.488 72.3359 223.137 72.4609C222.793 72.5781 222.504 72.7539 222.27 72.9883C222.043 73.2227 221.871 73.5078 221.754 73.8438C221.645 74.1797 221.582 74.5625 221.566 74.9922L220.887 74.7812C220.887 73.9609 220.969 73.207 221.133 72.5195C221.297 71.8242 221.535 71.2188 221.848 70.7031C222.168 70.1875 222.559 69.7891 223.02 69.5078C223.48 69.2266 224.008 69.0859 224.602 69.0859C224.789 69.0859 224.98 69.1016 225.176 69.1328C225.371 69.1562 225.531 69.1914 225.656 69.2383ZM237.551 79.293L240.949 64.9375H242.848L243.281 67.3281L239.66 82H237.621L237.551 79.293ZM235.805 64.9375L238.617 79.293L238.383 82H236.109L232.324 64.9375H235.805ZM246.27 79.2344L249.047 64.9375H252.527L248.754 82H246.48L246.27 79.2344ZM243.914 64.9375L247.336 79.3516L247.242 82H245.203L241.559 67.3164L242.027 64.9375H243.914ZM253.312 75.7891V75.543C253.312 74.6133 253.445 73.7578 253.711 72.9766C253.977 72.1875 254.363 71.5039 254.871 70.9258C255.379 70.3477 256.004 69.8984 256.746 69.5781C257.488 69.25 258.34 69.0859 259.301 69.0859C260.262 69.0859 261.117 69.25 261.867 69.5781C262.617 69.8984 263.246 70.3477 263.754 70.9258C264.27 71.5039 264.66 72.1875 264.926 72.9766C265.191 73.7578 265.324 74.6133 265.324 75.543V75.7891C265.324 76.7109 265.191 77.5664 264.926 78.3555C264.66 79.1367 264.27 79.8203 263.754 80.4062C263.246 80.9844 262.621 81.4336 261.879 81.7539C261.137 82.0742 260.285 82.2344 259.324 82.2344C258.363 82.2344 257.508 82.0742 256.758 81.7539C256.016 81.4336 255.387 80.9844 254.871 80.4062C254.363 79.8203 253.977 79.1367 253.711 78.3555C253.445 77.5664 253.312 76.7109 253.312 75.7891ZM256.688 75.543V75.7891C256.688 76.3203 256.734 76.8164 256.828 77.2773C256.922 77.7383 257.07 78.1445 257.273 78.4961C257.484 78.8398 257.758 79.1094 258.094 79.3047C258.43 79.5 258.84 79.5977 259.324 79.5977C259.793 79.5977 260.195 79.5 260.531 79.3047C260.867 79.1094 261.137 78.8398 261.34 78.4961C261.543 78.1445 261.691 77.7383 261.785 77.2773C261.887 76.8164 261.938 76.3203 261.938 75.7891V75.543C261.938 75.0273 261.887 74.543 261.785 74.0898C261.691 73.6289 261.539 73.2227 261.328 72.8711C261.125 72.5117 260.855 72.2305 260.52 72.0273C260.184 71.8242 259.777 71.7227 259.301 71.7227C258.824 71.7227 258.418 71.8242 258.082 72.0273C257.754 72.2305 257.484 72.5117 257.273 72.8711C257.07 73.2227 256.922 73.6289 256.828 74.0898C256.734 74.543 256.688 75.0273 256.688 75.543ZM270.773 72.0859V82H267.398V69.3203H270.574L270.773 72.0859ZM274.594 69.2383L274.535 72.3672C274.371 72.3438 274.172 72.3242 273.938 72.3086C273.711 72.2852 273.504 72.2734 273.316 72.2734C272.84 72.2734 272.426 72.3359 272.074 72.4609C271.73 72.5781 271.441 72.7539 271.207 72.9883C270.98 73.2227 270.809 73.5078 270.691 73.8438C270.582 74.1797 270.52 74.5625 270.504 74.9922L269.824 74.7812C269.824 73.9609 269.906 73.207 270.07 72.5195C270.234 71.8242 270.473 71.2188 270.785 70.7031C271.105 70.1875 271.496 69.7891 271.957 69.5078C272.418 69.2266 272.945 69.0859 273.539 69.0859C273.727 69.0859 273.918 69.1016 274.113 69.1328C274.309 69.1562 274.469 69.1914 274.594 69.2383ZM279.562 63.9883V82H276.188V63.9883H279.562ZM287.555 69.3203L282.047 75.6016L279.094 78.5898L277.863 76.1523L280.207 73.1758L283.5 69.3203H287.555ZM284.051 82L280.301 76.1406L282.633 74.1016L287.941 82H284.051ZM295.863 78.4961C295.863 78.2539 295.793 78.0352 295.652 77.8398C295.512 77.6445 295.25 77.4648 294.867 77.3008C294.492 77.1289 293.949 76.9727 293.238 76.832C292.598 76.6914 292 76.5156 291.445 76.3047C290.898 76.0859 290.422 75.8242 290.016 75.5195C289.617 75.2148 289.305 74.8555 289.078 74.4414C288.852 74.0195 288.738 73.5391 288.738 73C288.738 72.4688 288.852 71.9688 289.078 71.5C289.312 71.0312 289.645 70.6172 290.074 70.2578C290.512 69.8906 291.043 69.6055 291.668 69.4023C292.301 69.1914 293.012 69.0859 293.801 69.0859C294.902 69.0859 295.848 69.2617 296.637 69.6133C297.434 69.9648 298.043 70.4492 298.465 71.0664C298.895 71.6758 299.109 72.3711 299.109 73.1523H295.734C295.734 72.8242 295.664 72.5312 295.523 72.2734C295.391 72.0078 295.18 71.8008 294.891 71.6523C294.609 71.4961 294.242 71.418 293.789 71.418C293.414 71.418 293.09 71.4844 292.816 71.6172C292.543 71.7422 292.332 71.9141 292.184 72.1328C292.043 72.3438 291.973 72.5781 291.973 72.8359C291.973 73.0312 292.012 73.207 292.09 73.3633C292.176 73.5117 292.312 73.6484 292.5 73.7734C292.688 73.8984 292.93 74.0156 293.227 74.125C293.531 74.2266 293.906 74.3203 294.352 74.4062C295.266 74.5938 296.082 74.8398 296.801 75.1445C297.52 75.4414 298.09 75.8477 298.512 76.3633C298.934 76.8711 299.145 77.5391 299.145 78.3672C299.145 78.9297 299.02 79.4453 298.77 79.9141C298.52 80.3828 298.16 80.793 297.691 81.1445C297.223 81.4883 296.66 81.7578 296.004 81.9531C295.355 82.1406 294.625 82.2344 293.812 82.2344C292.633 82.2344 291.633 82.0234 290.812 81.6016C290 81.1797 289.383 80.6445 288.961 79.9961C288.547 79.3398 288.34 78.668 288.34 77.9805H291.539C291.555 78.4414 291.672 78.8125 291.891 79.0938C292.117 79.375 292.402 79.5781 292.746 79.7031C293.098 79.8281 293.477 79.8906 293.883 79.8906C294.32 79.8906 294.684 79.832 294.973 79.7148C295.262 79.5898 295.48 79.4258 295.629 79.2227C295.785 79.0117 295.863 78.7695 295.863 78.4961ZM305.145 64.9375L304.758 76.7852H301.945L301.547 64.9375H305.145ZM301.453 80.4531C301.453 79.9531 301.625 79.5391 301.969 79.2109C302.32 78.875 302.781 78.707 303.352 78.707C303.93 78.707 304.391 78.875 304.734 79.2109C305.078 79.5391 305.25 79.9531 305.25 80.4531C305.25 80.9375 305.078 81.3477 304.734 81.6836C304.391 82.0195 303.93 82.1875 303.352 82.1875C302.781 82.1875 302.32 82.0195 301.969 81.6836C301.625 81.3477 301.453 80.9375 301.453 80.4531Z" fill="white"/>
</g>
<g clip-path="url(#clip0_787_7666)">
<path d="M190.051 184.037C196.963 184.037 202.566 176.641 202.566 167.518C202.566 158.395 196.963 151 190.051 151C183.139 151 177.536 158.395 177.536 167.518C177.536 176.641 183.139 184.037 190.051 184.037Z" fill="#E6E6E6"/>
<path d="M186.67 191.64L189.748 194.158V177.138L186.298 174.315C186.012 174.082 185.804 173.716 185.714 173.289V173.289C186.043 173.206 186.385 173.289 186.67 173.523L189.748 176.041V169.441C189.748 168.164 189.867 166.892 190.102 165.653C190.336 166.892 190.455 168.164 190.455 169.441V180.213L194.996 176.498C195.359 176.202 195.779 176.049 196.205 176.058C196.022 176.566 195.731 176.994 195.369 177.291L190.455 181.31V221.901H189.748V195.255L186.298 192.432C186.012 192.199 185.804 191.833 185.714 191.406V191.406C186.043 191.323 186.385 191.406 186.67 191.64V191.64Z" fill="#CCCCCC"/>
<path d="M171.515 185.439C178.427 185.439 184.03 178.044 184.03 168.921C184.03 159.798 178.427 152.402 171.515 152.402C164.603 152.402 159 159.798 159 168.921C159 178.044 164.603 185.439 171.515 185.439Z" fill="#E6E6E6"/>
<path d="M174.896 193.042L171.818 195.56V178.54L175.268 175.718C175.554 175.484 175.762 175.118 175.852 174.692C175.523 174.608 175.182 174.692 174.896 174.925L171.818 177.443V170.843C171.818 169.566 171.699 168.294 171.465 167.056C171.23 168.294 171.111 169.566 171.111 170.843V181.615L166.57 177.901C166.207 177.604 165.787 177.451 165.361 177.461C165.544 177.969 165.835 178.397 166.198 178.693L171.111 182.712V221.65H171.818V196.657L175.268 193.835C175.554 193.602 175.762 193.235 175.852 192.809C175.523 192.726 175.182 192.809 174.896 193.042Z" fill="#CCCCCC"/>
<path d="M180.606 162.881C192.506 162.881 202.153 150.148 202.153 134.441C202.153 118.733 192.506 106 180.606 106C168.706 106 159.058 118.733 159.058 134.441C159.058 150.148 168.706 162.881 180.606 162.881Z" fill="#E6E6E6"/>
<path d="M186.428 175.972L181.127 180.307V151.003L187.068 146.143C187.56 145.742 187.918 145.111 188.074 144.376L188.074 144.376H188.074C187.506 144.233 186.919 144.377 186.428 144.779L181.127 149.114V137.751C181.127 135.552 180.923 133.362 180.519 131.23C180.115 133.362 179.911 135.552 179.911 137.751V156.298L172.091 149.902C171.467 149.391 170.744 149.128 170.01 149.144C170.326 150.019 170.826 150.756 171.451 151.267L179.911 158.186V221.712H181.127V182.196L187.068 177.336C187.56 176.935 187.918 176.304 188.074 175.569L188.074 175.569H188.074C187.506 175.426 186.919 175.57 186.428 175.972V175.972Z" fill="#CCCCCC"/>
<path d="M268 221.66H163.323V222H268V221.66Z" fill="#3F3D56"/>
<path d="M241.779 133.36H241.487V113.993C241.487 112.236 240.958 110.551 240.016 109.308C239.075 108.065 237.798 107.367 236.466 107.367H203.79C202.459 107.367 201.182 108.065 200.24 109.308C199.299 110.551 198.77 112.236 198.77 113.993V122.478H198.659C198.581 122.478 198.506 122.519 198.451 122.592C198.395 122.665 198.364 122.764 198.364 122.868V126.662C198.364 126.766 198.395 126.865 198.451 126.938C198.506 127.011 198.581 127.052 198.659 127.052H198.77V130.85H198.633C198.595 130.85 198.556 130.86 198.521 130.879C198.485 130.899 198.452 130.928 198.425 130.964C198.398 131 198.376 131.043 198.361 131.09C198.346 131.137 198.339 131.188 198.339 131.239V138.421C198.339 138.524 198.37 138.623 198.425 138.696C198.48 138.769 198.555 138.81 198.633 138.81H198.77V141.595H198.646C198.608 141.595 198.569 141.605 198.534 141.625C198.498 141.644 198.465 141.673 198.438 141.709C198.41 141.745 198.389 141.788 198.374 141.836C198.359 141.883 198.352 141.933 198.351 141.984V149.234C198.352 149.337 198.383 149.436 198.438 149.509C198.493 149.582 198.568 149.623 198.646 149.623H198.77V215.328C198.77 217.086 199.299 218.771 200.24 220.014C201.182 221.256 202.459 221.954 203.79 221.954H236.466C237.798 221.954 239.075 221.256 240.016 220.014C240.958 218.771 241.487 217.086 241.487 215.328V147.249H241.779C241.857 147.249 241.932 147.208 241.987 147.135C242.043 147.062 242.074 146.963 242.074 146.86V133.749C242.074 133.646 242.043 133.547 241.987 133.474C241.932 133.401 241.857 133.36 241.779 133.36Z" fill="#3F3D56"/>
<path d="M221.474 112.472H216.506C216.357 112.472 216.214 112.394 216.108 112.254C216.003 112.115 215.943 111.927 215.943 111.73V111.446C215.943 111.249 216.003 111.06 216.108 110.921C216.214 110.782 216.357 110.703 216.506 110.703H221.474C221.624 110.703 221.767 110.782 221.872 110.921C221.978 111.06 222.037 111.249 222.037 111.446V111.73C222.037 111.927 221.978 112.115 221.872 112.254C221.767 112.394 221.624 112.472 221.474 112.472V112.472Z" fill="white"/>
<path d="M223.562 112.496C223.941 112.496 224.249 112.09 224.249 111.589C224.249 111.087 223.941 110.681 223.562 110.681C223.182 110.681 222.874 111.087 222.874 111.589C222.874 112.09 223.182 112.496 223.562 112.496Z" fill="white"/>
<path d="M235.456 110.351H230.563V111.128C230.563 112.106 230.269 113.044 229.745 113.736C229.221 114.427 228.51 114.816 227.769 114.816H212.182C211.816 114.816 211.452 114.721 211.114 114.536C210.775 114.351 210.467 114.079 210.207 113.737C209.948 113.395 209.742 112.989 209.601 112.542C209.461 112.095 209.389 111.615 209.388 111.131V110.351H204.801C203.901 110.351 203.038 110.823 202.402 111.663C201.766 112.503 201.408 113.642 201.408 114.829V114.829V214.491C201.408 215.678 201.766 216.817 202.402 217.657C203.038 218.497 203.901 218.968 204.801 218.968H235.456C236.355 218.968 237.218 218.497 237.854 217.657C238.49 216.818 238.847 215.679 238.847 214.492V114.829C238.847 114.242 238.76 113.659 238.59 113.116C238.419 112.573 238.17 112.079 237.855 111.664C237.54 111.248 237.166 110.918 236.755 110.693C236.343 110.468 235.902 110.352 235.457 110.351H235.456Z" fill="white"/>
<path d="M226.694 206.875H213.561C212.622 206.875 211.722 206.383 211.058 205.506C210.394 204.63 210.021 203.441 210.021 202.202C210.021 200.962 210.394 199.774 211.058 198.897C211.722 198.021 212.622 197.528 213.561 197.528H226.694C227.633 197.528 228.534 198.021 229.198 198.897C229.862 199.774 230.235 200.962 230.235 202.202C230.235 203.441 229.862 204.63 229.198 205.506C228.534 206.383 227.633 206.875 226.694 206.875V206.875Z" fill="#6C63FF"/>
<path d="M231.844 168.487H208.411C208.087 168.487 207.775 168.317 207.546 168.014C207.317 167.711 207.188 167.301 207.188 166.873C207.188 166.444 207.317 166.034 207.546 165.731C207.775 165.428 208.087 165.258 208.411 165.258H231.844C232.169 165.258 232.48 165.428 232.709 165.731C232.938 166.034 233.067 166.444 233.067 166.873C233.067 167.301 232.938 167.711 232.709 168.014C232.48 168.317 232.169 168.487 231.844 168.487V168.487Z" fill="#E6E6E6"/>
<path d="M231.844 173.245H208.411C208.087 173.245 207.775 173.075 207.546 172.773C207.317 172.47 207.188 172.059 207.188 171.631C207.188 171.203 207.317 170.792 207.546 170.489C207.775 170.187 208.087 170.016 208.411 170.016H231.844C232.169 170.016 232.48 170.187 232.709 170.489C232.938 170.792 233.067 171.203 233.067 171.631C233.067 172.059 232.938 172.47 232.709 172.773C232.48 173.075 232.169 173.245 231.844 173.245V173.245Z" fill="#E6E6E6"/>
<path d="M231.844 178.004H208.411C208.087 178.004 207.775 177.834 207.546 177.531C207.317 177.228 207.188 176.818 207.188 176.389C207.188 175.961 207.317 175.551 207.546 175.248C207.775 174.945 208.087 174.775 208.411 174.775H231.844C232.169 174.775 232.48 174.945 232.709 175.248C232.938 175.551 233.067 175.961 233.067 176.389C233.067 176.818 232.938 177.228 232.709 177.531C232.48 177.834 232.169 178.004 231.844 178.004V178.004Z" fill="#E6E6E6"/>
<path d="M231.844 182.762H208.411C208.087 182.762 207.775 182.592 207.546 182.289C207.317 181.987 207.188 181.576 207.188 181.148C207.188 180.72 207.317 180.309 207.546 180.006C207.775 179.703 208.087 179.533 208.411 179.533H231.844C232.169 179.533 232.48 179.703 232.709 180.006C232.938 180.309 233.067 180.72 233.067 181.148C233.067 181.576 232.938 181.987 232.709 182.289C232.48 182.592 232.169 182.762 231.844 182.762V182.762Z" fill="#E6E6E6"/>
<path d="M215.879 187.521H208.411C208.087 187.521 207.775 187.35 207.546 187.048C207.317 186.745 207.188 186.334 207.188 185.906C207.188 185.478 207.317 185.067 207.546 184.765C207.775 184.462 208.087 184.292 208.411 184.292H215.879C216.203 184.292 216.514 184.462 216.744 184.765C216.973 185.067 217.102 185.478 217.102 185.906C217.102 186.334 216.973 186.745 216.744 187.048C216.514 187.35 216.203 187.521 215.879 187.521H215.879Z" fill="#E6E6E6"/>
<path d="M235.512 155.257H204.743C204.471 155.256 204.211 155.114 204.018 154.86C203.826 154.606 203.718 154.262 203.718 153.903V123.761C203.718 123.402 203.826 123.058 204.018 122.804C204.211 122.55 204.471 122.408 204.743 122.407H235.512C235.784 122.408 236.045 122.55 236.237 122.804C236.429 123.058 236.538 123.402 236.538 123.761V153.903C236.538 154.262 236.429 154.606 236.237 154.86C236.045 155.114 235.784 155.256 235.512 155.257V155.257Z" fill="#E6E6E6"/>
<g opacity="0.1">
<path opacity="0.1" d="M240.962 146.653C240.962 146.419 240.962 146.185 240.962 145.949C240.955 146.131 240.955 146.313 240.962 146.495C240.96 146.547 240.962 146.6 240.962 146.653Z" fill="black"/>
</g>
<path d="M246.094 160.016C247.96 160.016 249.473 158.02 249.473 155.557C249.473 153.094 247.96 151.098 246.094 151.098C244.229 151.098 242.716 153.094 242.716 155.557C242.716 158.02 244.229 160.016 246.094 160.016Z" fill="#FFB8B8"/>
<path d="M254.881 191.715C255.013 191.556 255.116 191.36 255.185 191.142C255.253 190.924 255.285 190.689 255.277 190.453C255.269 190.217 255.222 189.987 255.139 189.778C255.056 189.569 254.94 189.386 254.798 189.243L254.337 183.842L251.772 184.766L253.021 189.627C252.854 189.958 252.785 190.358 252.827 190.751C252.869 191.145 253.019 191.504 253.248 191.761C253.477 192.019 253.77 192.156 254.071 192.148C254.372 192.139 254.66 191.985 254.881 191.715V191.715Z" fill="#FFB8B8"/>
<path d="M256.755 219.06L258.171 217.851L255.312 210.067L253.223 211.851L256.755 219.06Z" fill="#FFB8B8"/>
<path d="M261.752 217.255L257.302 221.054L256.19 218.785L258.985 216.398C259.203 216.213 259.446 216.086 259.7 216.024C259.955 215.962 260.216 215.967 260.469 216.039C260.722 216.111 260.962 216.248 261.175 216.442C261.388 216.636 261.57 216.883 261.711 217.17L261.752 217.255V217.255Z" fill="#2F2E41"/>
<path d="M244.216 219.851H245.902L246.705 211.266H244.216V219.851Z" fill="#FFB8B8"/>
<path d="M249.154 221.917H243.854V219.215H247.183C247.706 219.215 248.207 219.489 248.577 219.977C248.947 220.465 249.154 221.126 249.154 221.816V221.917V221.917Z" fill="#2F2E41"/>
<path d="M250.984 164.411C250.759 165.375 251.554 166.424 251.811 167.371C252.068 168.319 252.413 169.23 252.552 170.221C252.647 170.903 254.798 185.958 254.694 186.875C254.032 186.613 253.319 186.699 252.704 187.116C252.274 186.119 252.016 185.01 251.948 183.868C251.922 183.19 251.927 182.511 251.962 181.834C252.029 179.919 251.4 178.001 251.379 176.084C251.386 175.42 251.346 174.756 251.26 174.101C251.191 173.651 251.198 172.809 251.123 172.36C251.006 171.646 251.513 171.317 251.484 170.586L251.33 166.593C251.298 165.894 250.766 165.036 250.984 164.411Z" fill="#2F2E41"/>
<path d="M243.357 181.164C242.814 182.28 241.673 182.522 240.875 183.322C239.655 184.551 242.767 212.166 243.794 217.072C246.505 216.535 246.6 216.537 246.912 216.356C247.224 216.175 247.506 202.149 248.165 199.257C249.397 200.791 253.277 213.971 254.096 216.893C257.349 215.819 254.096 216.893 258.298 215.461C258.263 214.449 252.089 181.452 251.864 178.852C249.039 179.595 246.173 180.423 243.357 181.164Z" fill="#2F2E41"/>
<path d="M242.991 160.428C242.656 161.737 243.112 166.831 243.145 167.977C243.193 169.017 243.193 170.06 243.145 171.1C243.029 172.901 242.624 174.714 242.896 176.485C243.074 177.656 243.391 178.746 243.466 179.938C243.516 180.764 243.5 181.604 243.698 182.387C244.428 181.974 250.902 180.554 251.378 179.729C251.052 177.654 251.368 175.511 251.152 173.412C251.026 172.201 250.717 171.036 250.571 169.832C250.39 168.345 250.466 166.803 250.138 165.358C249.955 164.627 249.724 163.919 249.446 163.242C249.163 162.472 248.808 161.84 248.687 161.84C248.379 161.862 243.011 160.311 242.991 160.428Z" fill="#6C63FF"/>
<path d="M241.752 191.603C241.752 191.603 242.874 188.647 242.93 186.956C242.95 186.349 244.21 183.932 244.778 183.384C246.124 182.083 247.116 173.362 246.661 171.246C245.874 167.587 244.549 164.177 243.205 160.815C243.165 160.689 243.1 160.58 243.017 160.499C242.744 160.275 242.447 160.717 242.261 161.062C241.627 162.234 240.584 162.861 239.629 163.553C238.673 164.246 237.696 165.168 237.407 166.555C237.213 167.486 237.364 168.473 237.511 169.416C237.658 170.359 238.173 171.108 238.562 171.903C239.013 172.779 240.184 176.668 240.175 177.129C240.198 179.982 240.22 182.845 239.958 185.678C239.811 187.28 239.682 190.497 239.682 190.497L241.752 191.603Z" fill="#2F2E41"/>
<path d="M251.946 188.546C249.879 182.338 249.995 175.273 248.681 168.719C248.291 166.774 247.77 164.818 247.864 162.81C247.88 162.45 247.938 162.047 248.165 161.846C248.367 161.667 248.643 161.715 248.865 161.846C249.087 161.977 249.277 162.19 249.491 162.336C249.836 162.569 250.238 162.635 250.57 162.898C251.062 163.289 251.313 164.032 251.534 164.732C252.004 166.226 252.472 167.761 252.51 169.38C252.589 172.525 251.532 175.547 252.083 178.605C252.202 179.208 252.344 179.803 252.509 180.387C253.061 182.496 253.514 184.649 253.865 186.832C253.927 187.205 252.032 188.808 251.946 188.546Z" fill="#2F2E41"/>
<path d="M245.385 187.077C245.413 186.844 245.401 186.606 245.352 186.379C245.302 186.153 245.215 185.943 245.098 185.765C244.98 185.588 244.834 185.446 244.671 185.351C244.507 185.256 244.33 185.209 244.151 185.214L241.237 181.375L239.67 184.21L242.944 186.979C242.971 187.374 243.106 187.744 243.325 188.016C243.544 188.289 243.831 188.447 244.132 188.459C244.432 188.471 244.726 188.337 244.957 188.082C245.188 187.828 245.34 187.47 245.385 187.077V187.077Z" fill="#FFB8B8"/>
<path d="M236.1 178.357C236.148 178.934 239.819 185.018 241.814 187.004C241.698 186.221 243.262 183.665 243.768 183.266C242.504 181.692 239.862 178.04 239.775 177.841C239.489 177.113 239.775 176.242 240.024 175.489C240.81 173.095 241.18 170.378 240.676 167.854C240.486 166.907 240.155 165.959 239.551 165.376C239.287 165.123 238.93 164.949 238.637 165.142C238.514 165.235 238.407 165.361 238.324 165.512C237.388 167.015 236.064 177.929 236.1 178.357Z" fill="#2F2E41"/>
<path d="M244.655 159.459C244.852 158.354 243.855 155.977 244.052 154.873C244.185 154.125 245.518 154.633 245.829 153.983C246.14 153.334 246.661 152.807 247.243 152.799C247.913 152.789 248.571 153.444 249.205 153.161C249.846 152.874 250.051 151.716 249.768 150.905C249.484 150.093 248.874 149.577 248.271 149.172C247.244 148.482 246.048 147.978 244.948 148.435C244.284 148.71 243.728 149.308 243.19 149.893C242.7 150.426 242.202 150.971 241.859 151.676C241.188 153.059 241.228 154.921 241.802 156.378C242.376 157.835 243.421 158.905 244.573 159.525" fill="#2F2E41"/>
</g>
<defs>
<filter id="filter0_d_787_7666" x="77.1406" y="30.7539" width="260.246" height="59.4805" filterUnits="userSpaceOnUse" color-interpolation-filters="sRGB">
<feFlood flood-opacity="0" result="BackgroundImageFix"/>
<feColorMatrix in="SourceAlpha" type="matrix" values="0 0 0 0 0 0 0 0 0 0 0 0 0 0 0 0 0 0 127 0" result="hardAlpha"/>
<feOffset dy="4"/>
<feGaussianBlur stdDeviation="2"/>
<feComposite in2="hardAlpha" operator="out"/>
<feColorMatrix type="matrix" values="0 0 0 0 0 0 0 0 0 0 0 0 0 0 0 0 0 0 0.25 0"/>
<feBlend mode="normal" in2="BackgroundImageFix" result="effect1_dropShadow_787_7666"/>
<feBlend mode="normal" in="SourceGraphic" in2="effect1_dropShadow_787_7666" result="shape"/>
</filter>
<clipPath id="clip0_787_7666">
<rect width="109" height="116" fill="white" transform="translate(159 106)"/>
</clipPath>
</defs>
</svg>
