<svg width="29" height="26" viewBox="0 0 29 26" fill="none" xmlns="http://www.w3.org/2000/svg">
<g filter="url(#filter0_d_1107_1843)">
<path d="M7.52072 4.61538H21.8064C22.5642 4.61538 23.2909 4.93956 23.8267 5.51659C24.3626 6.09363 24.6636 6.87626 24.6636 7.69231V12.3077C24.6636 13.1237 24.3626 13.9064 23.8267 14.4834C23.2909 15.0604 22.5642 15.3846 21.8064 15.3846H7.52072C6.76296 15.3846 6.03623 15.0604 5.50041 14.4834C4.96459 13.9064 4.66357 13.1237 4.66357 12.3077V7.69231C4.66357 6.87626 4.96459 6.09363 5.50041 5.51659C6.03623 4.93956 6.76296 4.61538 7.52072 4.61538ZM7.52072 6.15385C7.14184 6.15385 6.77847 6.31593 6.51056 6.60445C6.24266 6.89297 6.09215 7.28428 6.09215 7.69231V12.3077C6.09215 12.7157 6.24266 13.107 6.51056 13.3955C6.77847 13.6841 7.14184 13.8462 7.52072 13.8462H21.8064C22.1853 13.8462 22.5487 13.6841 22.8166 13.3955C23.0845 13.107 23.235 12.7157 23.235 12.3077V7.69231C23.235 7.28428 23.0845 6.89297 22.8166 6.60445C22.5487 6.31593 22.1853 6.15385 21.8064 6.15385H7.52072ZM4.66357 0.769231C4.66357 0.565218 4.73883 0.369561 4.87278 0.225302C5.00674 0.0810437 5.18842 0 5.37786 0H23.9493C24.1387 0 24.3204 0.0810437 24.4544 0.225302C24.5883 0.369561 24.6636 0.565218 24.6636 0.769231C24.6636 0.973243 24.5883 1.1689 24.4544 1.31316C24.3204 1.45742 24.1387 1.53846 23.9493 1.53846H5.37786C5.18842 1.53846 5.00674 1.45742 4.87278 1.31316C4.73883 1.1689 4.66357 0.973243 4.66357 0.769231ZM4.66357 19.2308C4.66357 19.0268 4.73883 18.8311 4.87278 18.6868C5.00674 18.5426 5.18842 18.4615 5.37786 18.4615H23.9493C24.1387 18.4615 24.3204 18.5426 24.4544 18.6868C24.5883 18.8311 24.6636 19.0268 24.6636 19.2308C24.6636 19.4348 24.5883 19.6304 24.4544 19.7747C24.3204 19.919 24.1387 20 23.9493 20H5.37786C5.18842 20 5.00674 19.919 4.87278 19.7747C4.73883 19.6304 4.66357 19.4348 4.66357 19.2308Z" fill="#FFC700"/>
</g>
<defs>
<filter id="filter0_d_1107_1843" x="0.663574" y="0" width="28" height="28" filterUnits="userSpaceOnUse" color-interpolation-filters="sRGB">
<feFlood flood-opacity="0" result="BackgroundImageFix"/>
<feColorMatrix in="SourceAlpha" type="matrix" values="0 0 0 0 0 0 0 0 0 0 0 0 0 0 0 0 0 0 127 0" result="hardAlpha"/>
<feOffset dy="4"/>
<feGaussianBlur stdDeviation="2"/>
<feComposite in2="hardAlpha" operator="out"/>
<feColorMatrix type="matrix" values="0 0 0 0 0 0 0 0 0 0 0 0 0 0 0 0 0 0 0.5 0"/>
<feBlend mode="normal" in2="BackgroundImageFix" result="effect1_dropShadow_1107_1843"/>
<feBlend mode="normal" in="SourceGraphic" in2="effect1_dropShadow_1107_1843" result="shape"/>
</filter>
</defs>
</svg>
