<svg width="26" height="17" viewBox="0 0 26 17" fill="none" xmlns="http://www.w3.org/2000/svg">
<path d="M2.83453 1.375H2.33453V1.875V15V15.5H2.83453H7.52203H10.942H10.9595H23.4595H23.9595V15V1.875V1.375H23.4595H2.83453ZM5.64703 16.375H1.45953V0.5H24.8345V16.375H11.602H5.64703ZM6.54976 7.46523C6.80762 7.20737 7.15736 7.0625 7.52203 7.0625C7.88671 7.0625 8.23644 7.20737 8.4943 7.46523C8.75217 7.72309 8.89703 8.07283 8.89703 8.4375C8.89703 8.80217 8.75217 9.15191 8.4943 9.40977C8.23644 9.66763 7.88671 9.8125 7.52203 9.8125C7.15736 9.8125 6.80762 9.66763 6.54976 9.40977C6.2919 9.15191 6.14703 8.80217 6.14703 8.4375C6.14703 8.07283 6.2919 7.72309 6.54976 7.46523ZM12.1748 7.46523C12.4326 7.20737 12.7824 7.0625 13.147 7.0625C13.5117 7.0625 13.8614 7.20737 14.1193 7.46523C14.3772 7.72309 14.522 8.07283 14.522 8.4375C14.522 8.80217 14.3772 9.15191 14.1193 9.40977C13.8614 9.66763 13.5117 9.8125 13.147 9.8125C12.7824 9.8125 12.4326 9.66763 12.1748 9.40977C11.9169 9.15191 11.772 8.80217 11.772 8.4375C11.772 8.07283 11.9169 7.72309 12.1748 7.46523ZM17.7998 7.46523C18.0576 7.20737 18.4074 7.0625 18.772 7.0625C19.1367 7.0625 19.4864 7.20737 19.7443 7.46523C20.0022 7.72309 20.147 8.07283 20.147 8.4375C20.147 8.80217 20.0022 9.15191 19.7443 9.40977C19.4864 9.66763 19.1367 9.8125 18.772 9.8125C18.4074 9.8125 18.0576 9.66763 17.7998 9.40977C17.5419 9.15191 17.397 8.80217 17.397 8.4375C17.397 8.07283 17.5419 7.72309 17.7998 7.46523Z" fill="white" stroke="#EEEEEE"/>
</svg>
